<svg id="ba9a367e-1b17-461e-8eb8-9f8f913974dc" data-name="Layer 1" xmlns="http://www.w3.org/2000/svg" width="64" height="64" viewBox="0 0 64 64"><defs><style>.a7e7564d-4d22-4c80-adcf-112ec3e4c6b3{fill:#666;}.f94fea02-d425-47c8-b7fa-6b3b640a88ea{fill:#333;}.a8fff0d6-a8ed-4bb1-a4a7-49fb0072678e{fill:#ccc;fill-rule:evenodd;}</style></defs><rect class="a7e7564d-4d22-4c80-adcf-112ec3e4c6b3" x="0.5" y="0.5" width="63" height="63"/><path class="f94fea02-d425-47c8-b7fa-6b3b640a88ea" d="M63,1V63H1V1H63m1-1H0V64H64V0Z"/><path class="a8fff0d6-a8ed-4bb1-a4a7-49fb0072678e" d="M58,32h0a25.839,25.839,0,0,1-1.9,9.979q-.312.755-.673,1.476a26.188,26.188,0,0,1-5.044,6.924h0a27.977,27.977,0,0,1-2.188,1.98,25.346,25.346,0,0,1-2.319,1.684A25.016,25.016,0,0,1,32,58h0a25.839,25.839,0,0,1-9.979-1.905q-.755-.31-1.476-.672a26.17,26.17,0,0,1-6.924-5.045h0a27.786,27.786,0,0,1-1.98-2.187,25.484,25.484,0,0,1-1.684-2.319A24.954,24.954,0,0,1,6,32H6a25.857,25.857,0,0,1,1.9-9.979q.312-.755.673-1.476a26.188,26.188,0,0,1,5.044-6.924h0a27.977,27.977,0,0,1,2.188-1.98,25.484,25.484,0,0,1,2.319-1.684A24.977,24.977,0,0,1,32,6h0a25.857,25.857,0,0,1,9.979,1.9q.755.312,1.476.673a26.188,26.188,0,0,1,6.924,5.044h0a27.977,27.977,0,0,1,1.98,2.188,25.484,25.484,0,0,1,1.684,2.319A24.977,24.977,0,0,1,58,32ZM32,10.638h.135V53.362H32a21.362,21.362,0,0,1,0-42.724Z"/></svg>