<svg id="ab1400b1-c581-4ea5-b7b9-f5c2f018b171" data-name="Layer 1" xmlns="http://www.w3.org/2000/svg" width="64" height="64" viewBox="0 0 64 64"><defs><style>.ba96ec2f-99a8-42d6-b37d-88d997dd9c1f{fill:#333;}.a358bbf4-6f9a-45ef-b3cf-c71bbb1af252,.ad1ddf4c-95d3-4d2f-a2d0-457bbcfe4705{fill:#fff;}.a358bbf4-6f9a-45ef-b3cf-c71bbb1af252{fill-rule:evenodd;}</style></defs><rect x="0.5" y="0.5" width="63" height="63"/><path class="ba96ec2f-99a8-42d6-b37d-88d997dd9c1f" d="M63,1V63H1V1H63m1-1H0V64H64V0Z"/><rect x="1.5" y="1.5" width="61" height="61"/><path class="ad1ddf4c-95d3-4d2f-a2d0-457bbcfe4705" d="M62,2V62H2V2H62m1-1H1V63H63V1Z"/><path class="a358bbf4-6f9a-45ef-b3cf-c71bbb1af252" d="M58,32h0a25.839,25.839,0,0,1-1.9,9.979q-.312.755-.673,1.476a26.188,26.188,0,0,1-5.044,6.924h0a27.977,27.977,0,0,1-2.188,1.98,25.346,25.346,0,0,1-2.319,1.684A25.016,25.016,0,0,1,32,58h0a25.839,25.839,0,0,1-9.979-1.905q-.755-.31-1.476-.672a26.17,26.17,0,0,1-6.924-5.045h0a27.786,27.786,0,0,1-1.98-2.187,25.484,25.484,0,0,1-1.684-2.319A24.954,24.954,0,0,1,6,32H6a25.857,25.857,0,0,1,1.9-9.979q.312-.755.673-1.476a26.188,26.188,0,0,1,5.044-6.924h0a27.977,27.977,0,0,1,2.188-1.98,25.484,25.484,0,0,1,2.319-1.684A24.977,24.977,0,0,1,32,6h0a25.857,25.857,0,0,1,9.979,1.9q.755.312,1.476.673a26.188,26.188,0,0,1,6.924,5.044h0a27.977,27.977,0,0,1,1.98,2.188,25.484,25.484,0,0,1,1.684,2.319A24.977,24.977,0,0,1,58,32ZM32,10.638h.135V53.362H32a21.362,21.362,0,0,1,0-42.724Z"/></svg>