<svg xmlns="http://www.w3.org/2000/svg" width="512" height="512" viewBox="0 0 512 512"><defs><style>.a{fill:#fff;}.b{fill:#666;}.c{fill:#0033ce;}.d{fill:#fc0;}</style></defs><title>language</title><rect class="a" x="2.5" y="2.5" width="507" height="507"/><path class="b" d="M507,5V507H5V5H507m5-5H0V512H512V0Z"/><rect class="c" x="64" y="96" width="384" height="336"/><polygon class="d" points="262.165 159.207 272.419 151.78 259.81 151.78 255.894 139.778 251.977 151.78 239.369 151.78 249.623 159.207 245.689 171.262 255.894 163.871 266.099 171.262 262.165 159.207"/><polygon class="d" points="262.165 367.945 272.419 360.518 259.81 360.518 255.894 348.515 251.977 360.518 239.369 360.518 249.623 367.945 245.689 380 255.894 372.609 266.099 380 262.165 367.945"/><polygon class="d" points="157.796 263.576 168.05 256.149 155.442 256.149 151.525 244.147 147.609 256.149 135 256.149 145.254 263.576 141.32 275.631 151.525 268.24 161.73 275.631 157.796 263.576"/><polygon class="d" points="209.981 173.181 220.235 165.754 207.626 165.754 203.709 153.752 199.793 165.754 187.184 165.754 197.438 173.181 193.505 185.236 203.709 177.845 213.914 185.236 209.981 173.181"/><polygon class="d" points="171.77 211.391 182.024 203.965 169.415 203.965 165.499 191.962 161.582 203.965 148.974 203.965 159.228 211.391 155.294 223.447 165.499 216.056 175.704 223.447 171.77 211.391"/><polygon class="d" points="171.77 315.76 182.024 308.333 169.415 308.333 165.499 296.331 161.582 308.333 148.974 308.333 159.228 315.76 155.294 327.816 165.499 320.424 175.704 327.816 171.77 315.76"/><polygon class="d" points="209.981 353.971 220.235 346.544 207.626 346.544 203.709 334.542 199.793 346.544 187.184 346.544 197.438 353.971 193.505 366.026 203.709 358.635 213.914 366.026 209.981 353.971"/><polygon class="d" points="366.534 263.576 376.788 256.149 364.179 256.149 360.263 244.147 356.346 256.149 343.738 256.149 353.992 263.576 350.058 275.631 360.263 268.24 370.468 275.631 366.534 263.576"/><polygon class="d" points="314.349 173.181 324.603 165.754 311.995 165.754 308.078 153.752 304.162 165.754 291.553 165.754 301.807 173.181 297.873 185.236 308.078 177.845 318.283 185.236 314.349 173.181"/><polygon class="d" points="352.56 211.391 362.814 203.965 350.205 203.965 346.289 191.962 342.372 203.965 329.764 203.965 340.018 211.391 336.084 223.447 346.289 216.056 356.494 223.447 352.56 211.391"/><polygon class="d" points="352.56 315.76 362.814 308.333 350.205 308.333 346.289 296.331 342.372 308.333 329.764 308.333 340.018 315.76 336.084 327.816 346.289 320.424 356.494 327.816 352.56 315.76"/><polygon class="d" points="324.603 346.544 311.995 346.544 308.078 334.542 304.162 346.544 291.553 346.544 301.807 353.971 297.873 366.026 308.078 358.635 318.283 366.026 314.349 353.971 324.603 346.544"/></svg>