<svg id="fd2659b0-a38b-49b9-bc7a-4a5b3c922f9f" data-name="Layer 1" xmlns="http://www.w3.org/2000/svg" width="64" height="64" viewBox="0 0 64 64"><defs><style>.fdf07ec2-9928-4813-a282-71048df1b4cf{fill:#fff;}.bcde0f3a-13f9-44b8-8854-9cbb11be8e30{fill:#666;}.f3fd819a-5839-4da1-aeda-cd1e522922a5{fill:#999;fill-rule:evenodd;}</style></defs><rect class="fdf07ec2-9928-4813-a282-71048df1b4cf" x="0.5" y="0.5" width="63" height="63"/><path class="bcde0f3a-13f9-44b8-8854-9cbb11be8e30" d="M63,1V63H1V1H63m1-1H0V64H64V0Z"/><path class="f3fd819a-5839-4da1-aeda-cd1e522922a5" d="M58,32h0a25.839,25.839,0,0,1-1.9,9.979q-.312.755-.673,1.476a26.188,26.188,0,0,1-5.044,6.924h0a27.977,27.977,0,0,1-2.188,1.98,25.346,25.346,0,0,1-2.319,1.684A25.016,25.016,0,0,1,32,58h0a25.839,25.839,0,0,1-9.979-1.905q-.755-.31-1.476-.672a26.17,26.17,0,0,1-6.924-5.045h0a27.786,27.786,0,0,1-1.98-2.187,25.484,25.484,0,0,1-1.684-2.319A24.954,24.954,0,0,1,6,32H6a25.857,25.857,0,0,1,1.9-9.979q.312-.755.673-1.476a26.188,26.188,0,0,1,5.044-6.924h0a27.977,27.977,0,0,1,2.188-1.98,25.484,25.484,0,0,1,2.319-1.684A24.977,24.977,0,0,1,32,6h0a25.857,25.857,0,0,1,9.979,1.9q.755.312,1.476.673a26.188,26.188,0,0,1,6.924,5.044h0a27.977,27.977,0,0,1,1.98,2.188,25.484,25.484,0,0,1,1.684,2.319A24.977,24.977,0,0,1,58,32ZM32,10.638h.135V53.362H32a21.362,21.362,0,0,1,0-42.724Z"/></svg>