<svg id="b6df9c4f-c92c-4972-af6a-9f992566ff25" data-name="Layer 1" xmlns="http://www.w3.org/2000/svg" width="64.071" height="64.203" viewBox="0 0 64.071 64.203"><defs><style>.aa5428fc-8ff1-4405-8042-a90fc618aab6{fill:#fff;}.b2a9d5c8-b34b-431f-947e-95440da19fd6{fill:#666;}.b0d9bcdc-5677-4292-9a06-23b6880693fa{fill:#333;}</style></defs><rect class="aa5428fc-8ff1-4405-8042-a90fc618aab6" width="64" height="64"/><path class="b2a9d5c8-b34b-431f-947e-95440da19fd6" d="M63.571,64.2h0L.6,63.874a.5.5,0,0,1-.5-.5V.6A.5.5,0,0,1,.6.1H63.571a.5.5,0,0,1,.5.5V63.7a.5.5,0,0,1-.147.355A.506.506,0,0,1,63.571,64.2ZM1.1,62.877l61.967.323V1.1H1.1Z" transform="translate(0)"/><path class="b0d9bcdc-5677-4292-9a06-23b6880693fa" d="M45,22V15H20a1.963,1.963,0,0,0-2,2V46a1.963,1.963,0,0,0,2,2H45V45h3v6H20a4.909,4.909,0,0,1-5-5V17a4.909,4.909,0,0,1,5-5H48v7" transform="translate(0)"/><rect class="b0d9bcdc-5677-4292-9a06-23b6880693fa" x="23" y="22" width="17" height="3"/><rect class="b0d9bcdc-5677-4292-9a06-23b6880693fa" x="23" y="30" width="17" height="3"/><rect class="b0d9bcdc-5677-4292-9a06-23b6880693fa" x="23" y="38" width="17" height="3"/></svg>