<svg xmlns="http://www.w3.org/2000/svg" width="64" height="64" viewBox="0 0 64 64"><defs><style>.a{fill:#fff;}.b{fill:#666;}.c{fill:#006837;}</style></defs><title>preferences</title><rect class="a" x="0.5" y="0.5" width="63" height="63"/><path class="b" d="M63,1V63H1V1H63m1-1H0V64H64V0Z"/><path class="c" d="M18.452,18.566a1.914,1.914,0,0,0,.035-.341V13a2,2,0,0,0-4,0v5.225a1.966,1.966,0,0,0,.039.386,5.537,5.537,0,0,0,0,10.318,1.966,1.966,0,0,0-.039.386V51a2,2,0,0,0,4,0V29.315a1.933,1.933,0,0,0-.035-.341,5.535,5.535,0,0,0,0-10.408Zm-1.9,6.749A1.545,1.545,0,1,1,18.1,23.77,1.55,1.55,0,0,1,16.55,25.315Z"/><path class="c" d="M33.635,34.287a2,2,0,0,0,.036-.358V13a2,2,0,0,0-4,0V33.929a2.043,2.043,0,0,0,.037.369,5.536,5.536,0,0,0,0,10.352,2.045,2.045,0,0,0-.037.37V51a2,2,0,0,0,4,0V45.02a2.023,2.023,0,0,0-.036-.359,5.536,5.536,0,0,0,0-10.374Zm-1.949,6.732a1.545,1.545,0,1,1,1.551-1.545A1.549,1.549,0,0,1,31.686,41.019Z"/><path class="c" d="M52.373,28.64a5.544,5.544,0,0,0-3.556-5.17,2.02,2.02,0,0,0,.037-.375V13a2,2,0,0,0-4,0V23.1a2.049,2.049,0,0,0,.036.352,5.536,5.536,0,0,0,0,10.386,2.029,2.029,0,0,0-.036.352V51a2,2,0,0,0,4,0V34.185a2,2,0,0,0-.037-.375A5.544,5.544,0,0,0,52.373,28.64Zm-5.551,1.545a1.545,1.545,0,1,1,1.551-1.545A1.549,1.549,0,0,1,46.822,30.185Z"/></svg>