<svg xmlns="http://www.w3.org/2000/svg" width="23.5" height="23.5" viewBox="0 0 23.5 23.5">
  <defs>
    <style>
      .a {
        fill: #fff;
        stroke: #999;
        stroke-miterlimit: 10;
        stroke-width: 0.5px;
      }

      .b {
        fill: #666;
        stroke: #666;
        stroke-linecap: round;
        stroke-linejoin: round;
        stroke-width: 0.75px;
      }
    </style>
  </defs>
  <title>testconnection</title>
  <rect class="a" x="0.25" y="0.25" width="23" height="23"/>
  <path class="b" d="M3.5,6.5h8a3,3,0,0,1,3,3v.01a2.99,2.99,0,0,1-2.99,2.99H10.5a2,2,0,0,0-2,2v.01a1.99,1.99,0,0,0,1.99,1.99H15.5v-1L20,17l-4.5,1.5v-1H10.49A2.99,2.99,0,0,1,7.5,14.51V14.5a3,3,0,0,1,3-3h1a2,2,0,0,0,2-2V9.49A1.99,1.99,0,0,0,11.51,7.5H3.5v-1" transform="translate(-0.25 -0.25)"/>
</svg>
