<svg id="Layer_1" data-name="Layer 1" xmlns="http://www.w3.org/2000/svg" width="64" height="64" viewBox="0 0 64 64"><defs><style>.cls-1{fill:#fafafa;}.cls-2{fill:#666;}.cls-3{fill:#0071bc;}</style></defs><title>notification_information</title><rect class="cls-1" x="0.5" y="0.5" width="63" height="63"/><path class="cls-2" d="M63,1V63H1V1H63m1-1H0V64H64V0Z"/><path class="cls-3" d="M31.5,6.962A24.538,24.538,0,1,0,56.038,31.5,24.555,24.555,0,0,0,31.5,6.962Zm0,2.134A22.4,22.4,0,1,1,9.1,31.5,22.388,22.388,0,0,1,31.5,9.1Zm0,7.468a3.2,3.2,0,1,0,3.2,3.2A3.2,3.2,0,0,0,31.5,16.564ZM27.233,27.233v2.133h2.133V43.235H27.233v2.134h8.534V43.235H33.634v-16h-6.4Z"/><path class="cls-3" d="M31.5,57A25.5,25.5,0,1,1,57,31.5,25.529,25.529,0,0,1,31.5,57Zm0-49.075A23.575,23.575,0,1,0,55.075,31.5,23.6,23.6,0,0,0,31.5,7.925Zm0,46.941A23.366,23.366,0,1,1,54.866,31.5,23.393,23.393,0,0,1,31.5,54.866Zm0-44.808A21.442,21.442,0,1,0,52.941,31.5,21.466,21.466,0,0,0,31.5,10.058Zm5.229,36.273H26.271V42.273H28.4V30.329H26.271V26.271H34.6v16h2.133ZM28.2,44.407h6.61V44.2H32.672v-16H28.2V28.4h2.134V44.2H28.2ZM31.5,23.927a4.163,4.163,0,1,1,4.163-4.163A4.168,4.168,0,0,1,31.5,23.927Zm0-6.4a2.239,2.239,0,1,0,2.238,2.238A2.241,2.241,0,0,0,31.5,17.526Z"/></svg>