<svg id="Layer_1" data-name="Layer 1" xmlns="http://www.w3.org/2000/svg" viewBox="0 0 64 64"><defs><style>.cls-1{fill:#fafafa;}.cls-2{fill:#666;}.cls-3{fill:#ffb03c;}</style></defs><rect class="cls-1" x="0.5" y="0.5" width="63" height="63"/><path class="cls-2" d="M63,1V63H1V1H63m1-1H0V64H64V0Z"/><path class="cls-3" d="M30.34,9.64c7.85,0,15.57,3.62,15.57,12.26,0,8-9.13,11-11.09,13.91-1.48,2.14-1,5.16-5,5.16a3.91,3.91,0,0,1-3.92-4.11c0-7.3,10.72-8.95,10.72-15,0-3.31-2.2-5.27-5.88-5.27-7.85,0-4.78,8.09-10.72,8.09A3.67,3.67,0,0,1,16,21C16,15,22.86,9.64,30.34,9.64ZM30,44.94a5,5,0,1,1-5,5A5.05,5.05,0,0,1,30,44.94Z"/></svg>