<svg id="Layer_1" data-name="Layer 1" xmlns="http://www.w3.org/2000/svg" width="64" height="64" viewBox="0 0 64 64"><defs><style>.cls-1{fill:#fafafa;}.cls-2{fill:#666;}.cls-3{fill:#009245;}</style></defs><title>notification_ok</title><rect class="cls-1" x="0.5" y="0.5" width="63" height="63"/><path class="cls-2" d="M63,1V63H1V1H63m1-1H0V64H64V0Z"/><path class="cls-3" d="M32.547,49.843a5.047,5.047,0,0,1-7.4.965L12.1,40.084A5.89,5.89,0,0,1,11.068,32.2a5.046,5.046,0,0,1,7.4-.965l7.778,6.388a1.277,1.277,0,0,0,1.868-.244L44.026,15.254a5.048,5.048,0,0,1,7.4-.965,5.89,5.89,0,0,1,1.029,7.885Z"/></svg>