<?xml version="1.0" encoding="utf-8"?>
<!-- Generator: Adobe Illustrator 19.1.0, SVG Export Plug-In . SVG Version: 6.00 Build 0)  -->
<svg version="1.1" id="Layer_1" xmlns="http://www.w3.org/2000/svg" xmlns:xlink="http://www.w3.org/1999/xlink" x="0px" y="0px"
	 viewBox="0 0 64 64" style="enable-background:new 0 0 64 64;" xml:space="preserve">
<style type="text/css">
	.st0{fill:#FFFFFF;stroke:#666666;stroke-linecap:round;stroke-linejoin:round;stroke-miterlimit:10;}
	.st1{fill:#C1272D;stroke:#810D09;stroke-width:0.25;stroke-miterlimit:10;}
</style>
<rect x="0.5" y="0.5" class="st0" width="63" height="63"/>
<g>
	<path class="st1" d="M46.1,28.2h-0.9v-4.1c0-7.6-6-13.9-13.6-14.1c-0.2,0-0.6,0-0.8,0c-7.5,0.1-13.6,6.5-13.6,14.1v4.1h-0.9
		c-1.4,0-2.5,1.4-2.5,3.1v20.6c0,1.7,1.1,3.1,2.5,3.1h29.7c1.4,0,2.5-1.4,2.5-3.1V31.3C48.6,29.6,47.5,28.2,46.1,28.2z M34.1,41.6
		v6.2c0,0.7-0.6,1.3-1.3,1.3h-2.9c-0.7,0-1.3-0.6-1.3-1.3v-6.2c-0.7-0.7-1.1-1.6-1.1-2.7c0-2,1.5-3.7,3.5-3.7c0.2,0,0.6,0,0.8,0
		c1.9,0.1,3.5,1.8,3.5,3.7C35.2,39.9,34.8,40.9,34.1,41.6z M39.5,28.2h-7.8h-0.8h-7.8v-4.1c0-4.5,3.7-8.3,8.2-8.3s8.2,3.7,8.2,8.3
		L39.5,28.2L39.5,28.2z"/>
</g>
</svg>
