<?xml version="1.0" encoding="UTF-8"?><svg id="Layer_1" xmlns="http://www.w3.org/2000/svg" viewBox="0 0 6.72 6.72"><g id="b6WUwE.tif"><g><path d="M3.36,0c1.82,0,3.35,1.47,3.36,3.34,.01,1.87-1.5,3.37-3.34,3.38C1.52,6.73,0,5.22,0,3.36,0,1.51,1.51,0,3.36,0Zm0,.67c-1.48,0-2.69,1.2-2.69,2.69,0,1.48,1.21,2.69,2.68,2.69,1.5,0,2.7-1.2,2.7-2.71,0-1.48-1.22-2.67-2.69-2.67Z" style="fill:#606060;"/><path d="M3.36,.67c1.46,0,2.68,1.19,2.69,2.67,0,1.5-1.2,2.71-2.7,2.71-1.47,0-2.68-1.21-2.68-2.69,0-1.48,1.21-2.69,2.69-2.69Zm.34,3.69c0-.06,0-.11,0-.17,0-.07,.02-.12,.05-.18,.05-.09,.13-.16,.21-.23,.15-.12,.3-.24,.43-.38,.25-.29,.35-.62,.28-.99-.09-.45-.35-.77-.77-.96-.38-.17-.76-.16-1.13,.03-.42,.22-.65,.57-.71,1.03,0,.05,0,.09,0,.14h.67s0-.07,.01-.11c.05-.3,.31-.53,.61-.54,.31-.01,.59,.19,.66,.49,.03,.12,.04,.24-.03,.35-.03,.05-.07,.11-.12,.15-.11,.1-.22,.19-.34,.29-.17,.15-.32,.31-.41,.53-.07,.18-.08,.36-.07,.55h.67Zm0,.34h-.67v.67h.67v-.67Z" style="fill:#fff;"/><path d="M3.7,4.37h-.67c0-.19,0-.37,.07-.55,.09-.21,.23-.38,.41-.53,.11-.09,.23-.19,.34-.29,.05-.04,.08-.1,.12-.15,.07-.11,.06-.23,.03-.35-.08-.3-.35-.5-.66-.49-.3,.01-.55,.24-.61,.54,0,.03,0,.07-.01,.11h-.67s0-.09,0-.14c.06-.47,.3-.82,.71-1.03,.37-.19,.75-.2,1.13-.03,.42,.19,.67,.51,.77,.96,.08,.38-.02,.71-.28,.99-.13,.14-.28,.26-.43,.38-.08,.07-.16,.14-.21,.23-.03,.06-.05,.11-.05,.18,0,.06,0,.11,0,.17Z" style="fill:#606060;"/><path d="M3.7,4.71v.67h-.67v-.67h.67Z" style="fill:#606060;"/></g></g></svg>