<svg id="af0d629d-c024-4606-9880-45782593f2d9" data-name="Layer 1" xmlns="http://www.w3.org/2000/svg" width="64.071" height="64.203" viewBox="0 0 64.071 64.203"><defs><style>.e66cc4e0-314c-4d8a-8ccf-ef9402dcdcb4{fill:#fff;}.a08a19c3-472f-4a63-b506-4662576de5b7{fill:#666;}</style></defs><rect class="e66cc4e0-314c-4d8a-8ccf-ef9402dcdcb4" width="64" height="64"/><path class="a08a19c3-472f-4a63-b506-4662576de5b7" d="M63.571,64.2h0L.6,63.874a.5.5,0,0,1-.5-.5V.6A.5.5,0,0,1,.6.1H63.571a.5.5,0,0,1,.5.5V63.7a.5.5,0,0,1-.147.355A.506.506,0,0,1,63.571,64.2ZM1.1,62.877l61.967.323V1.1H1.1Z" transform="translate(0)"/><path class="a08a19c3-472f-4a63-b506-4662576de5b7" d="M50.375,13.418a23.72,23.72,0,0,0-8.436-5.582A27.021,27.021,0,0,0,29.906,5.851a25.918,25.918,0,0,0-16.5,7.815A25.742,25.742,0,0,0,7.2,23.59a26.782,26.782,0,0,0,.373,18.236,25.62,25.62,0,0,0,9.552,12.033,26.287,26.287,0,0,0,17,4.59,26,26,0,0,0,18.235-9.8,14.519,14.519,0,0,0,2.6-4.342c.574-1.214.854-2.04,1.117-2.481a22.55,22.55,0,0,0,1.861-7.939A26.008,26.008,0,0,0,50.375,13.418Zm-2.43,26.951-.046.1a10.085,10.085,0,0,1-1.822,3.015,18.219,18.219,0,0,1-12.752,6.805A18.483,18.483,0,0,1,21.44,47.1a17.859,17.859,0,0,1-5.852-6.535c-.083-.157-.873-1.977-.875-2.057a22.181,22.181,0,0,1-.065-11.942,19.219,19.219,0,0,1,3.6-6.327,16.856,16.856,0,0,1,8.064-5.334A16.7,16.7,0,0,1,31.4,13.79a19.348,19.348,0,0,1,12.529,4.466A20.593,20.593,0,0,1,49.879,28.8,17.462,17.462,0,0,1,47.945,40.369Z" transform="translate(0)"/><path class="a08a19c3-472f-4a63-b506-4662576de5b7" d="M38.468,44.365a5.082,5.082,0,0,1-4.853-3.515L33.107,39.3H31.471l-.455,1.477a5.114,5.114,0,0,1-6.462,3.333,4.989,4.989,0,0,1-2.963-2.477,5.117,5.117,0,0,1-.374-3.879l4.8-15.217a5.165,5.165,0,0,1,4.862-3.57h2.548A5.146,5.146,0,0,1,38.288,22.5l5.031,15.149a5.123,5.123,0,0,1-3.252,6.467A5.175,5.175,0,0,1,38.468,44.365Zm.4-5.232v0Zm-10.6-5.356h7.947L33.13,24.494H31.2Zm4.77-9.565,0,.009Z" transform="translate(0)"/><g id="f71a92b5-abc0-4fcc-8d0c-f9087eed7c7a" data-name="OAUTH"><path class="e66cc4e0-314c-4d8a-8ccf-ef9402dcdcb4" d="M17.24,15.185l-.008-.01a2.247,2.247,0,0,1,3.62-2.656l.007.01a2.246,2.246,0,0,1-3.619,2.656Zm2.674-1.951-.007-.01a1.083,1.083,0,0,0-1.529-.277,1.062,1.062,0,0,0-.2,1.52l.008.01a1.081,1.081,0,0,0,1.524.281A1.064,1.064,0,0,0,19.914,13.234Z" transform="translate(0)"/><path class="e66cc4e0-314c-4d8a-8ccf-ef9402dcdcb4" d="M24.041,8.848l1.06-.34,2.972,3.455-1.179.379-.517-.616-1.531.491-.056.8-1.156.371Zm1.744,2.123-.8-.986L24.9,11.257Z" transform="translate(0)"/><path class="e66cc4e0-314c-4d8a-8ccf-ef9402dcdcb4" d="M29.982,9.888l.009-2.34,1.173,0-.009,2.317c0,.6.3.888.765.89s.769-.271.771-.854l.01-2.346,1.173,0-.009,2.311A1.743,1.743,0,0,1,31.9,11.8,1.722,1.722,0,0,1,29.982,9.888Z" transform="translate(0)"/><path class="e66cc4e0-314c-4d8a-8ccf-ef9402dcdcb4" d="M38.11,9.479l-1.2-.365.3-.968,3.5,1.067-.3.968-1.2-.365-.921,3.018-1.1-.337Z" transform="translate(0)"/><path class="e66cc4e0-314c-4d8a-8ccf-ef9402dcdcb4" d="M43.829,10.564l.962.64-.864,1.3,1.234.822.864-1.3.962.64-2.309,3.47-.962-.64.878-1.318-1.235-.822-.877,1.319-.962-.64Z" transform="translate(0)"/><path class="e66cc4e0-314c-4d8a-8ccf-ef9402dcdcb4" d="M47.226,48.5l.008.01A2.246,2.246,0,0,1,43.718,51.3l-.007-.009A2.246,2.246,0,0,1,47.226,48.5Zm-2.6,2.053.008.009a1.082,1.082,0,0,0,1.538.219,1.061,1.061,0,0,0,.137-1.527l-.007-.01a1.082,1.082,0,0,0-1.534-.222A1.064,1.064,0,0,0,44.628,50.549Z" transform="translate(0)"/><path class="e66cc4e0-314c-4d8a-8ccf-ef9402dcdcb4" d="M40.706,55.1l-1.044.386L36.54,52.165l1.162-.43.543.593,1.508-.558.021-.8,1.139-.422ZM38.87,53.056l.847.95.03-1.275Z" transform="translate(0)"/><path class="e66cc4e0-314c-4d8a-8ccf-ef9402dcdcb4" d="M34.729,54.307l.1,2.338L33.66,56.7l-.1-2.314c-.027-.6-.343-.873-.807-.853s-.755.308-.729.891l.1,2.344-1.171.051-.1-2.308a1.742,1.742,0,0,1,1.865-2.019A1.722,1.722,0,0,1,34.729,54.307Z" transform="translate(0)"/><path class="e66cc4e0-314c-4d8a-8ccf-ef9402dcdcb4" d="M26.586,55.072l1.208.326-.264.977L24,55.422l.263-.977,1.208.326.822-3.048,1.116.3Z" transform="translate(0)"/><path class="e66cc4e0-314c-4d8a-8ccf-ef9402dcdcb4" d="M20.88,54.222l-.991-.593.8-1.339-1.272-.762-.8,1.338-.991-.594L19.769,48.7l.991.594-.814,1.359,1.271.762.815-1.359.991.594Z" transform="translate(0)"/></g></svg>