<svg id="Layer_1" data-name="Layer 1" xmlns="http://www.w3.org/2000/svg" width="64" height="64" viewBox="0 0 64 64"><defs><style>.cls-1{fill:#fff;stroke:gray;stroke-linecap:round;stroke-linejoin:round;}.cls-2{fill:#006837;}</style></defs><rect class="cls-1" x="0.5" y="0.5" width="63" height="63"/><g id="Partner1"><circle class="cls-2" cx="47.73" cy="28.34" r="7.34"/><path class="cls-2" d="M55.06,48.16V40.24c0-2.52-2.63-4.57-5.87-4.57H46.26c-3.24,0-5.87,2-5.87,4.57v7.92a2.58,2.58,0,0,0,1.86,2.37A2,2,0,0,1,43,54.22l-2.57,2H55.06l-2.57-2a2,2,0,0,1,.71-3.69A2.58,2.58,0,0,0,55.06,48.16Z"/></g><g id="Partner1-2" data-name="Partner1"><circle class="cls-2" cx="13.73" cy="28.16" r="7.34"/><path class="cls-2" d="M21.06,48V40.06c0-2.52-2.63-4.56-5.87-4.56H12.26c-3.24,0-5.87,2-5.87,4.56V48a2.59,2.59,0,0,0,1.86,2.38A2,2,0,0,1,9,54L6.39,56H21.06l-2.57-2a2,2,0,0,1,.71-3.68A2.59,2.59,0,0,0,21.06,48Z"/></g><g id="Partner1-3" data-name="Partner1"><circle class="cls-2" cx="30.73" cy="15.16" r="7.34"/><path class="cls-2" d="M38.06,35V27.06c0-2.52-2.63-4.56-5.87-4.56H29.26c-3.24,0-5.87,2-5.87,4.56V35a2.59,2.59,0,0,0,1.86,2.38A2,2,0,0,1,26,41l-2.57,2H38.06l-2.57-2a2,2,0,0,1,.71-3.68A2.59,2.59,0,0,0,38.06,35Z"/></g></svg>