<svg id="b5d1430c-4db4-4f57-ac74-b8261a912cd9" data-name="Layer 1" xmlns="http://www.w3.org/2000/svg" width="64" height="64" viewBox="0 0 64 64"><defs><style>.bc67e574-7615-4995-b7f3-aa6c1c4dc425{fill:#fff;}.fe768f20-6be5-4b3b-aa6b-f6fbe8ab180d{fill:#666;}.efa4ab22-312e-405e-b7f6-71a8506bab18{fill:#4d4d4d;}</style></defs><rect class="bc67e574-7615-4995-b7f3-aa6c1c4dc425" x="1" y="1" width="62" height="62"/><path class="fe768f20-6be5-4b3b-aa6b-f6fbe8ab180d" d="M63.5,64H.5a.5.5,0,0,1-.5-.5V.5A.5.5,0,0,1,.5,0h63a.5.5,0,0,1,.5.5v63A.5.5,0,0,1,63.5,64ZM1,63H63V1H1Z"/><path class="efa4ab22-312e-405e-b7f6-71a8506bab18" d="M48.763,15.165a24.463,24.463,0,1,0,7.166,17.3A24.307,24.307,0,0,0,48.763,15.165ZM46.708,47.708a21.558,21.558,0,1,1-1.063-31.48l-3.938,3.938a16,16,0,1,0,5.762,12.3H44.562a13.1,13.1,0,1,1-4.92-10.232L35.673,26.2a7.546,7.546,0,1,0,3.336,6.264H36.1a4.635,4.635,0,1,1-2.551-4.143l-3.115,3.116,2.055,2.055L47.7,18.283a21.558,21.558,0,0,1-.993,29.425Z"/></svg>