<?xml version="1.0" encoding="utf-8"?>
<!-- Generator: Adobe Illustrator 19.1.0, SVG Export Plug-In . SVG Version: 6.00 Build 0)  -->
<svg version="1.1" id="Layer_1" xmlns="http://www.w3.org/2000/svg" xmlns:xlink="http://www.w3.org/1999/xlink" x="0px" y="0px"
	 viewBox="0 0 64 64" style="enable-background:new 0 0 64 64;" xml:space="preserve">
<style type="text/css">
	.st0{display:none;fill:#FFFFFF;stroke:#666666;stroke-linecap:round;stroke-linejoin:round;stroke-miterlimit:10;}
	.st1{display:none;fill:none;stroke:#000000;stroke-width:0.25;stroke-linejoin:round;stroke-miterlimit:10;}
	.st2{fill:#808080;}
</style>
<rect x="0.5" y="0.5" class="st0" width="63" height="63"/>
<g>
	
		<rect x="4.1" y="27.8" transform="matrix(0.7071 0.7071 -0.7071 0.7071 32.0312 -13.3285)" class="st1" width="55.9" height="8.3"/>
	
		<rect x="5.4" y="29.1" transform="matrix(0.7071 0.7071 -0.7071 0.7071 31.9972 -13.3131)" class="st2" width="53.3" height="5.7"/>
</g>
<g>
	<path class="st2" d="M41.3,47.1c-3.9,2-8.3,3-12.8,2.1c-8.8-1.8-16-9-20.8-17.1c0.6-1.1,1.4-2.4,2.1-3.4c0.7-1,1.5-2,2.3-3
		c0.6-0.7,1.3-1.5,1.9-2.1c0.6-0.6,1.2-1.3,1.9-1.9l-3.5-3.5c-0.7,0.6-1.3,1.3-2,1.9c-0.7,0.8-1.4,1.6-2.1,2.4
		c-0.9,1.1-1.7,2.2-2.5,3.3C3.9,28.3,2,32.2,2,32.2c5.4,10.2,14.4,19.7,25.5,21.9c6.2,1.2,12.2-0.3,17.5-3.3L41.3,47.1z"/>
	<path class="st2" d="M32.5,9.3c-4.9,0-9.4,1.4-13.4,3.8l3.7,3.7c2.9-1.5,6.2-2.4,9.7-2.4c10.5,0.2,19,9.1,23.9,17.4
		c-0.6,1.1-1.4,2.4-2.1,3.4c-0.8,1.1-1.6,2.2-2.5,3.2c-0.6,0.7-1.3,1.5-1.9,2.1c-0.5,0.5-1.1,1.1-1.6,1.6l3.5,3.5
		c0.6-0.6,1.2-1.1,1.7-1.7c0.7-0.8,1.4-1.6,2.1-2.4c1-1.1,1.9-2.3,2.7-3.5c1.8-2.5,3.7-6.4,3.7-6.4C56.6,21.4,45.7,9.5,32.5,9.3z"/>
</g>
<g>
	<path class="st2" d="M41.4,35.4c0.4-1.1,0.6-2.3,0.6-3.5c0-5.5-4.5-10-10.1-10c-1.2,0-2.4,0.2-3.5,0.6L41.4,35.4z"/>
	<path class="st2" d="M22.6,28.4c-0.4,1.1-0.6,2.3-0.6,3.5c0,5.5,4.5,10,10,10c1.2,0,2.4-0.2,3.5-0.6L22.6,28.4z"/>
</g>
</svg>
