<?xml version="1.0" encoding="utf-8"?>
<!-- Generator: Adobe Illustrator 19.1.0, SVG Export Plug-In . SVG Version: 6.00 Build 0)  -->
<svg version="1.1" id="Layer_1" xmlns="http://www.w3.org/2000/svg" xmlns:xlink="http://www.w3.org/1999/xlink" x="0px" y="0px"
	 viewBox="0 0 64 64" style="enable-background:new 0 0 64 64;" xml:space="preserve">
<style type="text/css">
	.st0{display:none;fill:#FFFFFF;stroke:#666666;stroke-linecap:round;stroke-linejoin:round;stroke-miterlimit:10;}
	.st1{fill:#808080;}
</style>
<rect x="0.5" y="0.5" class="st0" width="63" height="63"/>
<g id="eye">
	<path class="st1" d="M32.5,9.3C45.7,9.5,56.6,21.4,62,31.7c0,0-1.9,3.9-3.7,6.4c-0.9,1.2-1.8,2.4-2.7,3.5c-0.7,0.8-1.4,1.6-2.1,2.4
		c-6.6,6.9-16,12-25.9,10C16.4,51.9,7.4,42.4,2,32.2c0,0,1.9-3.9,3.7-6.4c0.8-1.1,1.7-2.2,2.5-3.3c0.7-0.8,1.4-1.6,2.1-2.4
		C16.2,14,23.6,9.3,32.5,9.3z M32.4,14.3c-7.4,0-13.5,4.1-18.4,9.2c-0.7,0.7-1.3,1.4-1.9,2.1c-0.8,1-1.6,2-2.3,3
		c-0.7,1-1.5,2.3-2.1,3.4c4.8,8,12,15.3,20.8,17.1c8.2,1.7,15.9-2.9,21.3-8.6c0.7-0.7,1.3-1.4,1.9-2.1c0.9-1,1.7-2.1,2.5-3.2
		c0.7-1,1.5-2.3,2.1-3.4C51.4,23.5,42.9,14.5,32.4,14.3z"/>
	<path class="st1" d="M32,21.9c5.5,0,10.1,4.5,10.1,10c0,5.5-4.5,10-10.1,10c-5.5,0-10-4.5-10-10C22,26.4,26.5,21.9,32,21.9L32,21.9
		z"/>
</g>
</svg>
