<svg id="Layer_1" data-name="Layer 1" xmlns="http://www.w3.org/2000/svg" viewBox="0 0 64 64"><defs><style>.cls-1{fill:#fff;}.cls-2{fill:#989898;}.cls-3{fill:#046937;}.cls-4{fill:none;stroke:#006838;stroke-miterlimit:10;stroke-width:0.25px;}.cls-5{fill:#006838;fill-rule:evenodd;}</style></defs><title>send_to_singlepartner</title><rect class="cls-1" x="0.25" y="0.25" width="63.5" height="63.5"/><path class="cls-2" d="M63.5.5v63H.5V.5h63M64,0H0V64H64V0Z"/><circle class="cls-3" cx="43.59" cy="16.78" r="10.66"/><path class="cls-3" d="M43.59,6.25A10.53,10.53,0,1,1,33.06,16.78,10.54,10.54,0,0,1,43.59,6.25m0-.25A10.78,10.78,0,1,0,54.37,16.78,10.78,10.78,0,0,0,43.59,6Z"/><path class="cls-3" d="M33.18,57.63l3.49-2.72A3.26,3.26,0,0,0,38,51.81a3.34,3.34,0,0,0-2.43-2.53,3.71,3.71,0,0,1-2.65-3.38V34.27c0-3.63,3.81-6.58,8.5-6.58h4.31c4.69,0,8.5,2.95,8.5,6.58V45.9a3.71,3.71,0,0,1-2.66,3.38,3.37,3.37,0,0,0-2.43,2.53,3.27,3.27,0,0,0,1.36,3.1L54,57.63Z"/><path class="cls-3" d="M45.75,27.81c4.62,0,8.37,2.9,8.37,6.46V45.9a3.58,3.58,0,0,1-2.57,3.26A3.47,3.47,0,0,0,49,51.79,3.4,3.4,0,0,0,50.44,55l3.21,2.49H33.54L36.75,55a3.42,3.42,0,0,0,1.4-3.22,3.47,3.47,0,0,0-2.51-2.63,3.59,3.59,0,0,1-2.58-3.26V34.27c0-3.56,3.76-6.46,8.38-6.46h4.31m0-.25H41.44c-4.77,0-8.63,3-8.63,6.71V45.9a3.83,3.83,0,0,0,2.74,3.5c2.86,1,3.08,3.83,1,5.41l-3.78,2.94H54.37L50.6,54.81c-2-1.58-1.82-4.44,1-5.41a3.81,3.81,0,0,0,2.74-3.5V34.27c0-3.7-3.86-6.71-8.62-6.71Z"/><g id="Arrow"><polyline class="cls-4" points="20.23 30.25 5 30.25 5 40.75 20.23 40.75 20.23 46 31 35.5 20.23 25 20.23 30.25"/><polyline class="cls-5" points="20.23 30.25 5 30.25 5 40.75 20.23 40.75 20.23 46 31 35.5 20.23 25 20.23 30.25"/></g></svg>