<svg id="Layer_1" data-name="Layer 1" xmlns="http://www.w3.org/2000/svg" viewBox="0 0 64 64"><defs><style>.cls-1{fill:#fff;}.cls-2{fill:#666;}.cls-3{fill:#fbb03b;}.cls-3,.cls-4{stroke:#666;stroke-linecap:round;}.cls-3,.cls-4,.cls-5{stroke-linejoin:round;}.cls-4{fill:#f7931e;}.cls-5{fill:none;stroke:#42210b;stroke-width:0.25px;}.cls-6{fill:#603813;fill-rule:evenodd;}</style></defs><title>send_to_folder</title><rect class="cls-1" x="0.5" y="0.5" width="63" height="63"/><path class="cls-2" d="M63,1V63H1V1H63m1-1H0V64H64V0Z"/><rect class="cls-3" x="10.5" y="23.5" width="43" height="28"/><polyline class="cls-4" points="35.5 23.5 30.5 19.5 16.5 19.5 10.5 23.5"/><g id="Arrow"><polyline class="cls-5" points="23.23 31.25 8 31.25 8 41.75 23.23 41.75 23.23 47 34 36.5 23.23 26 23.23 31.25"/><polyline class="cls-6" points="23.23 31.25 8 31.25 8 41.75 23.23 41.75 23.23 47 34 36.5 23.23 26 23.23 31.25"/></g></svg>