<svg xmlns="http://www.w3.org/2000/svg" width="16" height="16" viewBox="0 0 16 16">
  <defs>
    <style>
      .a {
        fill: #fff;
      }

      .b {
        fill: #999;
      }

      .c {
        fill: #006837;
      }
    </style>
  </defs>
  <title>usermanagement</title>
  <g>
    <rect class="a" x="0.125" y="0.125" width="15.75" height="15.75"/>
    <path class="b" d="M15.75.25v15.5H.25V.25h15.5M16,0H0V16H16V0Z"/>
  </g>
  <!-- First user (left) -->
  <g>
    <circle class="c" cx="5" cy="4.5" r="1.75"/>
    <path class="c" d="M5,2.875A1.625,1.625,0,1,1,3.375,4.5,1.627,1.627,0,0,1,5,2.875M5,2.75A1.75,1.75,0,1,0,6.75,4.5,1.75,1.75,0,0,0,5,2.75Z"/>
  </g>
  <g>
    <path class="c" d="M3.4,13.5l.4-.3a.65.65,0,0,0,.27-.62.67.67,0,0,0-.48-.51.58.58,0,0,1-.42-.53V9.556A1.3,1.3,0,0,1,4.5,8.25H5.5A1.3,1.3,0,0,1,6.9,9.556v1.99a.58.58,0,0,1-.42.53.67.67,0,0,0-.48.51.65.65,0,0,0,.27.62l.4.3Z"/>
    <path class="c" d="M5.5,8.375c.74,0,1.35.45,1.35,1v1.99a.49.49,0,0,1-.36.44.76.76,0,0,0-.54.59.75.75,0,0,0,.31.71l.23.18H3.5l.23-.18a.75.75,0,0,0,.31-.71.76.76,0,0,0-.54-.59.49.49,0,0,1-.36-.44V9.376c0-.55.61-1,1.35-1H5.5M5.5,8.125H4.5A1.43,1.43,0,0,0,3.05,9.556v1.99a.68.68,0,0,0,.49.62.53.53,0,0,1,.18.96L3,14H7L6.28,13.126a.53.53,0,0,1,.18-.96.68.68,0,0,0,.49-.62V9.556A1.43,1.43,0,0,0,5.5,8.125Z"/>
  </g>
  <!-- Second user (right) -->
  <g>
    <circle class="c" cx="11" cy="4.5" r="1.75"/>
    <path class="c" d="M11,2.875A1.625,1.625,0,1,1,9.375,4.5,1.627,1.627,0,0,1,11,2.875M11,2.75A1.75,1.75,0,1,0,12.75,4.5,1.75,1.75,0,0,0,11,2.75Z"/>
  </g>
  <g>
    <path class="c" d="M9.4,13.5l.4-.3a.65.65,0,0,0,.27-.62.67.67,0,0,0-.48-.51.58.58,0,0,1-.42-.53V9.556A1.3,1.3,0,0,1,10.5,8.25h1A1.3,1.3,0,0,1,12.9,9.556v1.99a.58.58,0,0,1-.42.53.67.67,0,0,0-.48.51.65.65,0,0,0,.27.62l.4.3Z"/>
    <path class="c" d="M11.5,8.375c.74,0,1.35.45,1.35,1v1.99a.49.49,0,0,1-.36.44.76.76,0,0,0-.54.59.75.75,0,0,0,.31.71l.23.18H9.5l.23-.18a.75.75,0,0,0,.31-.71.76.76,0,0,0-.54-.59.49.49,0,0,1-.36-.44V9.376c0-.55.61-1,1.35-1h1M11.5,8.125h-1A1.43,1.43,0,0,0,9.05,9.556v1.99a.68.68,0,0,0,.49.62.53.53,0,0,1,.18.96L9,14h4l-.72-.874a.53.53,0,0,1,.18-.96.68.68,0,0,0,.49-.62V9.556A1.43,1.43,0,0,0,11.5,8.125Z"/>
  </g>
</svg>
