<?xml version="1.0" encoding="utf-8"?>
<!-- Generator: Adobe Illustrator 19.1.0, SVG Export Plug-In . SVG Version: 6.00 Build 0)  -->
<svg version="1.1" id="Layer_1" xmlns="http://www.w3.org/2000/svg" xmlns:xlink="http://www.w3.org/1999/xlink" x="0px" y="0px"
	 viewBox="0 0 64 64" style="enable-background:new 0 0 64 64;" xml:space="preserve">
<style type="text/css">
	.st0{fill:#FFFFFF;stroke:#666666;stroke-linecap:round;stroke-linejoin:round;stroke-miterlimit:10;}
	.st1{fill:#C1272D;stroke:#640A0C;stroke-width:0.5;stroke-miterlimit:10;}
</style>
<polygon class="st0" points="63.6,63.7 0.6,63.4 0.6,0.6 63.6,0.6 "/>
<g>
	<path class="st1" d="M41.1,7.6c0.5,0,1,0.2,1.4,0.6l5.8,5.6c0.4,0.4,0.6,0.8,0.6,1.4c0,0.5-0.1,1-0.5,1.4l-3.1,3.2l-8.6-8.3
		l3.1-3.2C40.1,7.8,40.6,7.6,41.1,7.6L41.1,7.6z M13.9,37.5c1.1-0.3,2.2,0.3,2.5,1.3c0.3,1.1-0.3,2.2-1.3,2.5
		C12,42.2,10,44,9.3,45.7c-0.2,0.5-0.2,0.9-0.2,1.2c0.1,0.3,0.2,0.5,0.5,0.7c1.1,0.8,3.5,1,7.6,0c2.4-0.6,4.9-1.4,7.2-2.1
		c2.3-0.7,4.3-1.3,5.7-1.6c2.6-0.5,5.2-0.8,7.3-0.7c2.7,0.1,4.8,1,5.5,3.1c0.5,1.4,0.3,2.5,0.2,3.6c0,0.4-0.1,0.7-0.1,1
		c0,0,0.4,0,2.4-0.2c2.3-0.2,4.7-1.1,7.1-2c1.2-0.5,2.4-0.9,3.8-1.3c1.1-0.3,2.2,0.3,2.5,1.3c0.3,1.1-0.3,2.2-1.3,2.5
		c-1.1,0.3-2.3,0.8-3.5,1.3c-2.6,1-5.3,2-8.2,2.3c-5.3,0.4-6.5-1.1-6.7-3.5c0-0.6,0-1.1,0.1-1.7c0.1-0.7,0.1-1.4,0-1.9
		c-0.1-0.2-0.8-0.4-1.9-0.4c-1.7-0.1-4,0.2-6.4,0.6c-1.2,0.2-3.1,0.8-5.3,1.5c-2.3,0.7-4.9,1.5-7.4,2.1c-5.3,1.3-8.8,0.7-10.8-0.7
		c-1.1-0.8-1.8-1.9-2-3.1c-0.2-1.1-0.1-2.3,0.4-3.5C6.7,41.6,9.6,38.8,13.9,37.5L13.9,37.5z M33.9,14.2l8.6,8.3L30.8,34.8l-10.5,2.8
		c-0.4,0.1-0.5-0.1-0.5-0.4l2.4-10.6L33.9,14.2L33.9,14.2z"/>
</g>
</svg>
