<?xml version="1.0" encoding="utf-8"?>
<!-- Generator: Adobe Illustrator 19.1.0, SVG Export Plug-In . SVG Version: 6.00 Build 0)  -->
<svg version="1.1" id="Layer_1" xmlns="http://www.w3.org/2000/svg" xmlns:xlink="http://www.w3.org/1999/xlink" x="0px" y="0px"
	 viewBox="0 0 64 64" style="enable-background:new 0 0 64 64;" xml:space="preserve">
<style type="text/css">
	.st0{fill:#FFFFFF;stroke:#666666;stroke-linecap:round;stroke-linejoin:round;stroke-miterlimit:10;}
	.st1{fill:#F7931E;stroke:#916512;stroke-width:0.5;stroke-miterlimit:10;}
</style>
<polygon class="st0" points="63.6,63.7 0.6,63.4 0.6,0.6 63.6,0.6 "/>
<g>
	<path class="st1" d="M40.9,9.1c0.5,0,1,0.2,1.3,0.5l5.6,5.4c0.4,0.3,0.5,0.8,0.6,1.3c0,0.5-0.1,1-0.5,1.3l-3,3.1l-8.3-8l3-3.1
		C39.9,9.3,40.4,9.1,40.9,9.1L40.9,9.1z M14.6,38c1-0.3,2.1,0.3,2.4,1.3c0.3,1-0.3,2.1-1.3,2.4c-3,0.9-4.9,2.7-5.6,4.3
		c-0.2,0.4-0.2,0.8-0.2,1.2c0.1,0.2,0.2,0.5,0.5,0.7c1.1,0.8,3.4,1,7.3,0c2.3-0.6,4.8-1.3,7-2c2.2-0.7,4.2-1.3,5.6-1.5
		c2.5-0.5,5-0.8,7-0.7c2.6,0.1,4.6,1,5.3,3c0.4,1.3,0.3,2.5,0.2,3.5c0,0.4-0.1,0.7-0.1,0.9c0,0,0.4,0,2.3-0.2
		c2.2-0.2,4.6-1.1,6.9-1.9c1.2-0.4,2.3-0.9,3.7-1.3c1-0.3,2.1,0.3,2.4,1.3c0.3,1-0.3,2.1-1.3,2.4c-1,0.3-2.2,0.8-3.4,1.2
		c-2.6,1-5.1,2-7.9,2.2c-5.1,0.4-6.3-1-6.5-3.4c0-0.5,0-1.1,0.1-1.6c0.1-0.6,0.1-1.3,0-1.9c-0.1-0.2-0.8-0.3-1.9-0.4
		c-1.7-0.1-3.9,0.2-6.2,0.6c-1.1,0.2-3,0.8-5.1,1.4c-2.2,0.7-4.7,1.5-7.2,2.1c-5.1,1.2-8.6,0.7-10.5-0.7c-1.1-0.8-1.7-1.8-2-3
		c-0.2-1.1-0.1-2.2,0.4-3.4C7.6,42,10.5,39.3,14.6,38L14.6,38z M34,15.5l8.3,8l-11.3,12l-10.1,2.7c-0.4,0.1-0.5-0.1-0.4-0.4
		l2.3-10.3L34,15.5L34,15.5z"/>
</g>
</svg>
