<svg xmlns="http://www.w3.org/2000/svg" width="64" height="64" viewBox="0 0 64 64">
  <defs>
    <style>
      .a {
        fill: #fff;
        stroke: #666;
        stroke-linecap: round;
        stroke-linejoin: round;
      }

      .b {
        fill: #006837;
      }
    </style>
  </defs>
  <title>key</title>
  <rect class="a" x="0.5" y="0.5" width="63" height="63"/>
  <path class="b" d="M46.078,16.82a12.777,12.777,0,0,0-21.176,13L10.523,44.24a1.161,1.161,0,0,0-.34.822l.009,6.575a1.161,1.161,0,0,0,1.163,1.16l6.575-.008a1.159,1.159,0,0,0,.822-.342L20.393,50.8a1.164,1.164,0,0,0,.331-.957l-.206-1.765,2.446-.234A1.162,1.162,0,0,0,24.011,46.8l.227-2.447,1.766.2a1.147,1.147,0,0,0,.907-.287A1.169,1.169,0,0,0,27.3,43.4l0-2.164,2.125,0a1.161,1.161,0,0,0,.821-.341l2.977-2.945A12.589,12.589,0,0,0,46.1,34.9,12.8,12.8,0,0,0,46.078,16.82ZM42.8,25.043a3.486,3.486,0,1,1-.006-4.93A3.489,3.489,0,0,1,42.8,25.043Z" transform="translate(0)"/>
</svg>
