<svg id="a97ee8d3-5f0d-4313-afe0-103743760145" data-name="Layer 1" xmlns="http://www.w3.org/2000/svg" width="64" height="64" viewBox="0 0 64 64"><defs><style>.b4fb90a6-f502-4a9a-bff9-ca66786cbe0a{fill:#fff;}.f2430b58-a0a1-4811-ac44-e393e40a6329{fill:#666;}.a7ef8fc4-839f-4057-858a-8922af889ca8{fill:#999;}</style></defs><rect class="b4fb90a6-f502-4a9a-bff9-ca66786cbe0a" x="0.5" y="0.5" width="63" height="63"/><path class="f2430b58-a0a1-4811-ac44-e393e40a6329" d="M63,1V63H1V1H63m1-1H0V64H64V0Z"/><path class="a7ef8fc4-839f-4057-858a-8922af889ca8" d="M52.786,28.774h-3.4a17.56,17.56,0,0,0-1.631-4.317L50.38,21.83a2.213,2.213,0,0,0,0-3.122l-3.262-3.262h.023a2.216,2.216,0,0,0-3.13,0L41.6,17.83A17.4,17.4,0,0,0,37.37,15.9v-3.69A2.214,2.214,0,0,0,35.156,10H30.514A2.214,2.214,0,0,0,28.3,12.214v3.395a17.558,17.558,0,0,0-4.347,1.631l-2.634-2.628a2.215,2.215,0,0,0-3.122,0l-3.262,3.262a2.215,2.215,0,0,0,0,3.122L17.348,23.4a17.518,17.518,0,0,0-1.926,4.228h-3.69a2.215,2.215,0,0,0-2.214,2.214v4.613a2.215,2.215,0,0,0,2.214,2.214h3.4a17.4,17.4,0,0,0,1.631,4.346l-2.627,2.627a2.215,2.215,0,0,0,0,3.122L17.4,50.028a2.215,2.215,0,0,0,3.122,0l2.413-2.406a17.677,17.677,0,0,0,4.221,1.926v3.69a2.214,2.214,0,0,0,2.214,2.214H34a2.214,2.214,0,0,0,2.214-2.214v-3.4a17.709,17.709,0,0,0,4.355-1.631L43.2,50.832a2.212,2.212,0,0,0,3.121,0l3.262-3.261a2.214,2.214,0,0,0,0-3.13l-2.406-2.405A17.434,17.434,0,0,0,49.1,37.814h3.69A2.213,2.213,0,0,0,55,35.6V30.988A2.214,2.214,0,0,0,52.786,28.774ZM32.248,41.8a9.07,9.07,0,0,1,.007-18.14h.008a9.07,9.07,0,0,1-.015,18.14Z"/></svg>