<svg id="e21cc47d-7d88-4242-a9f0-d9161a11193b" data-name="Layer 1" xmlns="http://www.w3.org/2000/svg" width="64" height="64" viewBox="0 0 64 64"><defs><style>.f6991af3-755b-4a1f-816e-aec260b30a95{fill:#fff;stroke-linecap:round;stroke-linejoin:round;}.a86f372c-0d1b-4206-afbd-124c26a8aeac,.b62f17bc-80b5-426a-9e97-bbc724fd8175,.f6991af3-755b-4a1f-816e-aec260b30a95,.ffc24ae4-d696-447b-ba73-8944d2ff0be5{stroke:#666;}.a487a07b-ab4f-453d-8351-38a664203731{fill:#ccc;}.bddf579f-84d9-4730-b853-f6f7d984aae1{fill:#7d7d7d;}.a9502cd5-287c-4732-be40-fc0e55f17c96{fill:#585858;}.b62f17bc-80b5-426a-9e97-bbc724fd8175{fill:none;}.a86f372c-0d1b-4206-afbd-124c26a8aeac,.b62f17bc-80b5-426a-9e97-bbc724fd8175,.ffc24ae4-d696-447b-ba73-8944d2ff0be5{stroke-miterlimit:10;stroke-width:0.25px;}.ffc24ae4-d696-447b-ba73-8944d2ff0be5{fill:gray;}.a86f372c-0d1b-4206-afbd-124c26a8aeac{fill:#0071bc;}</style></defs><rect class="f6991af3-755b-4a1f-816e-aec260b30a95" x="0.5" y="0.5" width="63" height="63"/><polygon class="a487a07b-ab4f-453d-8351-38a664203731" points="43.726 53 30.504 53 30.504 10.226 43.726 10.248 43.726 53"/><path class="bddf579f-84d9-4730-b853-f6f7d984aae1" d="M22.647,14.133H22.9a.117.117,0,0,0,.061-.015c.017-.009.026-.02.026-.034s-.009-.025-.026-.035a.117.117,0,0,0-.061-.014h-.172a.116.116,0,0,0-.06.014.041.041,0,0,0-.025.035Zm0,.149a.04.04,0,0,0,.025.034.116.116,0,0,0,.06.015h.316c.018,0,.028.008.028.025v.049c0,.017-.01.025-.028.025h-.316a.357.357,0,0,1-.181-.044.123.123,0,0,1-.076-.1v-.2a.124.124,0,0,1,.076-.105.357.357,0,0,1,.181-.043H22.9a.36.36,0,0,1,.182.043.125.125,0,0,1,.076.105.118.118,0,0,1-.067.1.336.336,0,0,1-.162.048h-.2a.116.116,0,0,0-.06.015A.04.04,0,0,0,22.647,14.282Z" transform="translate(0)"/><path class="bddf579f-84d9-4730-b853-f6f7d984aae1" d="M23.726,14.117h.3c.02,0,.03.008.03.025v.052c0,.017-.01.025-.03.025h-.3c-.02,0-.03-.008-.03-.025v-.052C23.7,14.125,23.706,14.117,23.726,14.117Z" transform="translate(0)"/><path class="bddf579f-84d9-4730-b853-f6f7d984aae1" d="M24.793,14.084v.2a.04.04,0,0,0,.025.034.117.117,0,0,0,.061.015h.315c.019,0,.028.008.028.025v.049c0,.017-.009.025-.028.025h-.315a.358.358,0,0,1-.182-.044.123.123,0,0,1-.076-.1v-.2a.124.124,0,0,1,.076-.105.358.358,0,0,1,.182-.043h.315c.019,0,.028.008.028.024v.049c0,.017-.009.026-.028.026h-.315a.117.117,0,0,0-.061.014A.041.041,0,0,0,24.793,14.084Z" transform="translate(0)"/><path class="bddf579f-84d9-4730-b853-f6f7d984aae1" d="M26.453,14.084v.2a.123.123,0,0,1-.076.1.357.357,0,0,1-.181.044H26a.334.334,0,0,1-.164-.049.119.119,0,0,1-.066-.1v-.2a.124.124,0,0,1,.076-.105.358.358,0,0,1,.182-.043H26.2a.357.357,0,0,1,.181.043A.124.124,0,0,1,26.453,14.084Zm-.172.2v-.2a.041.041,0,0,0-.025-.035.116.116,0,0,0-.06-.014h-.172a.115.115,0,0,0-.061.014.041.041,0,0,0-.025.035v.2a.04.04,0,0,0,.025.034.115.115,0,0,0,.061.015H26.2a.116.116,0,0,0,.06-.015A.04.04,0,0,0,26.281,14.282Z" transform="translate(0)"/><path class="bddf579f-84d9-4730-b853-f6f7d984aae1" d="M27.054,13.936h.372a.281.281,0,0,1,.079.009.481.481,0,0,1,.064.028.373.373,0,0,1,.172-.037h.086a.357.357,0,0,1,.181.043.125.125,0,0,1,.077.105v.321c0,.017-.01.025-.029.025h-.115c-.019,0-.028-.008-.028-.025v-.321c0-.014-.009-.025-.026-.035a.116.116,0,0,0-.06-.014h-.086a.111.111,0,0,0-.06.014.041.041,0,0,0-.026.034h0v.271h0v.049c0,.017-.01.025-.029.025h-.114c-.019,0-.028-.008-.028-.025v-.321h0a.045.045,0,0,0-.026-.034.117.117,0,0,0-.061-.014h-.085a.117.117,0,0,0-.061.014.041.041,0,0,0-.026.034h0v.271h0v.049c0,.017-.009.025-.028.025h-.114c-.02,0-.029-.008-.029-.025v-.469Z" transform="translate(0)"/><path class="bddf579f-84d9-4730-b853-f6f7d984aae1" d="M28.628,13.936H29a.281.281,0,0,1,.079.009.481.481,0,0,1,.064.028.373.373,0,0,1,.172-.037H29.4a.363.363,0,0,1,.182.043.124.124,0,0,1,.075.105v.321c0,.017-.009.025-.028.025h-.115c-.019,0-.029-.008-.029-.025v-.321a.041.041,0,0,0-.025-.035.116.116,0,0,0-.06-.014h-.086a.117.117,0,0,0-.061.014.041.041,0,0,0-.025.034h0v.271h0v.049c0,.017-.01.025-.028.025h-.115c-.019,0-.029-.008-.029-.025v-.321h0a.04.04,0,0,0-.025-.034.116.116,0,0,0-.06-.014h-.087a.116.116,0,0,0-.06.014.04.04,0,0,0-.025.034h0v.271h0v.049c0,.017-.01.025-.029.025h-.114c-.02,0-.029-.008-.029-.025v-.469Z" transform="translate(0)"/><path class="bddf579f-84d9-4730-b853-f6f7d984aae1" d="M30.373,14.133h.258a.117.117,0,0,0,.061-.015.038.038,0,0,0,.025-.034.041.041,0,0,0-.025-.035.117.117,0,0,0-.061-.014H30.46a.115.115,0,0,0-.061.014c-.017.01-.026.021-.026.035Zm0,.149a.041.041,0,0,0,.026.034.115.115,0,0,0,.061.015h.314c.019,0,.029.008.029.025v.049c0,.017-.01.025-.029.025H30.46a.365.365,0,0,1-.183-.044.124.124,0,0,1-.075-.1v-.2a.124.124,0,0,1,.075-.105.364.364,0,0,1,.183-.043h.171a.358.358,0,0,1,.182.043.124.124,0,0,1,.076.105.118.118,0,0,1-.067.1.336.336,0,0,1-.162.048h-.2a.115.115,0,0,0-.061.015A.041.041,0,0,0,30.373,14.282Z" transform="translate(0)"/><path class="bddf579f-84d9-4730-b853-f6f7d984aae1" d="M32.005,14.084a.043.043,0,0,0-.025-.035.117.117,0,0,0-.061-.014h-.238a.038.038,0,0,0-.02.031v.271h0v.049c0,.017-.009.025-.028.025h-.115c-.019,0-.029-.008-.029-.025v-.321a.125.125,0,0,1,.076-.105.363.363,0,0,1,.182-.043h.172a.354.354,0,0,1,.181.043.127.127,0,0,1,.077.1h0v.025c0,.016-.01.024-.029.024h-.115c-.018,0-.028-.008-.028-.024Z" transform="translate(0)"/><path class="bddf579f-84d9-4730-b853-f6f7d984aae1" d="M32.878,14.084v.2a.04.04,0,0,0,.025.034.117.117,0,0,0,.061.015h.315c.019,0,.028.008.028.025v.049c0,.017-.009.025-.028.025h-.315a.358.358,0,0,1-.182-.044.123.123,0,0,1-.076-.1v-.2a.124.124,0,0,1,.076-.105.358.358,0,0,1,.182-.043h.315c.019,0,.028.008.028.024v.049c0,.017-.009.026-.028.026h-.315a.117.117,0,0,0-.061.014A.041.041,0,0,0,32.878,14.084Z" transform="translate(0)"/><path class="bddf579f-84d9-4730-b853-f6f7d984aae1" d="M34.094,14.133h.258a.116.116,0,0,0,.06-.015c.017-.009.026-.02.026-.034s-.009-.025-.026-.035a.116.116,0,0,0-.06-.014H34.18a.117.117,0,0,0-.061.014.041.041,0,0,0-.025.035Zm0,.149a.04.04,0,0,0,.025.034.117.117,0,0,0,.061.015h.315c.019,0,.028.008.028.025v.049c0,.017-.009.025-.028.025H34.18A.358.358,0,0,1,34,14.386a.123.123,0,0,1-.076-.1v-.2A.124.124,0,0,1,34,13.979a.358.358,0,0,1,.182-.043h.172a.357.357,0,0,1,.181.043.124.124,0,0,1,.076.105.118.118,0,0,1-.067.1.336.336,0,0,1-.162.048h-.2a.117.117,0,0,0-.061.015A.04.04,0,0,0,34.094,14.282Z" transform="translate(0)"/><path class="bddf579f-84d9-4730-b853-f6f7d984aae1" d="M36.513,14.479a.046.046,0,0,0-.026-.035.127.127,0,0,0-.06-.014h-.2a.286.286,0,0,1-.168-.044.128.128,0,0,1-.061-.1v-.2a.124.124,0,0,1,.076-.105.358.358,0,0,1,.182-.043h.172a.357.357,0,0,1,.181.043.124.124,0,0,1,.076.105v.395a.121.121,0,0,1-.076.1.357.357,0,0,1-.181.044h-.258c-.019,0-.028-.008-.028-.024v-.05c0-.016.009-.024.028-.024h.258a.116.116,0,0,0,.06-.015.041.041,0,0,0,.026-.035Zm-.344-.2a.04.04,0,0,0,.025.034.117.117,0,0,0,.061.015h.258v-.049h0v-.2c0-.014-.009-.025-.026-.035a.116.116,0,0,0-.06-.014h-.172a.117.117,0,0,0-.061.014.041.041,0,0,0-.025.035Z" transform="translate(0)"/><path class="bddf579f-84d9-4730-b853-f6f7d984aae1" d="M37.213,13.936h.373a.273.273,0,0,1,.078.009.49.49,0,0,1,.065.028.371.371,0,0,1,.171-.037h.086a.36.36,0,0,1,.182.043.124.124,0,0,1,.076.105v.321c0,.017-.01.025-.029.025H38.1c-.019,0-.029-.008-.029-.025v-.321a.041.041,0,0,0-.025-.035.12.12,0,0,0-.061-.014H37.9a.116.116,0,0,0-.06.014.043.043,0,0,0-.026.034h0v.271h0v.049c0,.017-.009.025-.028.025h-.115c-.019,0-.028-.008-.028-.025v-.321h0a.041.041,0,0,0-.026-.034.116.116,0,0,0-.06-.014h-.086a.113.113,0,0,0-.06.014.039.039,0,0,0-.026.034h0v.271h0v.049c0,.017-.009.025-.028.025h-.115c-.019,0-.029-.008-.029-.025v-.469Z" transform="translate(0)"/><path class="bddf579f-84d9-4730-b853-f6f7d984aae1" d="M40.591,14.084c0-.014-.009-.025-.026-.035a.116.116,0,0,0-.06-.014h-.258v.37c0,.017-.009.025-.028.025H40.1c-.019,0-.029-.008-.029-.025v-.643c0-.016.01-.024.029-.024h.115c.019,0,.028.008.028.024v.124a.04.04,0,0,0,.025.035.117.117,0,0,0,.061.015h.172a.357.357,0,0,1,.181.043.124.124,0,0,1,.076.105v.321c0,.017-.009.025-.028.025h-.115c-.019,0-.028-.008-.028-.025v-.049h0Z" transform="translate(0)"/><path class="a9502cd5-287c-4732-be40-fc0e55f17c96" d="M20.157,12.22a.6.6,0,0,1,0,1.2h-.586v-.6A.594.594,0,0,1,20.157,12.22Z" transform="translate(0)"/><path class="bddf579f-84d9-4730-b853-f6f7d984aae1" d="M22.434,12.238h.93a.657.657,0,0,1,.2.024,1.194,1.194,0,0,1,.161.066.963.963,0,0,1,.428-.09h.215a.937.937,0,0,1,.454.1c.126.069.19.152.19.249v.763c0,.04-.024.059-.072.059H24.65c-.048,0-.072-.019-.072-.059v-.763c0-.033-.021-.06-.063-.083a.312.312,0,0,0-.151-.035h-.215a.319.319,0,0,0-.15.034c-.042.023-.064.05-.064.083h0v.644h0v.117c0,.04-.024.059-.071.059h-.287c-.047,0-.07-.019-.07-.059v-.763h0a.1.1,0,0,0-.064-.083.324.324,0,0,0-.151-.034h-.215a.324.324,0,0,0-.151.034c-.042.023-.063.05-.063.083h0v.644h0v.117c0,.04-.024.059-.071.059h-.286c-.048,0-.072-.019-.072-.059V12.238Z" transform="translate(0)"/><path class="bddf579f-84d9-4730-b853-f6f7d984aae1" d="M25.864,12.708h.644a.321.321,0,0,0,.151-.034c.043-.023.064-.051.064-.083s-.021-.06-.064-.083a.309.309,0,0,0-.151-.035h-.429a.313.313,0,0,0-.152.035c-.042.023-.063.05-.063.083Zm0,.352c0,.033.021.06.063.083a.313.313,0,0,0,.152.035h.787c.047,0,.07.019.07.059v.117c0,.04-.023.059-.07.059h-.787a.924.924,0,0,1-.455-.1q-.189-.1-.189-.249v-.469q0-.146.189-.249a.936.936,0,0,1,.455-.1h.429a.931.931,0,0,1,.454.1q.189.1.189.249a.282.282,0,0,1-.166.235.88.88,0,0,1-.406.115h-.5a.313.313,0,0,0-.152.035C25.885,13,25.864,13.028,25.864,13.06Z" transform="translate(0)"/><path class="bddf579f-84d9-4730-b853-f6f7d984aae1" d="M28.867,12.591c0-.033-.021-.06-.064-.083a.308.308,0,0,0-.15-.035h-.432a.3.3,0,0,0-.15.035c-.042.023-.063.05-.063.083v.644h0v.117c0,.04-.023.059-.07.059h-.287c-.048,0-.072-.019-.072-.059V12.238h1.074a.93.93,0,0,1,.453.1q.189.1.189.249v.763c0,.04-.023.059-.071.059h-.286c-.047,0-.071-.019-.071-.059v-.117h0Z" transform="translate(0)"/><path class="bddf579f-84d9-4730-b853-f6f7d984aae1" d="M31.439,12.121v.939a.284.284,0,0,1-.166.236.88.88,0,0,1-.406.114v0h-.5a.918.918,0,0,1-.454-.1c-.127-.069-.189-.152-.189-.249v-.469c0-.1.062-.18.189-.249a.929.929,0,0,1,.454-.1h.43a.318.318,0,0,0,.149-.033.1.1,0,0,0,.065-.082v-.3c0-.039.024-.059.071-.059h.286c.047,0,.071.02.071.059v.294Zm-1.286.939c0,.033.021.06.062.083a.313.313,0,0,0,.152.035h.43a.308.308,0,0,0,.15-.035c.043-.023.064-.05.064-.083v-.469h0v-.117h-.644a.313.313,0,0,0-.152.035c-.041.023-.062.05-.062.083Z" transform="translate(0)"/><path class="bddf579f-84d9-4730-b853-f6f7d984aae1" d="M32.3,12.708h.643a.328.328,0,0,0,.152-.034.1.1,0,0,0,.063-.083c0-.033-.021-.06-.063-.083a.316.316,0,0,0-.152-.035h-.429a.309.309,0,0,0-.151.035c-.042.023-.063.05-.063.083Zm0,.352c0,.033.021.06.063.083a.309.309,0,0,0,.151.035H33.3c.047,0,.071.019.071.059v.117c0,.04-.024.059-.071.059h-.787a.92.92,0,0,1-.454-.1c-.127-.069-.189-.152-.189-.249v-.469c0-.1.062-.18.189-.249a.931.931,0,0,1,.454-.1h.429a.931.931,0,0,1,.454.1q.189.1.189.249a.284.284,0,0,1-.166.235.88.88,0,0,1-.406.115h-.5a.309.309,0,0,0-.151.035C32.318,13,32.3,13.028,32.3,13.06Z" transform="translate(0)"/><path class="bddf579f-84d9-4730-b853-f6f7d984aae1" d="M34.441,11.827v1.527c0,.04-.024.059-.071.059h-.286c-.048,0-.072-.019-.072-.059V11.827c0-.039.024-.059.072-.059h.286C34.417,11.768,34.441,11.788,34.441,11.827Z" transform="translate(0)"/><path class="bddf579f-84d9-4730-b853-f6f7d984aae1" d="M38.657,12.591v.469q0,.146-.189.249a.919.919,0,0,1-.453.1h-.5a.881.881,0,0,1-.407-.116.283.283,0,0,1-.166-.237v-.469q0-.146.189-.249a.933.933,0,0,1,.455-.1h.429a.93.93,0,0,1,.453.1Q38.657,12.446,38.657,12.591Zm-.428.469v-.469c0-.033-.021-.06-.063-.083a.312.312,0,0,0-.151-.035h-.429a.31.31,0,0,0-.152.035c-.042.023-.063.05-.063.083v.469c0,.033.021.06.063.083a.31.31,0,0,0,.152.035h.429a.312.312,0,0,0,.151-.035C38.208,13.12,38.229,13.093,38.229,13.06Z" transform="translate(0)"/><path class="bddf579f-84d9-4730-b853-f6f7d984aae1" d="M40.373,12.591c0-.033-.021-.06-.063-.083a.312.312,0,0,0-.151-.035h-.432a.308.308,0,0,0-.15.035c-.041.023-.062.05-.062.083v.644h0v.117c0,.04-.024.059-.071.059h-.286c-.048,0-.072-.019-.072-.059V12.238h1.073a.93.93,0,0,1,.453.1q.189.1.189.249v.763c0,.04-.023.059-.07.059h-.287c-.047,0-.071-.019-.071-.059v-.117h0Z" transform="translate(0)"/><path class="bddf579f-84d9-4730-b853-f6f7d984aae1" d="M21.379,13.423a.6.6,0,1,1,.586-.6v.6S21.525,13.423,21.379,13.423Z" transform="translate(0)"/><path class="bddf579f-84d9-4730-b853-f6f7d984aae1" d="M39.038,13.9c0,.014.019.016.036.026a.129.129,0,0,0,.061.009l.169,0a.4.4,0,0,1,.2.051.126.126,0,0,1,.061.1v.2a.124.124,0,0,1-.075.105.365.365,0,0,1-.183.044h-.172a.357.357,0,0,1-.181-.044.125.125,0,0,1-.076-.105V13.89c0-.015,0-.123,0-.159a1.538,1.538,0,0,1,.162.006c0,.029,0,.156,0,.162Zm.353.189a.04.04,0,0,0-.025-.035.121.121,0,0,0-.062-.021l-.123,0-.135,0,0,.06h0v.2a.04.04,0,0,0,.025.035.116.116,0,0,0,.06.015h.172a.115.115,0,0,0,.061-.015.04.04,0,0,0,.025-.035Z" transform="translate(0)"/><path class="bddf579f-84d9-4730-b853-f6f7d984aae1" d="M36.1,13.143a.1.1,0,0,0,.056-.084.1.1,0,0,0-.057-.08.278.278,0,0,0-.131-.036H35.6a.743.743,0,0,1-.4-.1.267.267,0,0,1,0-.494.743.743,0,0,1,.4-.1h.751a.053.053,0,0,1,.06.059v.116a.052.052,0,0,1-.06.059H35.6a.245.245,0,0,0-.134.034.089.089,0,0,0,0,.164.245.245,0,0,0,.134.034h.431a.736.736,0,0,1,.359.118.282.282,0,0,1,.148.232.3.3,0,0,1-.167.25.741.741,0,0,1-.4.1h-.814c-.042,0-.063-.02-.063-.059v-.119q0-.057.063-.057h.814A.245.245,0,0,0,36.1,13.143Z" transform="translate(0)"/><rect class="b62f17bc-80b5-426a-9e97-bbc724fd8175" x="18" y="10.226" width="26" height="42.774"/><rect class="ffc24ae4-d696-447b-ba73-8944d2ff0be5" x="22.733" y="18.338" width="15.544" height="0.908"/><rect class="ffc24ae4-d696-447b-ba73-8944d2ff0be5" x="22.733" y="21.402" width="15.544" height="0.908"/><rect class="a86f372c-0d1b-4206-afbd-124c26a8aeac" x="29.654" y="47.236" width="1.475" height="1.475"/></svg>