<svg id="b58c4756-1e5f-4d25-ac83-7a2ee52de536" data-name="Layer 1" xmlns="http://www.w3.org/2000/svg" width="64" height="64" viewBox="0 0 64 64"><defs><style>.a72a90ee-451e-4ec7-ac5b-d1c878d6c76d{fill:#fff;stroke:#666;stroke-linecap:round;stroke-linejoin:round;}.b7cd3ef9-db0e-410a-bf88-8794f68d3ce5{fill:#999;}</style></defs><rect class="a72a90ee-451e-4ec7-ac5b-d1c878d6c76d" x="0.5" y="0.5" width="63" height="63"/><path class="b7cd3ef9-db0e-410a-bf88-8794f68d3ce5" d="M17.147,8.22a.637.637,0,0,0-.36,1.08l3.248,3.247a3.958,3.958,0,0,1,0,5.587l-2,2a3.958,3.958,0,0,1-5.587,0L9.2,16.884a.637.637,0,0,0-1.079.36A10.733,10.733,0,0,0,20.142,29.467a4.538,4.538,0,0,1,3.82,1.289L48.234,55.032a4.735,4.735,0,0,0,6.7-6.7h0L30.655,24.05a4.537,4.537,0,0,1-1.294-3.818A10.719,10.719,0,0,0,17.147,8.22ZM52.132,50.288a1.38,1.38,0,0,1-1.946,1.944L25.418,27.468a1.38,1.38,0,0,1,1.949-1.949Z" transform="translate(0)"/></svg>