<svg id="a0d66d26-ed39-4d53-9395-328cdb08073c" data-name="Layer 1" xmlns="http://www.w3.org/2000/svg" width="64" height="64" viewBox="0 0 64 64"><defs><style>.bf55e69f-2753-4aa0-be35-018a1c1532b1{fill:#fff;stroke:gray;stroke-linecap:round;stroke-linejoin:round;}.baf77894-cbef-428d-b81e-9004143c214d{fill:#0093c9;}</style></defs><rect class="bf55e69f-2753-4aa0-be35-018a1c1532b1" x="0.5" y="0.5" width="63" height="63"/><path class="baf77894-cbef-428d-b81e-9004143c214d" d="M40.883,29.9a2.857,2.857,0,1,0,1.425,2.472A2.844,2.844,0,0,0,40.883,29.9Z" transform="translate(0 0)"/><path class="baf77894-cbef-428d-b81e-9004143c214d" d="M52.454,25.523a22.16,22.16,0,0,0-1.91-4.365,1.4,1.4,0,0,0-2.391-.151,1.451,1.451,0,0,0-.009,1.653,19.36,19.36,0,0,1,1.775,15.134A19.766,19.766,0,0,1,11.2,33.877,19.738,19.738,0,0,1,40.6,15.1a1.523,1.523,0,0,0,1,.24,1.416,1.416,0,0,0,.421-2.685A22.219,22.219,0,0,0,25.9,10.276,22.641,22.641,0,1,0,53.407,34.585,22.263,22.263,0,0,0,52.454,25.523Z" transform="translate(0 0)"/><path class="baf77894-cbef-428d-b81e-9004143c214d" d="M29.489,29.9a2.85,2.85,0,1,0,2.849,0A2.855,2.855,0,0,0,29.489,29.9Z" transform="translate(0 0)"/><path class="baf77894-cbef-428d-b81e-9004143c214d" d="M20.95,29.9a2.849,2.849,0,1,0,2.849,0A2.855,2.855,0,0,0,20.95,29.9Z" transform="translate(0 0)"/></svg>