<svg id="a8c62ff2-8de4-4b94-a666-a3b482c0c6cd" data-name="Layer 1" xmlns="http://www.w3.org/2000/svg" width="64" height="64" viewBox="0 0 64 64"><defs><style>.fec3934b-cc37-490a-9b1a-55645311038f{fill:#fff;stroke:gray;stroke-linecap:round;stroke-linejoin:round;}.fcbea3a4-6ac8-432b-95ee-233e98070209{fill:#22b573;}</style></defs><rect class="fec3934b-cc37-490a-9b1a-55645311038f" x="0.5" y="0.5" width="63" height="63"/><path class="fcbea3a4-6ac8-432b-95ee-233e98070209" d="M32.477,17H28.685a3.837,3.837,0,0,0-3.792,3.792v37.5H36.129v-37.5a3.837,3.837,0,0,0-1.124-2.668A3.286,3.286,0,0,0,32.477,17ZM47.505,28.236H43.713a3.837,3.837,0,0,0-3.792,3.792V58.292H51.157V32.028a3.833,3.833,0,0,0-1.124-2.668,3.286,3.286,0,0,0-2.528-1.124ZM21.241,58.292H10.005V43.264A3.837,3.837,0,0,1,13.8,39.472h3.792a3.838,3.838,0,0,1,3.793,3.792Z" transform="translate(0 0)"/></svg>