<svg id="e0afb66a-15f2-4abf-87fe-ad2b7aafcbdf" data-name="Layer 1" xmlns="http://www.w3.org/2000/svg" width="64" height="64" viewBox="0 0 64 64"><defs><style>.feed11f6-3830-480c-8aba-6efd01c54540{fill:#fff;}.b14cce71-63da-4d4e-9fb0-3cd5180d10f1{fill:#666;}.e7838856-b098-4b45-bb0f-ec7a7dede246{fill:gray;}</style></defs><rect class="feed11f6-3830-480c-8aba-6efd01c54540" x="0.5" y="0.5" width="63" height="63"/><path class="b14cce71-63da-4d4e-9fb0-3cd5180d10f1" d="M63,1V63H1V1H63m1-1H0V64H64V0Z"/><path class="e7838856-b098-4b45-bb0f-ec7a7dede246" d="M15.217,19.279h11.4l3.336,3.336.88.88H48.95a1.207,1.207,0,0,1,1.2,1.2V45.783a1.207,1.207,0,0,1-1.2,1.2H15.217a1.207,1.207,0,0,1-1.2-1.2v-25.3a1.207,1.207,0,0,1,1.205-1.2m0-3.012A4.215,4.215,0,0,0,11,20.483v25.3A4.216,4.216,0,0,0,15.217,50H48.95a4.216,4.216,0,0,0,4.217-4.217V24.7a4.216,4.216,0,0,0-4.217-4.217H32.083l-3.6-3.6a2.109,2.109,0,0,0-1.492-.616Z"/></svg>