<svg id="b8c543b2-4a43-4e92-a67d-0b1e77011eb6" data-name="Layer 1" xmlns="http://www.w3.org/2000/svg" width="64" height="64" viewBox="0 0 64 64"><defs><style>.f2aeefe3-daee-4b5c-a0aa-09efe1b47b2e{fill:#fff;}.bf98b4c8-f5b8-440b-8744-62f6c663883c{fill:#666;}.aeaf5e80-49b0-4896-9274-78a71d49b453{fill:#00a99d;}</style></defs><rect class="f2aeefe3-daee-4b5c-a0aa-09efe1b47b2e" x="0.5" y="0.5" width="63" height="63"/><path class="bf98b4c8-f5b8-440b-8744-62f6c663883c" d="M63,1V63H1V1H63m1-1H0V64H64V0Z"/><path class="aeaf5e80-49b0-4896-9274-78a71d49b453" d="M52.878,53.373l-.269-.581-3.108-6a.33.33,0,0,0-.083-.109.313.313,0,0,0-.446.059,3.521,3.521,0,0,1-1.684,1.2,6.1,6.1,0,0,1-2.063.253.326.326,0,0,0-.245.084c-.379.336-.749.665-1.1.927a3.536,3.536,0,0,1-.927.538.131.131,0,0,0-.041.017.31.31,0,0,0-.135.429l2.686,5.068.075.194a4.175,4.175,0,0,0,.952,1.684c.421.345.909.361,1.44-.3a.089.089,0,0,0,.034-.042l1.27-2.282,2.535.455h0a.564.564,0,0,1,.076.025.966.966,0,0,0,1.052-.455,1.56,1.56,0,0,0,0-1.129A.12.12,0,0,0,52.878,53.373Z"/><path class="aeaf5e80-49b0-4896-9274-78a71d49b453" d="M40.09,49.753l-.042-.016a3.505,3.505,0,0,1-.926-.54c-.354-.261-.725-.589-1.1-.926a.318.318,0,0,0-.245-.085,5.94,5.94,0,0,1-2.063-.251,3.575,3.575,0,0,1-1.683-1.205.313.313,0,0,0-.447-.058.344.344,0,0,0-.083.109l-3.108,6-.268.58-.018.052a1.566,1.566,0,0,0,0,1.128.968.968,0,0,0,1.053.453.26.26,0,0,0,.083-.008l2.535-.455,1.263,2.265c.009.017.025.025.033.042.54.657,1.02.632,1.441.294a4.183,4.183,0,0,0,.95-1.684l.077-.193,2.685-5.067A.314.314,0,0,0,40.09,49.753Z"/><path class="aeaf5e80-49b0-4896-9274-78a71d49b453" d="M50.461,34.726a4.4,4.4,0,0,1-.656-1.172,3.33,3.33,0,0,1-.176-.976L49.62,32.5c-.141-2.261-1.072-3.294-3.41-3.376a3.212,3.212,0,0,1-1.33-.227,7.284,7.284,0,0,1-1.1-.816l-.016-.018a6.865,6.865,0,0,0-.741-.581h0a2.688,2.688,0,0,0-3.065-.008,5.714,5.714,0,0,0-.757.589,7.106,7.106,0,0,1-1.086.817l-.008.009a3.166,3.166,0,0,1-1.34.227c-2.331.082-3.262,1.1-3.4,3.367l-.01.068a3.428,3.428,0,0,1-.176.985,4.038,4.038,0,0,1-.656,1.17A5.922,5.922,0,0,0,31.368,36.9a2.843,2.843,0,0,0,1.271,2.98,2.372,2.372,0,0,1,.539.556l.008.009a3,3,0,0,1,.186,1.186,3.731,3.731,0,0,0,.369,1.8,3.593,3.593,0,0,0,.86,1.12,3.078,3.078,0,0,0,2.44.767,1.95,1.95,0,0,1,.818.049,5.534,5.534,0,0,1,1.279.851c1.607,1.3,2.891,1.486,4.724.009a5.848,5.848,0,0,1,1.262-.842l.026-.01a1.831,1.831,0,0,1,.816-.049,3.261,3.261,0,0,0,3.284-1.87l.008-.017a3.732,3.732,0,0,0,.371-1.8c0-.926.038-1.151.716-1.734a2.877,2.877,0,0,0,1.27-2.989A5.831,5.831,0,0,0,50.461,34.726Zm-5.042,6.3a5.541,5.541,0,1,1,0-7.83h0a5.531,5.531,0,0,1,0,7.83Z"/></svg>