<svg xmlns="http://www.w3.org/2000/svg" width="32" height="32" viewBox="0 0 32 32">
  <defs>
    <style>
      .a {
        fill: #fff;
        stroke: gray;
        stroke-linecap: round;
        stroke-linejoin: round;
      }

      .b {
        fill: #006837;
      }
    </style>
  </defs>
  <title>refresh</title>
  <rect class="a" x="0.5" y="0.5" width="31" height="31"/>
  <g>
    <path class="b" d="M25.77,17.582a1.025,1.025,0,0,0-1.8-.936h0a.167.167,0,0,0-.017.029c0,.01-.012.018-.016.029-.069.109-.212.308-.241.356a8.831,8.831,0,0,1-.755,1.016,8.5,8.5,0,0,1-1.827,1.585l-.122.078-.125.071c-.081.046-.164.1-.251.143-.171.083-.333.176-.5.255A8.269,8.269,0,0,1,19.1,20.6a8.368,8.368,0,0,1-1.921.364,7.8,7.8,0,0,1-1.62-.058c-.116-.019-.233-.033-.342-.055l-.316-.062-.29-.07a1.332,1.332,0,0,1-.133-.037c-.041-.015-.084-.025-.126-.04-.079-.023-.158-.046-.23-.072l-.181-.066-.149-.054-.042-.015.5-1.362a.576.576,0,0,0-.735-.741l-.527.147A28.662,28.662,0,0,0,8.77,20.006a.778.778,0,0,0-.411,1.13l.013.028A29.052,29.052,0,0,0,10.6,25l.33.476a.577.577,0,0,0,1.039-.095l.5-1.367c.016.006.033.006.049.012.033.006.058.015.107.027.086.02.183.043.284.069s.216.049.33.073.225.041.351.063l.186.033c.066.012.134.02.2.027.135.014.279.037.426.049s.307.024.468.031.33.009.5.013a11.525,11.525,0,0,0,2.293-.217,11.247,11.247,0,0,0,2.553-.835,10.736,10.736,0,0,0,1.277-.7c.21-.128.415-.275.619-.417.1-.073.2-.154.3-.23l.147-.115.144-.123a10.9,10.9,0,0,0,2.073-2.325,11.378,11.378,0,0,0,.777-1.381c.056-.121.118-.244.168-.366A.946.946,0,0,0,25.77,17.582Z"/>
    <path class="b" d="M6.029,14.759a1.025,1.025,0,0,0,1.8.937h0a.158.158,0,0,0,.016-.029c0-.01.013-.019.017-.029.069-.11.211-.309.24-.357a8.927,8.927,0,0,1,.756-1.016,8.464,8.464,0,0,1,1.827-1.584l.122-.078.125-.072c.081-.046.164-.1.25-.142.171-.084.333-.177.5-.255a8.027,8.027,0,0,1,1.008-.393,8.364,8.364,0,0,1,1.92-.365,7.8,7.8,0,0,1,1.62.059c.116.018.234.032.343.054l.316.063.29.07a1.311,1.311,0,0,1,.132.037c.042.015.085.025.126.04.079.023.159.046.231.072l.18.066.15.054.041.015-.5,1.362a.576.576,0,0,0,.735.741l.539-.149a28.7,28.7,0,0,0,4.218-1.526.777.777,0,0,0,.411-1.129l-.013-.029A29.17,29.17,0,0,0,21.213,7.34l-.329-.476a.577.577,0,0,0-1.039.095l-.5,1.372c-.015,0-.032-.006-.048-.012-.033-.006-.059-.015-.107-.027l-.285-.068c-.1-.026-.215-.05-.329-.074s-.225-.041-.351-.063l-.187-.033c-.065-.012-.133-.019-.2-.026-.135-.014-.279-.037-.426-.05s-.307-.024-.468-.03-.33-.009-.5-.014a11.539,11.539,0,0,0-2.293.217,11.38,11.38,0,0,0-2.553.835,10.95,10.95,0,0,0-1.276.7c-.21.128-.416.275-.619.417-.1.074-.2.154-.3.23l-.147.116-.144.123a10.893,10.893,0,0,0-2.073,2.324,11.456,11.456,0,0,0-.778,1.382c-.055.12-.117.243-.168.365A.4.4,0,0,0,6.029,14.759Z"/>
  </g>
</svg>
