<svg xmlns="http://www.w3.org/2000/svg" width="64" height="64" viewBox="0 0 64 64"><defs><style>.a,.f{fill:#fff;}.a{stroke:gray;stroke-linecap:round;stroke-linejoin:round;}.b{fill:gray;}.c{fill:#999;}.d{fill:#e6e6e6;}.e{fill:#ff5f71;}</style></defs><title>calendar</title><rect class="a" x="0.5" y="0.5" width="63" height="63"/><path class="b" d="M59,6V59H5V6H59m1-1H4V60H60V5Z"/><rect class="c" x="9" y="22" width="46" height="31"/><rect class="d" x="10" y="23" width="14" height="9"/><rect class="d" x="25" y="23" width="14" height="9"/><rect class="d" x="40" y="23" width="14" height="9"/><rect class="d" x="10" y="33" width="14" height="9"/><rect class="d" x="25" y="33" width="14" height="9"/><rect class="d" x="40" y="33" width="14" height="9"/><rect class="d" x="10" y="43" width="14" height="9"/><rect class="d" x="25" y="43" width="14" height="9"/><rect class="d" x="40" y="43" width="14" height="9"/><rect class="e" x="4" y="5" width="56" height="12"/><rect class="f" x="16.5" y="5.5" width="3" height="6"/><path class="b" d="M19,6v5H17V6h2m1-1H16v7h4V5Z"/><rect class="f" x="43.5" y="5.5" width="3" height="6"/><path class="b" d="M46,6v5H44V6h2m1-1H43v7h4V5Z"/></svg>