<svg id="f55609ad-b114-4927-ab1b-5b3cf1b34ed2" data-name="Layer 1" xmlns="http://www.w3.org/2000/svg" width="64" height="64" viewBox="0 0 64 64"><defs><style>.a1e5e3bc-5f59-4ca6-b097-1d745bbe7df2{fill:#fff;}.f0f4256b-46ee-46c1-b50a-c51ef8a8df28{fill:gray;}.a8839f65-092d-4a77-82c4-e9a3ffd76156{fill:#006837;}.a2398d03-1159-4ab5-90f2-5aeaa5ed4b12{fill:#534741;}</style></defs><rect class="a1e5e3bc-5f59-4ca6-b097-1d745bbe7df2" x="0.5" y="0.5" width="63" height="63"/><path class="f0f4256b-46ee-46c1-b50a-c51ef8a8df28" d="M63.5,64H.5a.5.5,0,0,1-.5-.5V.5A.5.5,0,0,1,.5,0h63a.5.5,0,0,1,.5.5v63A.5.5,0,0,1,63.5,64ZM1,63H63V1H1Z"/><path class="a8839f65-092d-4a77-82c4-e9a3ffd76156" d="M46.581,59,40,52.645l2.043-1.754,4.432,3.17L57.13,41,59,45.013Z"/><polygon class="a2398d03-1159-4ab5-90f2-5aeaa5ed4b12" points="53 14 9 14 25 31 25 47 27 48 27 30 13.495 16 48.555 16 35 30 35 52 36.981 53 37 31 53 14"/></svg>