<svg id="a958a94e-cf80-4915-988e-7f9b6cab05d0" data-name="Layer 1" xmlns="http://www.w3.org/2000/svg" width="64" height="64" viewBox="0 0 64 64"><defs><style>.b0b78003-22ec-4a3b-8610-b5e7e5fb744c{fill:#fff;}.f90986eb-ae1c-4d19-ab47-888043004326{fill:gray;}.b445d152-7e5f-4c30-bb59-48662fafc090{fill:#534741;}</style></defs><rect class="b0b78003-22ec-4a3b-8610-b5e7e5fb744c" x="0.5" y="0.5" width="63" height="63"/><path class="f90986eb-ae1c-4d19-ab47-888043004326" d="M63.5,64H.5a.5.5,0,0,1-.5-.5V.5A.5.5,0,0,1,.5,0h63a.5.5,0,0,1,.5.5v63A.5.5,0,0,1,63.5,64ZM1,63H63V1H1Z"/><polygon class="b445d152-7e5f-4c30-bb59-48662fafc090" points="53 14 9 14 25 31 25 47 27 48 27 30 13.495 16 48.555 16 35 30 35 52 36.981 53 37 31 53 14"/></svg>