<svg xmlns="http://www.w3.org/2000/svg" width="546" height="546" viewBox="0 0 546 546">
  <defs>
    <style>
      .a, .d {
        fill: #fff;
      }

      .a {
        stroke: #666;
        stroke-linecap: square;
      }

      .a, .c {
        stroke-miterlimit: 10;
        stroke-width: 2px;
      }

      .b {
        fill: #1f3c13;
      }

      .c {
        fill: #556b4c;
        stroke: #d3d9d1;
      }

      .d {
        stroke: #fff;
        stroke-linecap: round;
        stroke-linejoin: round;
        stroke-width: 5px;
      }

      .e {
        fill: #2d591b;
      }
    </style>
  </defs>
  <title>logo_comm_protocols_with_text</title>
  <rect class="a" x="1" y="1" width="544" height="544"/>
  <g>
    <circle class="b" cx="272.5" cy="253.5" r="221.5"/>
    <circle class="c" cx="273.5" cy="253.5" r="190.5"/>
    <path class="d" d="M340.08,355V284H458.73q41.04,0,41.04,36.73,0,34.275-38.81,34.27ZM306.13,251V472h33.95V388H460.73q36.105,0,55.01-17.42,18.885-17.445,18.9-50.47,0-31.5-18.23-50.3T467.07,251Z" transform="translate(-128 -98)"/>
  </g>
  <g>
    <path class="b" d="M182.488,603.266V603a2.523,2.523,0,0,0-1.04-2.241,5.963,5.963,0,0,0-3.3-.712h-6.583q-4.233,0-5.436.993t-1.2,4.157v3.639q0,2.831,1.338,3.885t5.3,1.054h4.775q3.924,0,5.146-.764a3.084,3.084,0,0,0,1.221-2.839v-.281h8.338a1.833,1.833,0,0,0,.018.193q.054,1.143.054,1.705a11.311,11.311,0,0,1-.651,4.148,5.728,5.728,0,0,1-2.044,2.62,8.674,8.674,0,0,1-3.518,1.353,38.292,38.292,0,0,1-6.448.4h-9.188a31.551,31.551,0,0,1-6.2-.439,8.756,8.756,0,0,1-3.4-1.494,7.279,7.279,0,0,1-2.369-3.068,12.25,12.25,0,0,1-.742-4.6v-7.137q0-5.625,2.75-7.849t9.966-2.223h9.188a39.756,39.756,0,0,1,6.53.386,7.8,7.8,0,0,1,3.309,1.3,5.51,5.51,0,0,1,1.891,2.558,11.57,11.57,0,0,1,.606,4.034q0,.581-.009.888t-.046.589Z" transform="translate(-128 -98)"/>
    <path class="b" d="M208.813,620.316a41.131,41.131,0,0,1-6.909-.413,8.725,8.725,0,0,1-3.563-1.415,6.3,6.3,0,0,1-2.243-2.944,13.952,13.952,0,0,1-.687-4.825v-7.137a15.88,15.88,0,0,1,.687-5.2,6.256,6.256,0,0,1,2.243-3.041,8.877,8.877,0,0,1,3.608-1.406,40.3,40.3,0,0,1,6.828-.422h9.677a40.771,40.771,0,0,1,6.864.422,8.75,8.75,0,0,1,3.609,1.406,6.34,6.34,0,0,1,2.2,3.023,14.579,14.579,0,0,1,.7,4.9v7.3a14.469,14.469,0,0,1-.7,4.913,6.462,6.462,0,0,1-2.2,3.014,8.61,8.61,0,0,1-3.582,1.415,41.373,41.373,0,0,1-6.891.413Zm2.225-6.539h5.228q4.357,0,5.787-1.063t1.429-3.946v-3.709q0-2.883-1.429-3.947t-5.787-1.063H211q-4.449,0-5.833,1.072t-1.384,4.078v3.639q0,2.831,1.456,3.885T211.038,613.777Z" transform="translate(-128 -98)"/>
    <path class="b" d="M245.16,620h-8V593.826H249.3l9.605,16.348,9.767-16.348h11.974V620h-7.959V601.35L261.565,620h-5.372L245.16,601.35Z" transform="translate(-128 -98)"/>
    <path class="b" d="M294.583,620h-8V593.826h12.137l9.6,16.348,9.767-16.348H330.07V620h-7.958V601.35L310.988,620h-5.372l-11.033-18.65Z" transform="translate(-128 -98)"/>
  </g>
  <g>
    <path class="e" d="M341.115,620H337.78V593.826h18.656q6.381,0,8.445,1.327t2.064,4.9v3.428q0,3.515-2.046,4.851t-8.463,1.336H341.115Zm0-13.289h16.277q3.6,0,4.794-.844t1.189-3.551v-1.248q0-2.671-1.18-3.533t-4.8-.861H341.115Z" transform="translate(-128 -98)"/>
    <path class="e" d="M375.29,620h-3.335V593.826h19.161q6.381,0,8.471,1.327t2.091,4.9V603.2a5.081,5.081,0,0,1-1.028,3.534,7.082,7.082,0,0,1-3.694,1.687,4.785,4.785,0,0,1,3.307,1.512,5.3,5.3,0,0,1,1.127,3.586V620h-3.335v-5.836q0-2.548-1.153-3.5a4.124,4.124,0,0,0-1.875-.7,20.854,20.854,0,0,0-3.461-.229H375.29ZM392.2,596.674H375.29v10.037H392.2q3.606,0,4.786-.87t1.181-3.525v-1.248q0-2.619-1.181-3.506T392.2,596.674Z" transform="translate(-128 -98)"/>
    <path class="e" d="M419.433,620.316a35.263,35.263,0,0,1-6.39-.413,7.96,7.96,0,0,1-3.326-1.415,6.278,6.278,0,0,1-2.064-2.944,14.732,14.732,0,0,1-.657-4.825v-7.137a17.351,17.351,0,0,1,.621-5.2,6.257,6.257,0,0,1,2.065-3.041,8.249,8.249,0,0,1,3.361-1.389,33.842,33.842,0,0,1,6.353-.439h8.959a34.87,34.87,0,0,1,6.327.422,8.247,8.247,0,0,1,3.433,1.432A6.019,6.019,0,0,1,440.1,598.3a15.631,15.631,0,0,1,.658,4.966v7.3a15.68,15.68,0,0,1-.649,4.957,6.145,6.145,0,0,1-2.037,2.97,7.914,7.914,0,0,1-3.334,1.424,21.384,21.384,0,0,1-2.595.3q-1.607.1-3.786.105Zm10.508-23.923h-12.13a14.343,14.343,0,0,0-4.02.43,4.245,4.245,0,0,0-2.182,1.468,4.428,4.428,0,0,0-.81,1.793,16.872,16.872,0,0,0-.235,3.322v6.873a17.4,17.4,0,0,0,.226,3.384,4.194,4.194,0,0,0,.819,1.732,4.438,4.438,0,0,0,2.218,1.441,13.7,13.7,0,0,0,3.984.457h12.13a14.341,14.341,0,0,0,4.02-.431,4.133,4.133,0,0,0,2.956-3.173,14.49,14.49,0,0,0,.233-3V603a14.617,14.617,0,0,0-.224-3.032,4.327,4.327,0,0,0-.784-1.679,4.429,4.429,0,0,0-2.217-1.441A13.709,13.709,0,0,0,429.941,596.393Z" transform="translate(-128 -98)"/>
    <path class="e" d="M460.962,620h-3.335V596.744H444.344v-2.918h29.9v2.918H460.962Z" transform="translate(-128 -98)"/>
    <path class="e" d="M490.342,620.316a35.258,35.258,0,0,1-6.389-.413,7.96,7.96,0,0,1-3.326-1.415,6.271,6.271,0,0,1-2.064-2.944,14.729,14.729,0,0,1-.658-4.825v-7.137a17.346,17.346,0,0,1,.622-5.2,6.249,6.249,0,0,1,2.064-3.041,8.26,8.26,0,0,1,3.362-1.389,33.84,33.84,0,0,1,6.354-.439h8.958a34.87,34.87,0,0,1,6.327.422,8.247,8.247,0,0,1,3.433,1.432,6.026,6.026,0,0,1,1.983,2.936,15.66,15.66,0,0,1,.658,4.966v7.3a15.68,15.68,0,0,1-.649,4.957,6.158,6.158,0,0,1-2.037,2.97,7.909,7.909,0,0,1-3.334,1.424,21.379,21.379,0,0,1-2.6.3q-1.6.1-3.785.105Zm10.51-23.923H488.721a14.333,14.333,0,0,0-4.02.43,4.239,4.239,0,0,0-2.181,1.468,4.416,4.416,0,0,0-.811,1.793,16.89,16.89,0,0,0-.234,3.322v6.873a17.442,17.442,0,0,0,.224,3.384,4.21,4.21,0,0,0,.821,1.732,4.428,4.428,0,0,0,2.216,1.441,13.707,13.707,0,0,0,3.985.457h12.131a14.338,14.338,0,0,0,4.019-.431,4.134,4.134,0,0,0,2.955-3.173,14.392,14.392,0,0,0,.235-3V603a14.672,14.672,0,0,0-.225-3.032,4.3,4.3,0,0,0-.785-1.679,4.425,4.425,0,0,0-2.217-1.441A13.7,13.7,0,0,0,500.852,596.393Z" transform="translate(-128 -98)"/>
    <path class="e" d="M528.771,620.316a30.975,30.975,0,0,1-6.039-.413,7.279,7.279,0,0,1-3.082-1.415,6.273,6.273,0,0,1-1.937-2.935,15.836,15.836,0,0,1-.6-4.834v-7.137a18.143,18.143,0,0,1,.594-5.177,6.362,6.362,0,0,1,1.944-3.067,7.115,7.115,0,0,1,3.133-1.406,30.6,30.6,0,0,1,5.941-.422h8.445q6.552,0,8.857,1.591t2.3,5.792v1.388h-3.064V601.9q0-3.076-1.379-4.29t-4.858-1.212H527.4a12.5,12.5,0,0,0-3.7.43,3.949,3.949,0,0,0-2.064,1.468,4.759,4.759,0,0,0-.721,1.7,16.946,16.946,0,0,0-.234,3.375v6.943a18.094,18.094,0,0,0,.217,3.349,4.359,4.359,0,0,0,.738,1.732,4.112,4.112,0,0,0,2.082,1.441,11.943,11.943,0,0,0,3.685.457h11.591q3.8,0,5.191-1.2t1.388-4.342v-.721h3.065l.017.686.018.615a12.562,12.562,0,0,1-.5,3.92,5.228,5.228,0,0,1-1.65,2.408,6.742,6.742,0,0,1-3.019,1.266,36.331,36.331,0,0,1-6.318.386Z" transform="translate(-128 -98)"/>
    <path class="e" d="M566.209,620.316a35.291,35.291,0,0,1-6.391-.413,7.961,7.961,0,0,1-3.325-1.415,6.269,6.269,0,0,1-2.063-2.944,14.673,14.673,0,0,1-.659-4.825v-7.137a17.309,17.309,0,0,1,.623-5.2,6.261,6.261,0,0,1,2.063-3.041,8.255,8.255,0,0,1,3.361-1.389,33.862,33.862,0,0,1,6.354-.439h8.959a34.843,34.843,0,0,1,6.326.422,8.251,8.251,0,0,1,3.434,1.432,6.013,6.013,0,0,1,1.983,2.936,15.634,15.634,0,0,1,.657,4.966v7.3a15.683,15.683,0,0,1-.648,4.957,6.151,6.151,0,0,1-2.037,2.97,7.92,7.92,0,0,1-3.334,1.424,21.355,21.355,0,0,1-2.6.3q-1.605.1-3.785.105Zm10.508-23.923H564.586a14.348,14.348,0,0,0-4.02.43,4.24,4.24,0,0,0-2.18,1.468,4.418,4.418,0,0,0-.812,1.793,16.89,16.89,0,0,0-.234,3.322v6.873a17.4,17.4,0,0,0,.226,3.384,4.2,4.2,0,0,0,.82,1.732,4.43,4.43,0,0,0,2.218,1.441,13.694,13.694,0,0,0,3.982.457h12.131a14.328,14.328,0,0,0,4.019-.431,4.132,4.132,0,0,0,2.957-3.173,14.406,14.406,0,0,0,.234-3V603a14.515,14.515,0,0,0-.226-3.032,4.311,4.311,0,0,0-.783-1.679,4.433,4.433,0,0,0-2.217-1.441A13.709,13.709,0,0,0,576.717,596.393Z" transform="translate(-128 -98)"/>
    <path class="e" d="M593.516,620V593.826h3.336v23.291h20.853V620Z" transform="translate(-128 -98)"/>
    <path class="e" d="M621.311,611.475h3.226l-.072.509v1.037a3.624,3.624,0,0,0,1.668,3.428q1.667.968,6.191.967h7.012q5.444,0,7.11-1.055t1.667-4.025q0-2.478-1.153-3.4t-4.741-.923H630.882q-5.353,0-7.534-1.626t-2.182-5.581q0-4.044,2.479-5.669t9.076-1.626h6.092a44.819,44.819,0,0,1,6.984.369,6.855,6.855,0,0,1,3.145,1.283,4.554,4.554,0,0,1,1.361,2.048,9.649,9.649,0,0,1,.442,3.138v.756h-3.208V600.7q0-2.6-1.273-3.5t-5.389-.9H631.7q-4.188,0-5.641.931t-1.454,3.428q0,2.532,1.408,3.481t5.9.949h9.656q1.642,0,2.771.052a17.226,17.226,0,0,1,1.976.194,7.258,7.258,0,0,1,2.563.808,4.523,4.523,0,0,1,1.968,2.215,11.218,11.218,0,0,1,.594,4.149q0,4.359-2.406,6.082t-8.678,1.722h-9.1q-5.389,0-7.7-1.59t-2.307-5.283l.055-1.67Z" transform="translate(-128 -98)"/>
  </g>
</svg>
