<svg xmlns="http://www.w3.org/2000/svg" width="800" height="622.681" viewBox="0 0 800 622.681"><defs><style>.a{fill:#fff;}.b{fill:#ccc;}.c,.e{fill:#585858;}.c{opacity:0.8;}.d{opacity:0.7;}.f{fill:#7b7b7b;}</style></defs><title>logo_open_source_with_text</title><rect class="a" width="800" height="622.681"/><path class="b" d="M270.622,143.222c67.25,0,121.747,56,121.747,124.994s-54.5,125-121.747,125c-33.506,0-121.746.158-121.746,0V268.216C148.876,199.224,203.373,143.222,270.622,143.222Z" transform="translate(0 -64.39)"/><path class="c" d="M524.651,393.211c-67.25,0-121.747-55.923-121.747-124.995,0-68.992,54.5-124.994,121.747-124.994s121.747,56,121.747,124.994V392.973C646.4,393.448,554.83,393.211,524.651,393.211Z" transform="translate(0 -64.39)"/><g class="d"><path class="e" d="M354.211,587.854h5.915l-.132.935v1.9q0,4.512,3.057,6.285t11.351,1.772h12.855q9.98,0,13.036-1.934t3.057-7.379q0-4.545-2.116-6.237t-8.69-1.691H371.758q-9.815,0-13.813-2.982t-4-10.232q0-7.412,4.544-10.393t16.639-2.981H386.3a82.169,82.169,0,0,1,12.806.677,12.577,12.577,0,0,1,5.767,2.352,8.367,8.367,0,0,1,2.494,3.755,17.743,17.743,0,0,1,.811,5.752v1.386h-5.883V568.1q0-4.769-2.334-6.413t-9.879-1.644H373.266q-7.68,0-10.344,1.708t-2.664,6.284q0,4.641,2.581,6.382t10.821,1.74h17.7q3.012,0,5.079.1a31.507,31.507,0,0,1,3.624.354,13.313,13.313,0,0,1,4.7,1.483,8.265,8.265,0,0,1,3.6,4.06,20.531,20.531,0,0,1,1.092,7.606q0,7.992-4.41,11.15t-15.912,3.158H372.452q-9.88,0-14.11-2.917t-4.23-9.683l.1-3.062Z" transform="translate(0 -64.39)"/><path class="e" d="M441.552,604.064a64.742,64.742,0,0,1-11.715-.757,14.593,14.593,0,0,1-6.1-2.594,11.5,11.5,0,0,1-3.783-5.4,26.942,26.942,0,0,1-1.206-8.845V573.384a31.771,31.771,0,0,1,1.14-9.539,11.454,11.454,0,0,1,3.784-5.575,15.117,15.117,0,0,1,6.163-2.546,62.131,62.131,0,0,1,11.648-.806h16.424a64.1,64.1,0,0,1,11.6.773,15.149,15.149,0,0,1,6.3,2.627,11.027,11.027,0,0,1,3.634,5.382,28.689,28.689,0,0,1,1.207,9.1v13.375a28.719,28.719,0,0,1-1.19,9.088,11.282,11.282,0,0,1-3.734,5.446,14.5,14.5,0,0,1-6.114,2.61,39.113,39.113,0,0,1-4.758.548q-2.942.193-6.94.193ZM460.817,560.2h-22.24a26.277,26.277,0,0,0-7.369.79,7.773,7.773,0,0,0-4,2.691,8.1,8.1,0,0,0-1.486,3.287,30.865,30.865,0,0,0-.43,6.091v12.6a31.831,31.831,0,0,0,.413,6.2,7.675,7.675,0,0,0,1.5,3.175,8.123,8.123,0,0,0,4.065,2.643,25.17,25.17,0,0,0,7.3.837h22.24a26.224,26.224,0,0,0,7.37-.79,7.577,7.577,0,0,0,5.418-5.816,26.351,26.351,0,0,0,.43-5.511V572.32a26.772,26.772,0,0,0-.413-5.558,7.915,7.915,0,0,0-1.437-3.078,8.127,8.127,0,0,0-4.065-2.643A25.13,25.13,0,0,0,460.817,560.2Z" transform="translate(0 -64.39)"/><path class="e" d="M512.27,604.064a54.424,54.424,0,0,1-10.756-.757,13.335,13.335,0,0,1-5.635-2.594,11.525,11.525,0,0,1-3.47-5.285,28.287,28.287,0,0,1-1.124-8.83V555.5h6.279v31.1a26.994,26.994,0,0,0,.4,5.51,8.313,8.313,0,0,0,1.321,3,7.17,7.17,0,0,0,3.7,2.643,21.147,21.147,0,0,0,6.643.838h20.225a21.283,21.283,0,0,0,6.674-.822,7.384,7.384,0,0,0,3.7-2.659,8.327,8.327,0,0,0,1.289-2.964,27.4,27.4,0,0,0,.4-5.543V555.5h6.278v30.745a30.779,30.779,0,0,1-1.089,8.991,11.5,11.5,0,0,1-3.438,5.479,12.274,12.274,0,0,1-5.585,2.61,33.657,33.657,0,0,1-4.378.548q-2.694.193-6.394.193Z" transform="translate(0 -64.39)"/><path class="e" d="M566,603.484H559.89V555.5h35.128q11.7,0,15.531,2.434t3.833,8.974v5.769q0,4.449-1.883,6.478t-6.774,3.094a8.77,8.77,0,0,1,6.063,2.772,9.709,9.709,0,0,1,2.066,6.574v11.891H607.74v-10.7q0-4.673-2.115-6.413a7.549,7.549,0,0,0-3.437-1.289,38.2,38.2,0,0,0-6.344-.419H566Zm31-42.765H566v18.4h31q6.609,0,8.773-1.6t2.165-6.462v-2.288q0-4.8-2.165-6.428T597,560.719Z" transform="translate(0 -64.39)"/><path class="e" d="M645.511,604.064a56.864,56.864,0,0,1-11.071-.757,13.347,13.347,0,0,1-5.65-2.594,11.5,11.5,0,0,1-3.553-5.382,29,29,0,0,1-1.106-8.862V573.384a33.22,33.22,0,0,1,1.089-9.49,11.651,11.651,0,0,1,3.565-5.624,13.022,13.022,0,0,1,5.743-2.579,56.3,56.3,0,0,1,10.892-.773H660.9q12.015,0,16.24,2.917t4.225,10.618V571h-5.618v-.709q0-5.639-2.527-7.863t-8.907-2.224H643a22.92,22.92,0,0,0-6.791.79,7.241,7.241,0,0,0-3.784,2.691,8.706,8.706,0,0,0-1.321,3.126,30.893,30.893,0,0,0-.43,6.187v12.731a33.372,33.372,0,0,0,.4,6.138,8,8,0,0,0,1.355,3.175,7.536,7.536,0,0,0,3.817,2.643,21.932,21.932,0,0,0,6.758.837h21.248q6.972,0,9.518-2.191t2.544-7.96v-1.321h5.618l.033,1.257.033,1.128a23.022,23.022,0,0,1-.909,7.186,9.6,9.6,0,0,1-3.023,4.415,12.371,12.371,0,0,1-5.536,2.32,66.571,66.571,0,0,1-11.583.709Z" transform="translate(0 -64.39)"/><path class="e" d="M692.4,603.484V555.5h48.479v5.35h-42.5V575.9H739.1v5.35H698.385v16.887h42.5v5.349Z" transform="translate(0 -64.39)"/></g><path class="f" d="M87.708,604.064a75.515,75.515,0,0,1-12.667-.757,16,16,0,0,1-6.533-2.594,11.549,11.549,0,0,1-4.112-5.4,25.561,25.561,0,0,1-1.26-8.845V573.384a29.11,29.11,0,0,1,1.26-9.539,11.466,11.466,0,0,1,4.112-5.575,16.271,16.271,0,0,1,6.616-2.579,74.076,74.076,0,0,1,12.518-.773h17.741a74.983,74.983,0,0,1,12.584.773,16.025,16.025,0,0,1,6.616,2.579,11.627,11.627,0,0,1,4.029,5.543,26.716,26.716,0,0,1,1.277,8.991v13.375a26.513,26.513,0,0,1-1.277,9.007,11.841,11.841,0,0,1-4.029,5.527,15.776,15.776,0,0,1-6.566,2.594,75.977,75.977,0,0,1-12.634.757Zm4.079-11.988h9.584q7.99,0,10.611-1.95t2.62-7.234v-6.8q0-5.286-2.62-7.236t-10.611-1.95h-9.65q-8.159,0-10.7,1.966t-2.537,7.478v6.671q0,5.187,2.67,7.122T91.787,592.076Z" transform="translate(0 -64.39)"/><path class="f" d="M177.623,555.5a54.6,54.6,0,0,1,8.041.468,16.953,16.953,0,0,1,5.09,1.53,11.483,11.483,0,0,1,5.439,5.656q1.69,3.754,1.691,10.361,0,9.862-3.383,13.938t-11.44,4.077H154.875v11.956H139.753V555.5Zm-.531,11.956H154.875V579.6h22.217q3.018,0,4.228-1.434t1.21-5.108a5.973,5.973,0,0,0-1.293-4.27A5.557,5.557,0,0,0,177.092,567.454Z" transform="translate(0 -64.39)"/><path class="f" d="M260.408,567.2h-38.9v7.252H258.15v10.087H221.511v7.348h39.494v11.6H206.456V555.5h53.952Z" transform="translate(0 -64.39)"/><path class="f" d="M337.191,603.484H315.106l-29.613-34.9v34.9H270.438V555.5h22.317l29.414,35.192V555.5h15.022Z" transform="translate(0 -64.39)"/><path class="e" d="M173.088,494.925h-5.354V460.989h5.354v4.286a8.227,8.227,0,0,1,4.891-3.641,24.346,24.346,0,0,1,4.395-.806,60.573,60.573,0,0,1,6.345-.29q7.765,0,11.169,1.4a7.569,7.569,0,0,1,4.528,4.819,12.52,12.52,0,0,1,5.964-4.69,27.014,27.014,0,0,1,9.865-1.531q10.375,0,14.672,2.788t4.3,9.491v22.108H234.19V474.268a13.753,13.753,0,0,0-.512-4.464,4.757,4.757,0,0,0-1.735-2.207,12.144,12.144,0,0,0-4.478-1.532,38.6,38.6,0,0,0-6.956-.564q-7.27,0-10.592,1.95a7.964,7.964,0,0,0-3.816,6.43v21.044h-5.288V473.816q0-5.22-2.484-6.767T188.193,465.5q-8.117,0-11.61,2.047t-3.5,6.784Z" transform="translate(0 -64.39)"/><path class="e" d="M274.936,460.538q9.815,0,13.665,3.545t3.849,12.44v2.611h-38.1v1.842q0,5.331,2.677,7.5t9.319,2.165H275.4q5.782,0,8.543-1.41a4.609,4.609,0,0,0,2.759-4.357v-.356h5.75v.872a8.275,8.275,0,0,1-4,7.451q-4,2.536-11.764,2.537h-10.41q-9.32,0-13.4-3.384T248.8,480.745v-5.414q0-7.961,4.032-11.377t13.45-3.416Zm-20.588,13.73H286.7v-.806q0-4.512-2.4-6.236t-9.453-1.725H266.2q-6.589,0-9.223,1.982T254.348,474.268Z" transform="translate(0 -64.39)"/><path class="e" d="M301.67,494.925V460.989h5.486v6.285a11.044,11.044,0,0,1,6.047-5.157q4.131-1.578,11.6-1.579,10.773,0,15,2.724t4.23,9.555v22.108h-5.486V474.268a13.492,13.492,0,0,0-.512-4.383,4.624,4.624,0,0,0-1.8-2.224,11.846,11.846,0,0,0-4.808-1.563,53.246,53.246,0,0,0-8.179-.533q-8.757,0-12.425,2.1t-3.668,6.993v20.271Z" transform="translate(0 -64.39)"/><path class="e" d="M379.163,495.376H369.91q-8.99,0-12.822-3.433t-3.834-11.552v-5.318q0-7.765,3.874-11.151t12.81-3.384h10.693a16.334,16.334,0,0,1,6.455,1.128,10.983,10.983,0,0,1,4.469,3.609V446.938h5.287v47.987h-4.824v-5.543a8.758,8.758,0,0,1-4.214,4.608Q384.978,495.376,379.163,495.376Zm-.133-5q7.535,0,10.03-2.144t2.5-8.426v-4.029q0-6.026-2.5-8.153T379.03,465.5h-7.765q-7.5,0-10.013,2.111t-2.512,8.17v4.029q0,6.219,2.5,8.394t10.03,2.176Z" transform="translate(0 -64.39)"/><path class="e" d="M432.664,460.538q9.815,0,13.665,3.545t3.85,12.44v2.611h-38.1v1.842q0,5.331,2.677,7.5t9.318,2.165h9.055q5.783,0,8.542-1.41a4.608,4.608,0,0,0,2.76-4.357v-.356h5.75v.872a8.275,8.275,0,0,1-4,7.451q-4,2.536-11.765,2.537h-10.41q-9.318,0-13.4-3.384t-4.081-11.247v-5.414q0-7.961,4.032-11.377t13.449-3.416Zm-20.587,13.73h32.352v-.806q0-4.512-2.4-6.236t-9.453-1.725h-8.642q-6.591,0-9.223,1.982T412.077,474.268Z" transform="translate(0 -64.39)"/><path class="e" d="M465.842,446.938v47.987h-5.486V446.938Z" transform="translate(0 -64.39)"/><path class="e" d="M492.147,479.875q-9.45,0-12.276-1.934t-2.826-7.573q0-5.349,3.388-7.557t11.714-2.208h9.881q8.26,0,12.012,1.95a6.546,6.546,0,0,1,3.751,6.236v2.256h-5.254v-1.386a3.233,3.233,0,0,0-2.413-3.207q-2.412-.887-10.046-.887h-5.419q-8.2,0-10.162.936t-1.966,3.867q0,2.966,1.983,3.964t10.145,1h9.484a44.755,44.755,0,0,1,8.791.578A7.754,7.754,0,0,1,516.8,477.9a6.991,6.991,0,0,1,1.8,2.924,21.1,21.1,0,0,1,.545,5.75q0,4.853-3.387,6.859t-12.178,2.007H489.569q-6.906,0-9.748-2.739a9.088,9.088,0,0,1-2.165-3.77,18.99,18.99,0,0,1-.743-5.672h5.024v.58q0,3.9,1.552,5.221t7.3,1.321h15.565q4.593,0,5.849-1.016t1.256-4.527q0-2.837-1.5-3.9t-5.535-1.063Z" transform="translate(0 -64.39)"/><path class="e" d="M546.178,495.376q-8.99,0-12.823-3.433t-3.833-11.552v-5.318q0-7.765,3.867-11.151t12.789-3.384H558.14q8.823,0,12.739,3.368t3.916,11.167v5.318q0,8.121-3.85,11.552t-12.805,3.433Zm1.421-5h9.053q7.567,0,10.079-2.159t2.512-8.411v-4.029q0-6.026-2.5-8.153t-10.1-2.128H547.6q-7.5,0-10.014,2.111t-2.511,8.17v4.029q0,6.219,2.494,8.394T547.6,490.381Z" transform="translate(0 -64.39)"/><path class="e" d="M584.61,494.925V460.989H590.1v6.285a11.044,11.044,0,0,1,6.047-5.157q4.129-1.578,11.6-1.579,10.773,0,15,2.724t4.23,9.555v22.108h-5.486V474.268a13.526,13.526,0,0,0-.511-4.383,4.626,4.626,0,0,0-1.8-2.224,11.851,11.851,0,0,0-4.808-1.563,53.246,53.246,0,0,0-8.179-.533q-8.757,0-12.425,2.1t-3.668,6.993v20.271Z" transform="translate(0 -64.39)"/><rect class="e" x="48.188" y="451.014" width="703.785" height="8.703"/></svg>