<svg xmlns="http://www.w3.org/2000/svg" width="537.632" height="537.632" viewBox="0 0 537.632 537.632"><defs><style>.a,.c{fill:#fff;}.a{stroke:#fff;stroke-linecap:round;stroke-linejoin:round;stroke-width:7px;}.b{fill:#ccc;}.c{stroke:#999;stroke-miterlimit:10;}.d{fill:#585858;opacity:0.8;}</style></defs><title>logo_open_source</title><path class="a" d="M339.08,371V300H457.73q41.04,0,41.04,36.73,0,34.275-38.81,34.27ZM305.13,267V488h33.95V404H459.73q36.105,0,55.01-17.42,18.885-17.445,18.9-50.47,0-31.5-18.23-50.3T466.07,267Z" transform="translate(-135.368 -102.368)"/><circle class="b" cx="268.816" cy="268.816" r="268.816"/><circle class="c" cx="270.03" cy="268.816" r="231.194"/><path class="b" d="M328.766,281.579c42.9,0,77.658,35.721,77.658,79.729s-34.761,79.73-77.658,79.73c-21.372,0-77.658.1-77.658,0v-79.73C251.108,317.3,285.87,281.579,328.766,281.579Z" transform="translate(-135.368 -102.368)"/><path class="d" d="M490.8,441.038c-42.9,0-77.658-35.671-77.658-79.73,0-44.008,34.762-79.729,77.658-79.729S568.46,317.3,568.46,361.308v79.578C568.46,441.19,510.053,441.038,490.8,441.038Z" transform="translate(-135.368 -102.368)"/></svg>