<svg id="ee3a8eb7-1349-440f-a253-921b217b1c04" data-name="Layer 1" xmlns="http://www.w3.org/2000/svg" width="64" height="64" viewBox="0 0 64 64"><defs><style>.e9428f81-6de9-47fd-96ad-1d303eef65de{fill:#fff;stroke:#666;stroke-linecap:round;stroke-linejoin:round;}.a50503f0-6116-43a2-af4a-6655bf2f8ea3{fill:#333;}</style></defs><rect class="e9428f81-6de9-47fd-96ad-1d303eef65de" x="0.5" y="0.5" width="63" height="63"/><path class="a50503f0-6116-43a2-af4a-6655bf2f8ea3" d="M50.174,36.746,55.139,20.8a1.808,1.808,0,0,0-1.724-2.343H17.746l-2.027-5.3A1.808,1.808,0,0,0,14.031,12H8.163a1.806,1.806,0,0,0,0,3.612H12.79L14.776,20.8a.226.226,0,0,0,.018.05l.059.153,6.08,15.9s0,.01,0,.01l1.629,4.266a5.291,5.291,0,1,0,7.692,4.712,5.163,5.163,0,0,0-.276-1.679H40.835a5.163,5.163,0,0,0-.275,1.679,5.293,5.293,0,1,0,5.294-5.29H26.21l-.989-2.587H48.45A1.807,1.807,0,0,0,50.174,36.746Zm-4.32,7.466a1.682,1.682,0,1,1-1.683,1.68A1.682,1.682,0,0,1,45.854,44.212ZM41.548,22.071H50.96l-1.734,5.57H41.11Zm-22.421,0H29.252l.433,5.57H21.254Zm7.521,23.82a1.682,1.682,0,1,1-1.68-1.679A1.683,1.683,0,0,1,26.648,45.891ZM23.84,34.4l-1.9-4.956h7.881l.389,4.956Zm14.932,0H32.024l-.384-4.956h7.524Zm.533-6.762H31.5l-.433-5.57h8.681ZM40.582,34.4l.388-4.956h7.7L47.123,34.4Z" transform="translate(0)"/></svg>