<svg xmlns="http://www.w3.org/2000/svg" width="506" height="312" viewBox="0 0 506 312">
  <defs>
    <style>
      .a {
        fill: #ccc;
      }

      .b, .d, .i {
        fill: #fff;
      }

      .b, .h {
        opacity: 0.7;
      }

      .c, .j {
        opacity: 0.8;
      }

      .e {
        fill: #666;
      }

      .f {
        opacity: 0.5;
      }

      .g, .j {
        fill: #585858;
      }

      .i {
        stroke: #999;
        stroke-miterlimit: 10;
      }
    </style>
  </defs>
  <title>splash_mendelson_opensource_as2</title>
  <rect class="a" y="46" width="506" height="266"/>
  <path class="b" d="M.5,312H468.452C192.339,312,312.209,29.223.5,46.22"/>
  <g class="c">
    <rect class="d" y="276" width="506" height="36"/>
  </g>
  <path class="e" d="M505,1V311H1V1H505m1-1H0V312H506V0Z"/>
  <g class="f">
    <path d="M15.49,286.08a3.53,3.53,0,0,1-1.461.263,2.586,2.586,0,0,1-2.734-2.8,2.754,2.754,0,0,1,2.89-2.906,2.962,2.962,0,0,1,1.314.246l-.173.583a2.591,2.591,0,0,0-1.116-.231,2.058,2.058,0,0,0-2.159,2.283,2.011,2.011,0,0,0,2.126,2.224,2.873,2.873,0,0,0,1.166-.229Z"/>
    <path d="M19.863,284.241a1.942,1.942,0,0,1-1.979,2.11,1.889,1.889,0,0,1-1.9-2.044,1.94,1.94,0,0,1,1.97-2.11A1.882,1.882,0,0,1,19.863,284.241Zm-3.153.041c0,.87.5,1.528,1.207,1.528.69,0,1.207-.649,1.207-1.544,0-.673-.336-1.527-1.19-1.527S16.71,283.527,16.71,284.282Z"/>
    <path d="M20.771,283.585c0-.51-.016-.92-.033-1.3h.649l.033.682h.016a1.561,1.561,0,0,1,1.412-.772,1.8,1.8,0,0,1,1.683,2.02,1.88,1.88,0,0,1-1.806,2.134,1.4,1.4,0,0,1-1.223-.623h-.017v2.158h-.714Zm.714,1.059a1.663,1.663,0,0,0,.033.3,1.114,1.114,0,0,0,1.084.845c.763,0,1.207-.623,1.207-1.535,0-.8-.419-1.478-1.183-1.478a1.257,1.257,0,0,0-1.141,1.191Z"/>
    <path d="M25.644,282.287l.87,2.349c.09.262.189.574.255.812h.016c.074-.238.156-.542.255-.829l.788-2.332h.763l-1.083,2.833a6.045,6.045,0,0,1-1.363,2.487,1.958,1.958,0,0,1-.887.468l-.18-.607a1.919,1.919,0,0,0,.632-.354,2.172,2.172,0,0,0,.607-.8.518.518,0,0,0,.058-.172.653.653,0,0,0-.049-.189l-1.47-3.662Z"/>
    <path d="M29.245,283.527c0-.467-.008-.87-.033-1.24h.633l.024.78H29.9a1.193,1.193,0,0,1,1.1-.87.752.752,0,0,1,.205.025v.681a1.108,1.108,0,0,0-.246-.024,1.014,1.014,0,0,0-.969.928,2.055,2.055,0,0,0-.033.336v2.118h-.714Z"/>
    <path d="M32.765,281.171a.448.448,0,0,1-.895,0,.44.44,0,0,1,.452-.451A.428.428,0,0,1,32.765,281.171Zm-.8,5.09v-3.974h.723v3.974Z"/>
    <path d="M37.3,282.287c-.017.288-.033.608-.033,1.092v2.308a2.285,2.285,0,0,1-.566,1.813,2.11,2.11,0,0,1-1.445.477,2.57,2.57,0,0,1-1.322-.329l.181-.55a2.23,2.23,0,0,0,1.165.312c.739,0,1.281-.386,1.281-1.388v-.443h-.017a1.416,1.416,0,0,1-1.264.665,1.776,1.776,0,0,1-1.691-1.937,1.908,1.908,0,0,1,1.79-2.11,1.324,1.324,0,0,1,1.24.69h.016l.033-.6Zm-.747,1.568a1.053,1.053,0,0,0-.041-.328,1.041,1.041,0,0,0-1.01-.763c-.69,0-1.182.583-1.182,1.5,0,.78.394,1.428,1.174,1.428a1.056,1.056,0,0,0,1-.739,1.23,1.23,0,0,0,.058-.386Z"/>
    <path d="M38.466,280.433h.723v2.478h.016a1.342,1.342,0,0,1,.518-.509,1.483,1.483,0,0,1,.738-.2c.534,0,1.388.328,1.388,1.7v2.365h-.723v-2.282c0-.641-.238-1.182-.919-1.182a1.039,1.039,0,0,0-.969.722.872.872,0,0,0-.049.344v2.4h-.723Z"/>
    <path d="M43.856,281.146v1.141h1.035v.551H43.856v2.142c0,.493.14.772.542.772a1.543,1.543,0,0,0,.419-.05l.033.542a1.757,1.757,0,0,1-.641.1,1,1,0,0,1-.779-.3,1.473,1.473,0,0,1-.279-1.034v-2.167h-.616v-.551h.616v-.952Z"/>
    <path d="M52.1,283.47a2.484,2.484,0,1,1-2.471-2.529A2.49,2.49,0,0,1,52.1,283.47Zm-4.556.024a2.077,2.077,0,1,0,2.085-2.217A2.106,2.106,0,0,0,47.548,283.494Zm3.086-.96a1.777,1.777,0,0,0-.8-.189,1.06,1.06,0,0,0-1.149,1.149,1.088,1.088,0,0,0,1.157,1.157,1.59,1.59,0,0,0,.829-.213l.1.312a1.869,1.869,0,0,1-1.01.255,1.417,1.417,0,0,1-1.5-1.486,1.512,1.512,0,0,1,1.568-1.527,1.617,1.617,0,0,1,.9.222Z"/>
    <path d="M56.473,283.363c0-.411-.008-.747-.033-1.076h.632l.033.641h.024a1.371,1.371,0,0,1,1.248-.731,1.174,1.174,0,0,1,1.125.8h.017a1.614,1.614,0,0,1,.443-.516,1.352,1.352,0,0,1,.878-.28c.526,0,1.306.345,1.306,1.724v2.34h-.707v-2.249c0-.764-.279-1.224-.861-1.224a.935.935,0,0,0-.854.657,1.189,1.189,0,0,0-.058.362v2.454H58.96V283.88c0-.632-.279-1.092-.829-1.092a1.076,1.076,0,0,0-.952,1.075v2.4h-.706Z"/>
    <path d="M63.717,284.4a1.272,1.272,0,0,0,1.363,1.379,2.613,2.613,0,0,0,1.1-.2l.123.518a3.214,3.214,0,0,1-1.322.246,1.845,1.845,0,0,1-1.953-2,1.929,1.929,0,0,1,1.863-2.143,1.684,1.684,0,0,1,1.642,1.872,2.534,2.534,0,0,1-.025.336Zm2.118-.516a1.028,1.028,0,0,0-1-1.174,1.2,1.2,0,0,0-1.108,1.174Z"/>
    <path d="M67.425,283.363c0-.411-.008-.747-.033-1.076h.64l.041.657h.017A1.46,1.46,0,0,1,69.4,282.2c.551,0,1.4.328,1.4,1.692v2.372h-.722v-2.29c0-.641-.238-1.174-.919-1.174a1.025,1.025,0,0,0-.969.738,1.04,1.04,0,0,0-.05.337v2.389h-.722Z"/>
    <path d="M75.41,280.433v4.8c0,.354.008.756.032,1.027h-.648l-.033-.69h-.016a1.469,1.469,0,0,1-1.355.78,1.811,1.811,0,0,1-1.7-2.019,1.9,1.9,0,0,1,1.781-2.135,1.328,1.328,0,0,1,1.2.608h.016v-2.372Zm-.723,3.471a1.251,1.251,0,0,0-.033-.3,1.061,1.061,0,0,0-1.042-.837c-.747,0-1.191.656-1.191,1.535,0,.805.394,1.47,1.174,1.47a1.086,1.086,0,0,0,1.059-.863,1.232,1.232,0,0,0,.033-.311Z"/>
    <path d="M77.007,284.4a1.272,1.272,0,0,0,1.363,1.379,2.613,2.613,0,0,0,1.1-.2l.123.518a3.214,3.214,0,0,1-1.322.246,1.845,1.845,0,0,1-1.953-2,1.929,1.929,0,0,1,1.863-2.143,1.683,1.683,0,0,1,1.642,1.872,2.534,2.534,0,0,1-.025.336Zm2.118-.516a1.027,1.027,0,0,0-1-1.174,1.2,1.2,0,0,0-1.108,1.174Z"/>
    <path d="M80.715,280.433h.723v5.828h-.723Z"/>
    <path d="M82.553,285.521a1.887,1.887,0,0,0,.952.289c.525,0,.771-.263.771-.592,0-.345-.2-.533-.738-.731-.715-.254-1.051-.648-1.051-1.124a1.226,1.226,0,0,1,1.371-1.166,1.993,1.993,0,0,1,.976.246l-.18.526a1.541,1.541,0,0,0-.813-.23c-.426,0-.665.246-.665.542,0,.328.239.476.756.673.689.263,1.042.608,1.042,1.2,0,.7-.541,1.191-1.486,1.191a2.266,2.266,0,0,1-1.116-.271Z"/>
    <path d="M89.5,284.241a1.942,1.942,0,0,1-1.978,2.11,1.889,1.889,0,0,1-1.905-2.044,1.94,1.94,0,0,1,1.971-2.11A1.881,1.881,0,0,1,89.5,284.241Zm-3.152.041c0,.87.5,1.528,1.207,1.528.689,0,1.206-.649,1.206-1.544,0-.673-.336-1.527-1.19-1.527S86.343,283.527,86.343,284.282Z"/>
    <path d="M90.4,283.363c0-.411-.007-.747-.032-1.076h.64l.041.657h.016a1.462,1.462,0,0,1,1.314-.747c.55,0,1.4.328,1.4,1.692v2.372h-.723v-2.29c0-.641-.238-1.174-.919-1.174a1.025,1.025,0,0,0-.969.738,1.041,1.041,0,0,0-.049.337v2.389H90.4Z"/>
    <path d="M97.1,284.4a1.272,1.272,0,0,0,1.362,1.379,2.614,2.614,0,0,0,1.1-.2l.123.518a3.222,3.222,0,0,1-1.322.246,1.846,1.846,0,0,1-1.954-2,1.929,1.929,0,0,1,1.863-2.143,1.684,1.684,0,0,1,1.643,1.872,2.721,2.721,0,0,1-.025.336Zm2.118-.516a1.029,1.029,0,0,0-1-1.174,1.2,1.2,0,0,0-1.108,1.174Z"/>
    <path d="M102.71,283.773v.534h-2.028v-.534Z"/>
    <path d="M106.534,286.113a2.656,2.656,0,0,1-1.141.23,1.888,1.888,0,0,1-1.979-2.028,2.019,2.019,0,0,1,2.134-2.11,2.442,2.442,0,0,1,1,.205l-.164.559a1.674,1.674,0,0,0-.838-.189,1.5,1.5,0,0,0-.024,2.989,2.053,2.053,0,0,0,.886-.2Z"/>
    <path d="M110.923,284.241a1.942,1.942,0,0,1-1.979,2.11,1.889,1.889,0,0,1-1.9-2.044,1.94,1.94,0,0,1,1.97-2.11A1.882,1.882,0,0,1,110.923,284.241Zm-3.152.041c0,.87.5,1.528,1.207,1.528.689,0,1.206-.649,1.206-1.544,0-.673-.336-1.527-1.19-1.527S107.771,283.527,107.771,284.282Z"/>
    <path d="M111.831,283.363c0-.411-.008-.747-.033-1.076h.633l.032.641h.025a1.368,1.368,0,0,1,1.248-.731,1.174,1.174,0,0,1,1.124.8h.017a1.626,1.626,0,0,1,.443-.516,1.355,1.355,0,0,1,.879-.28c.525,0,1.305.345,1.305,1.724v2.34H116.8v-2.249c0-.764-.279-1.224-.862-1.224a.935.935,0,0,0-.854.657,1.189,1.189,0,0,0-.058.362v2.454h-.706V283.88c0-.632-.278-1.092-.829-1.092a1.08,1.08,0,0,0-.952,1.075v2.4h-.706Z"/>
    <path d="M118.673,283.363c0-.411-.008-.747-.033-1.076h.632l.033.641h.025a1.368,1.368,0,0,1,1.248-.731,1.174,1.174,0,0,1,1.124.8h.017a1.626,1.626,0,0,1,.443-.516,1.355,1.355,0,0,1,.879-.28c.525,0,1.305.345,1.305,1.724v2.34h-.706v-2.249c0-.764-.28-1.224-.862-1.224a.935.935,0,0,0-.854.657,1.189,1.189,0,0,0-.058.362v2.454h-.706V283.88c0-.632-.279-1.092-.829-1.092a1.08,1.08,0,0,0-.952,1.075v2.4h-.706Z"/>
    <path d="M125.917,284.4a1.273,1.273,0,0,0,1.363,1.379,2.613,2.613,0,0,0,1.1-.2l.123.518a3.213,3.213,0,0,1-1.321.246,1.845,1.845,0,0,1-1.954-2,1.929,1.929,0,0,1,1.863-2.143,1.683,1.683,0,0,1,1.642,1.872,2.534,2.534,0,0,1-.025.336Zm2.119-.516a1.029,1.029,0,0,0-1-1.174,1.2,1.2,0,0,0-1.108,1.174Z"/>
    <path d="M129.625,283.527c0-.467-.008-.87-.033-1.24h.633l.024.78h.033a1.191,1.191,0,0,1,1.1-.87.757.757,0,0,1,.2.025v.681a1.114,1.114,0,0,0-.246-.024,1.014,1.014,0,0,0-.969.928,2.055,2.055,0,0,0-.033.336v2.118h-.714Z"/>
    <path d="M135.058,286.113a2.656,2.656,0,0,1-1.141.23,1.888,1.888,0,0,1-1.979-2.028,2.02,2.02,0,0,1,2.135-2.11,2.437,2.437,0,0,1,1,.205l-.164.559a1.667,1.667,0,0,0-.837-.189,1.5,1.5,0,0,0-.025,2.989,2.062,2.062,0,0,0,.887-.2Z"/>
    <path d="M136.254,284.4a1.273,1.273,0,0,0,1.363,1.379,2.613,2.613,0,0,0,1.1-.2l.123.518a3.222,3.222,0,0,1-1.322.246,1.846,1.846,0,0,1-1.954-2,1.93,1.93,0,0,1,1.864-2.143,1.684,1.684,0,0,1,1.642,1.872,2.721,2.721,0,0,1-.025.336Zm2.118-.516a1.029,1.029,0,0,0-1-1.174,1.2,1.2,0,0,0-1.109,1.174Z"/>
    <path d="M145.937,286.015a5.187,5.187,0,0,1-1.7.3,2.6,2.6,0,0,1-2.84-2.791,2.775,2.775,0,0,1,3-2.857,3.408,3.408,0,0,1,1.378.255l-.172.583a2.856,2.856,0,0,0-1.223-.238,2.069,2.069,0,0,0-2.225,2.224,2.029,2.029,0,0,0,2.135,2.234,2.323,2.323,0,0,0,.952-.149V283.93h-1.125v-.576h1.823Z"/>
    <path d="M147,283.363c0-.411-.008-.747-.032-1.076h.632l.033.641h.024a1.371,1.371,0,0,1,1.248-.731,1.175,1.175,0,0,1,1.125.8h.016a1.616,1.616,0,0,1,.444-.516,1.352,1.352,0,0,1,.878-.28c.526,0,1.305.345,1.305,1.724v2.34h-.706v-2.249c0-.764-.279-1.224-.862-1.224a.937.937,0,0,0-.854.657,1.221,1.221,0,0,0-.057.362v2.454h-.706V283.88c0-.632-.279-1.092-.829-1.092a1.076,1.076,0,0,0-.952,1.075v2.4H147Z"/>
    <path d="M153.81,286.261c.016-.271.032-.673.032-1.027v-4.8h.715v2.5h.016a1.479,1.479,0,0,1,1.355-.731c.985,0,1.682.822,1.674,2.028a1.887,1.887,0,0,1-1.781,2.126,1.416,1.416,0,0,1-1.33-.747h-.025l-.032.657Zm.747-1.593a1.381,1.381,0,0,0,.032.263,1.114,1.114,0,0,0,1.084.845c.755,0,1.207-.615,1.207-1.527,0-.8-.411-1.478-1.182-1.478a1.152,1.152,0,0,0-1.1.887,1.389,1.389,0,0,0-.041.3Z"/>
    <path d="M159.249,280.728v2.315h2.676v-2.315h.723v5.533h-.723v-2.594h-2.676v2.594h-.714v-5.533Z"/>
    <path d="M165.623,280.8a6.888,6.888,0,0,1,1.305-.115,2.287,2.287,0,0,1,1.519.4,1.162,1.162,0,0,1,.46.976,1.314,1.314,0,0,1-.936,1.216v.016a1.427,1.427,0,0,1,1.141,1.388,1.493,1.493,0,0,1-.468,1.108,2.78,2.78,0,0,1-1.913.517,8.31,8.31,0,0,1-1.108-.066Zm.714,2.265h.649c.755,0,1.2-.394,1.2-.927,0-.649-.493-.9-1.215-.9a3.1,3.1,0,0,0-.632.05Zm0,2.652a3.9,3.9,0,0,0,.6.033c.738,0,1.419-.272,1.419-1.075,0-.756-.648-1.068-1.428-1.068h-.591Z"/>
    <path d="M170.479,284.4a1.273,1.273,0,0,0,1.363,1.379,2.613,2.613,0,0,0,1.1-.2l.123.518a3.213,3.213,0,0,1-1.321.246,1.846,1.846,0,0,1-1.954-2,1.929,1.929,0,0,1,1.863-2.143,1.683,1.683,0,0,1,1.642,1.872,2.764,2.764,0,0,1-.024.336Zm2.119-.516a1.029,1.029,0,0,0-1-1.174,1.2,1.2,0,0,0-1.108,1.174Z"/>
    <path d="M174.187,283.527c0-.467-.008-.87-.033-1.24h.633l.024.78h.033a1.191,1.191,0,0,1,1.1-.87.757.757,0,0,1,.205.025v.681a1.114,1.114,0,0,0-.246-.024,1.014,1.014,0,0,0-.969.928,2.055,2.055,0,0,0-.033.336v2.118h-.714Z"/>
    <path d="M176.9,280.433h.723v5.828H176.9Z"/>
    <path d="M179.643,281.171a.448.448,0,0,1-.9,0,.44.44,0,0,1,.452-.451A.428.428,0,0,1,179.643,281.171Zm-.805,5.09v-3.974h.723v3.974Z"/>
    <path d="M180.758,283.363c0-.411-.008-.747-.032-1.076h.64l.041.657h.016a1.462,1.462,0,0,1,1.314-.747c.55,0,1.4.328,1.4,1.692v2.372h-.723v-2.29c0-.641-.238-1.174-.919-1.174a1.025,1.025,0,0,0-.969.738,1.041,1.041,0,0,0-.049.337v2.389h-.723Z"/>
    <path d="M191.287,286.015a5.193,5.193,0,0,1-1.7.3,2.6,2.6,0,0,1-2.84-2.791,2.775,2.775,0,0,1,3-2.857,3.418,3.418,0,0,1,1.379.255l-.172.583a2.86,2.86,0,0,0-1.223-.238,2.068,2.068,0,0,0-2.225,2.224,2.029,2.029,0,0,0,2.134,2.234,2.332,2.332,0,0,0,.953-.149V283.93h-1.125v-.576h1.823Z"/>
    <path d="M192.793,284.4a1.273,1.273,0,0,0,1.363,1.379,2.613,2.613,0,0,0,1.1-.2l.123.518a3.218,3.218,0,0,1-1.322.246,1.845,1.845,0,0,1-1.953-2,1.929,1.929,0,0,1,1.863-2.143,1.684,1.684,0,0,1,1.642,1.872,2.721,2.721,0,0,1-.025.336Zm2.118-.516a1.029,1.029,0,0,0-1-1.174,1.2,1.2,0,0,0-1.109,1.174Z"/>
    <path d="M196.5,283.527c0-.467-.008-.87-.033-1.24h.633l.024.78h.033a1.191,1.191,0,0,1,1.1-.87.757.757,0,0,1,.2.025v.681a1.114,1.114,0,0,0-.246-.024,1.014,1.014,0,0,0-.969.928,2.055,2.055,0,0,0-.033.336v2.118H196.5Z"/>
    <path d="M199.216,283.363c0-.411-.008-.747-.032-1.076h.632l.033.641h.024a1.369,1.369,0,0,1,1.248-.731,1.175,1.175,0,0,1,1.125.8h.016a1.616,1.616,0,0,1,.444-.516,1.35,1.35,0,0,1,.878-.28c.525,0,1.305.345,1.305,1.724v2.34h-.706v-2.249c0-.764-.279-1.224-.862-1.224a.936.936,0,0,0-.854.657,1.221,1.221,0,0,0-.057.362v2.454H201.7V283.88c0-.632-.279-1.092-.829-1.092a1.08,1.08,0,0,0-.953,1.075v2.4h-.706Z"/>
    <path d="M208.258,286.261l-.057-.5h-.025a1.478,1.478,0,0,1-1.215.591,1.133,1.133,0,0,1-1.215-1.141c0-.961.854-1.486,2.389-1.478v-.082a.819.819,0,0,0-.9-.92,1.985,1.985,0,0,0-1.034.3l-.164-.476a2.467,2.467,0,0,1,1.305-.353c1.215,0,1.511.829,1.511,1.625v1.487a5.629,5.629,0,0,0,.065.952Zm-.107-2.028c-.788-.016-1.682.123-1.682.895a.639.639,0,0,0,.681.689.987.987,0,0,0,.96-.665.743.743,0,0,0,.041-.229Z"/>
    <path d="M210.012,283.363c0-.411-.008-.747-.033-1.076h.641l.041.657h.016a1.462,1.462,0,0,1,1.314-.747c.55,0,1.4.328,1.4,1.692v2.372h-.723v-2.29c0-.641-.238-1.174-.919-1.174a1.025,1.025,0,0,0-.969.738,1.041,1.041,0,0,0-.049.337v2.389h-.723Z"/>
    <path d="M214.722,282.287l.87,2.349c.09.262.189.574.255.812h.016c.074-.238.156-.542.254-.829l.788-2.332h.764l-1.084,2.833a6.058,6.058,0,0,1-1.362,2.487,1.958,1.958,0,0,1-.887.468l-.181-.607a1.923,1.923,0,0,0,.633-.354,2.183,2.183,0,0,0,.607-.8.518.518,0,0,0,.058-.172.632.632,0,0,0-.05-.189l-1.469-3.662Z"/>
    <path d="M12.675,291.18H10.992v-.608h4.1v.608H13.4v4.925h-.722Z"/>
    <path d="M15.619,290.277h.723v2.479h.016a1.346,1.346,0,0,1,.517-.509,1.49,1.49,0,0,1,.739-.205c.534,0,1.387.328,1.387,1.7v2.364h-.722v-2.282c0-.64-.238-1.181-.919-1.181a1.038,1.038,0,0,0-.969.721.877.877,0,0,0-.049.345v2.4h-.723Z"/>
    <path d="M20.977,291.016a.448.448,0,0,1-.895,0,.441.441,0,0,1,.451-.452A.43.43,0,0,1,20.977,291.016Zm-.8,5.089v-3.973H20.9v3.973Z"/>
    <path d="M21.994,295.366a1.884,1.884,0,0,0,.952.288c.525,0,.771-.262.771-.591,0-.345-.2-.534-.738-.731-.715-.254-1.051-.648-1.051-1.124a1.225,1.225,0,0,1,1.371-1.166,1.982,1.982,0,0,1,.976.246l-.18.525a1.551,1.551,0,0,0-.813-.229c-.427,0-.665.246-.665.542,0,.328.238.476.756.673.689.263,1.042.607,1.042,1.2,0,.7-.541,1.191-1.486,1.191a2.266,2.266,0,0,1-1.116-.271Z"/>
    <path d="M26.981,295.366a1.891,1.891,0,0,0,.953.288c.525,0,.771-.262.771-.591,0-.345-.2-.534-.739-.731-.714-.254-1.05-.648-1.05-1.124a1.225,1.225,0,0,1,1.371-1.166,1.982,1.982,0,0,1,.976.246l-.18.525a1.551,1.551,0,0,0-.813-.229c-.427,0-.665.246-.665.542,0,.328.238.476.755.673.69.263,1.043.607,1.043,1.2,0,.7-.542,1.191-1.486,1.191a2.266,2.266,0,0,1-1.116-.271Z"/>
    <path d="M33.924,294.086a1.941,1.941,0,0,1-1.979,2.109,1.889,1.889,0,0,1-1.9-2.044,1.94,1.94,0,0,1,1.97-2.109A1.882,1.882,0,0,1,33.924,294.086Zm-3.153.041c0,.87.5,1.527,1.208,1.527.689,0,1.206-.648,1.206-1.544,0-.672-.336-1.526-1.19-1.526S30.771,293.372,30.771,294.127Z"/>
    <path d="M34.906,296.105v-3.422h-.558v-.551h.558v-.189a1.871,1.871,0,0,1,.46-1.387,1.38,1.38,0,0,1,.968-.369,1.661,1.661,0,0,1,.616.115l-.1.557a1.1,1.1,0,0,0-.46-.089c-.616,0-.772.542-.772,1.149v.213h.961v.551H35.62v3.422Z"/>
    <path d="M38.188,290.991v1.141h1.034v.551H38.188v2.142c0,.492.139.772.541.772a1.584,1.584,0,0,0,.419-.05l.033.542a1.773,1.773,0,0,1-.64.1,1,1,0,0,1-.78-.3,1.474,1.474,0,0,1-.279-1.034v-2.167h-.616v-.551h.616v-.952Z"/>
    <path d="M40.394,292.132l.525,2.019c.115.444.222.855.3,1.265h.024c.091-.4.222-.829.353-1.256l.649-2.028h.608l.615,1.987c.148.476.263.895.353,1.3h.025a11.664,11.664,0,0,1,.3-1.289l.566-2h.714l-1.28,3.973h-.657l-.608-1.9a13.5,13.5,0,0,1-.353-1.305h-.016a11.851,11.851,0,0,1-.361,1.314l-.641,1.887h-.656l-1.2-3.973Z"/>
    <path d="M48.312,296.105l-.058-.5H48.23a1.477,1.477,0,0,1-1.215.591,1.131,1.131,0,0,1-1.215-1.14c0-.961.854-1.487,2.389-1.478V293.5a.819.819,0,0,0-.9-.92,1.982,1.982,0,0,0-1.035.3l-.164-.476a2.474,2.474,0,0,1,1.306-.353c1.214,0,1.51.829,1.51,1.625v1.486a5.505,5.505,0,0,0,.066.952Zm-.107-2.027c-.788-.016-1.683.123-1.683.9a.639.639,0,0,0,.682.689.988.988,0,0,0,.96-.665.738.738,0,0,0,.041-.229Z"/>
    <path d="M50.066,293.372c0-.468-.008-.87-.033-1.24h.633l.024.78h.033a1.191,1.191,0,0,1,1.1-.87.8.8,0,0,1,.2.024v.682a1.057,1.057,0,0,0-.246-.024,1.013,1.013,0,0,0-.969.927,2.067,2.067,0,0,0-.033.336v2.118h-.714Z"/>
    <path d="M53.069,294.25a1.272,1.272,0,0,0,1.363,1.379,2.613,2.613,0,0,0,1.1-.205l.123.517a3.2,3.2,0,0,1-1.322.247,1.846,1.846,0,0,1-1.954-2,1.929,1.929,0,0,1,1.864-2.143,1.684,1.684,0,0,1,1.642,1.872,2.721,2.721,0,0,1-.025.336Zm2.118-.517a1.029,1.029,0,0,0-1-1.174,1.2,1.2,0,0,0-1.109,1.174Z"/>
    <path d="M59.32,291.016a.448.448,0,0,1-.9,0,.441.441,0,0,1,.452-.452A.429.429,0,0,1,59.32,291.016Zm-.8,5.089v-3.973h.722v3.973Z"/>
    <path d="M60.337,295.366a1.887,1.887,0,0,0,.952.288c.525,0,.772-.262.772-.591,0-.345-.206-.534-.739-.731-.715-.254-1.051-.648-1.051-1.124a1.225,1.225,0,0,1,1.371-1.166,1.989,1.989,0,0,1,.977.246l-.181.525a1.551,1.551,0,0,0-.813-.229c-.426,0-.665.246-.665.542,0,.328.239.476.756.673.689.263,1.042.607,1.042,1.2,0,.7-.541,1.191-1.486,1.191a2.266,2.266,0,0,1-1.116-.271Z"/>
    <path d="M65.325,295.366a1.887,1.887,0,0,0,.952.288c.525,0,.771-.262.771-.591,0-.345-.2-.534-.738-.731-.715-.254-1.051-.648-1.051-1.124a1.225,1.225,0,0,1,1.371-1.166,1.982,1.982,0,0,1,.976.246l-.18.525a1.551,1.551,0,0,0-.813-.229c-.426,0-.665.246-.665.542,0,.328.239.476.756.673.689.263,1.042.607,1.042,1.2,0,.7-.541,1.191-1.486,1.191a2.266,2.266,0,0,1-1.116-.271Z"/>
    <path d="M72,295.021c0,.412.008.773.033,1.084h-.64l-.041-.648h-.016a1.5,1.5,0,0,1-1.314.738c-.624,0-1.371-.344-1.371-1.74v-2.323h.722v2.2c0,.756.23,1.265.887,1.265a1.019,1.019,0,0,0,1.018-1.027v-2.438H72Z"/>
    <path d="M73.159,296.105c.017-.27.033-.672.033-1.026v-4.8h.714v2.5h.017a1.479,1.479,0,0,1,1.354-.73,1.783,1.783,0,0,1,1.675,2.027A1.888,1.888,0,0,1,75.17,296.2a1.412,1.412,0,0,1-1.329-.746h-.025l-.033.656Zm.747-1.592a1.37,1.37,0,0,0,.033.262,1.115,1.115,0,0,0,1.083.846c.756,0,1.207-.615,1.207-1.527,0-.8-.41-1.478-1.182-1.478a1.153,1.153,0,0,0-1.1.887,1.456,1.456,0,0,0-.041.3Z"/>
    <path d="M76.891,297.255a1.168,1.168,0,0,0,.788-.3c.2-.23.271-.542.271-1.494v-3.325h.723v3.6a2.179,2.179,0,0,1-.476,1.634,1.841,1.841,0,0,1-1.232.451Zm1.864-6.239a.424.424,0,0,1-.452.443.431.431,0,0,1-.443-.443.443.443,0,0,1,.46-.452A.427.427,0,0,1,78.755,291.016Z"/>
    <path d="M80.255,294.25a1.273,1.273,0,0,0,1.363,1.379,2.613,2.613,0,0,0,1.1-.205l.123.517a3.193,3.193,0,0,1-1.321.247,1.845,1.845,0,0,1-1.954-2,1.929,1.929,0,0,1,1.863-2.143,1.683,1.683,0,0,1,1.642,1.872,2.534,2.534,0,0,1-.025.336Zm2.119-.517a1.029,1.029,0,0,0-1-1.174,1.2,1.2,0,0,0-1.108,1.174Z"/>
    <path d="M86.8,295.958a2.656,2.656,0,0,1-1.141.23,1.888,1.888,0,0,1-1.979-2.028,2.02,2.02,0,0,1,2.135-2.11,2.424,2.424,0,0,1,1,.2l-.164.558a1.679,1.679,0,0,0-.837-.188,1.5,1.5,0,0,0-.025,2.988,2.055,2.055,0,0,0,.886-.2Z"/>
    <path d="M88.615,290.991v1.141H89.65v.551H88.615v2.142c0,.492.14.772.542.772a1.584,1.584,0,0,0,.419-.05l.033.542a1.779,1.779,0,0,1-.641.1,1,1,0,0,1-.78-.3,1.475,1.475,0,0,1-.278-1.034v-2.167h-.616v-.551h.616v-.952Z"/>
    <path d="M93.069,290.991v1.141H94.1v.551H93.069v2.142c0,.492.14.772.542.772a1.584,1.584,0,0,0,.419-.05l.033.542a1.779,1.779,0,0,1-.641.1,1,1,0,0,1-.779-.3,1.474,1.474,0,0,1-.279-1.034v-2.167h-.616v-.551h.616v-.952Z"/>
    <path d="M98.461,294.086a1.941,1.941,0,0,1-1.978,2.109,1.889,1.889,0,0,1-1.9-2.044,1.94,1.94,0,0,1,1.97-2.109A1.881,1.881,0,0,1,98.461,294.086Zm-3.152.041c0,.87.5,1.527,1.207,1.527.69,0,1.207-.648,1.207-1.544,0-.672-.337-1.526-1.191-1.526S95.309,293.372,95.309,294.127Z"/>
    <path d="M101.979,290.991v1.141h1.034v.551h-1.034v2.142c0,.492.139.772.542.772a1.582,1.582,0,0,0,.418-.05l.033.542a1.773,1.773,0,0,1-.64.1,1,1,0,0,1-.78-.3,1.474,1.474,0,0,1-.279-1.034v-2.167h-.616v-.551h.616v-.952Z"/>
    <path d="M103.824,290.277h.722v2.479h.017a1.339,1.339,0,0,1,.517-.509,1.487,1.487,0,0,1,.739-.205c.534,0,1.387.328,1.387,1.7v2.364h-.722v-2.282c0-.64-.238-1.181-.92-1.181a1.037,1.037,0,0,0-.968.721.876.876,0,0,0-.05.345v2.4h-.722Z"/>
    <path d="M108.779,294.25a1.273,1.273,0,0,0,1.363,1.379,2.613,2.613,0,0,0,1.1-.205l.123.517a3.194,3.194,0,0,1-1.322.247,1.845,1.845,0,0,1-1.953-2,1.929,1.929,0,0,1,1.863-2.143,1.684,1.684,0,0,1,1.642,1.872,2.534,2.534,0,0,1-.025.336Zm2.118-.517a1.028,1.028,0,0,0-1-1.174,1.2,1.2,0,0,0-1.108,1.174Z"/>
    <path d="M114.226,290.277h.723v5.828h-.723Z"/>
    <path d="M116.967,291.016a.448.448,0,0,1-.895,0,.441.441,0,0,1,.451-.452A.43.43,0,0,1,116.967,291.016Zm-.8,5.089v-3.973h.723v3.973Z"/>
    <path d="M120.914,295.958a2.652,2.652,0,0,1-1.141.23,1.888,1.888,0,0,1-1.979-2.028,2.02,2.02,0,0,1,2.135-2.11,2.424,2.424,0,0,1,1,.2l-.164.558a1.679,1.679,0,0,0-.837-.188,1.5,1.5,0,0,0-.025,2.988,2.063,2.063,0,0,0,.887-.2Z"/>
    <path d="M122.11,294.25a1.273,1.273,0,0,0,1.363,1.379,2.613,2.613,0,0,0,1.1-.205l.123.517a3.193,3.193,0,0,1-1.321.247,1.845,1.845,0,0,1-1.954-2,1.929,1.929,0,0,1,1.863-2.143,1.683,1.683,0,0,1,1.642,1.872,2.534,2.534,0,0,1-.025.336Zm2.119-.517a1.029,1.029,0,0,0-1-1.174,1.2,1.2,0,0,0-1.108,1.174Z"/>
    <path d="M125.818,293.208c0-.411-.008-.747-.033-1.076h.64l.042.657h.016a1.46,1.46,0,0,1,1.313-.747c.551,0,1.4.328,1.4,1.691v2.372h-.722v-2.29c0-.64-.238-1.173-.919-1.173a1.025,1.025,0,0,0-.969.738,1.041,1.041,0,0,0-.049.337v2.388h-.723Z"/>
    <path d="M130.272,295.366a1.891,1.891,0,0,0,.953.288c.525,0,.771-.262.771-.591,0-.345-.205-.534-.739-.731-.714-.254-1.05-.648-1.05-1.124a1.225,1.225,0,0,1,1.371-1.166,1.982,1.982,0,0,1,.976.246l-.18.525a1.551,1.551,0,0,0-.813-.229c-.427,0-.665.246-.665.542,0,.328.238.476.755.673.69.263,1.043.607,1.043,1.2,0,.7-.542,1.191-1.486,1.191a2.266,2.266,0,0,1-1.116-.271Z"/>
    <path d="M134.022,294.25a1.272,1.272,0,0,0,1.363,1.379,2.613,2.613,0,0,0,1.1-.205l.123.517a3.2,3.2,0,0,1-1.322.247,1.845,1.845,0,0,1-1.953-2,1.929,1.929,0,0,1,1.863-2.143,1.684,1.684,0,0,1,1.642,1.872,2.721,2.721,0,0,1-.025.336Zm2.118-.517a1.029,1.029,0,0,0-1-1.174,1.2,1.2,0,0,0-1.109,1.174Z"/>
    <path d="M141.669,296.105l-.058-.5h-.024a1.478,1.478,0,0,1-1.215.591,1.131,1.131,0,0,1-1.215-1.14c0-.961.854-1.487,2.389-1.478V293.5a.819.819,0,0,0-.9-.92,1.979,1.979,0,0,0-1.035.3l-.164-.476a2.471,2.471,0,0,1,1.306-.353c1.214,0,1.51.829,1.51,1.625v1.486a5.505,5.505,0,0,0,.066.952Zm-.106-2.027c-.789-.016-1.684.123-1.684.9a.639.639,0,0,0,.682.689.988.988,0,0,0,.96-.665.739.739,0,0,0,.042-.229Z"/>
    <path d="M146.846,292.132c-.016.288-.033.607-.033,1.092v2.307a2.284,2.284,0,0,1-.566,1.814,2.108,2.108,0,0,1-1.445.476,2.572,2.572,0,0,1-1.322-.328l.181-.551a2.233,2.233,0,0,0,1.166.313c.738,0,1.28-.386,1.28-1.388v-.443h-.016a1.418,1.418,0,0,1-1.264.665,1.776,1.776,0,0,1-1.691-1.938,1.907,1.907,0,0,1,1.789-2.109,1.322,1.322,0,0,1,1.24.689h.016l.033-.6ZM146.1,293.7a1.024,1.024,0,0,0-.041-.328,1.04,1.04,0,0,0-1.01-.764c-.689,0-1.182.583-1.182,1.5,0,.781.394,1.429,1.174,1.429a1.057,1.057,0,0,0,1-.739,1.259,1.259,0,0,0,.057-.386Z"/>
    <path d="M147.959,293.372c0-.468-.008-.87-.032-1.24h.632l.024.78h.033a1.193,1.193,0,0,1,1.1-.87.809.809,0,0,1,.206.024v.682a1.06,1.06,0,0,0-.247-.024,1.012,1.012,0,0,0-.968.927,1.961,1.961,0,0,0-.033.336v2.118h-.715Z"/>
    <path d="M150.962,294.25a1.273,1.273,0,0,0,1.363,1.379,2.613,2.613,0,0,0,1.1-.205l.123.517a3.193,3.193,0,0,1-1.321.247,1.845,1.845,0,0,1-1.954-2,1.929,1.929,0,0,1,1.863-2.143,1.683,1.683,0,0,1,1.642,1.872,2.534,2.534,0,0,1-.025.336Zm2.119-.517a1.029,1.029,0,0,0-1-1.174,1.2,1.2,0,0,0-1.108,1.174Z"/>
    <path d="M155.072,294.25a1.273,1.273,0,0,0,1.363,1.379,2.613,2.613,0,0,0,1.1-.205l.123.517a3.194,3.194,0,0,1-1.322.247,1.845,1.845,0,0,1-1.953-2,1.929,1.929,0,0,1,1.863-2.143,1.684,1.684,0,0,1,1.642,1.872,2.534,2.534,0,0,1-.025.336Zm2.118-.517a1.028,1.028,0,0,0-1-1.174,1.2,1.2,0,0,0-1.108,1.174Z"/>
    <path d="M158.78,293.208c0-.411-.009-.747-.033-1.076h.632l.033.64h.025a1.369,1.369,0,0,1,1.248-.73,1.174,1.174,0,0,1,1.124.8h.017a1.618,1.618,0,0,1,.443-.517,1.359,1.359,0,0,1,.878-.279c.526,0,1.306.345,1.306,1.724v2.339h-.706v-2.249c0-.763-.28-1.223-.862-1.223a.935.935,0,0,0-.854.657,1.187,1.187,0,0,0-.058.361v2.454h-.705v-2.38c0-.632-.28-1.092-.83-1.092a.988.988,0,0,0-.895.722,1,1,0,0,0-.057.353v2.4h-.706Z"/>
    <path d="M166.024,294.25a1.273,1.273,0,0,0,1.363,1.379,2.613,2.613,0,0,0,1.1-.205l.123.517a3.193,3.193,0,0,1-1.321.247,1.845,1.845,0,0,1-1.954-2,1.929,1.929,0,0,1,1.863-2.143,1.683,1.683,0,0,1,1.642,1.872,2.534,2.534,0,0,1-.025.336Zm2.119-.517a1.029,1.029,0,0,0-1-1.174,1.2,1.2,0,0,0-1.108,1.174Z"/>
    <path d="M169.732,293.208c0-.411-.008-.747-.033-1.076h.64l.042.657h.016a1.46,1.46,0,0,1,1.313-.747c.551,0,1.4.328,1.4,1.691v2.372h-.722v-2.29c0-.64-.238-1.173-.919-1.173a1.025,1.025,0,0,0-.969.738,1.041,1.041,0,0,0-.049.337v2.388h-.723Z"/>
    <path d="M175.123,290.991v1.141h1.034v.551h-1.034v2.142c0,.492.139.772.542.772a1.576,1.576,0,0,0,.418-.05l.033.542a1.773,1.773,0,0,1-.64.1,1,1,0,0,1-.78-.3,1.474,1.474,0,0,1-.279-1.034v-2.167H173.8v-.551h.616v-.952Z"/>
    <path d="M178.608,295.366a1.891,1.891,0,0,0,.953.288c.525,0,.771-.262.771-.591,0-.345-.2-.534-.739-.731-.714-.254-1.051-.648-1.051-1.124a1.226,1.226,0,0,1,1.372-1.166,1.982,1.982,0,0,1,.976.246l-.18.525a1.551,1.551,0,0,0-.813-.229c-.427,0-.665.246-.665.542,0,.328.238.476.755.673.69.263,1.043.607,1.043,1.2,0,.7-.542,1.191-1.486,1.191a2.266,2.266,0,0,1-1.116-.271Z"/>
    <path d="M182.358,294.25a1.272,1.272,0,0,0,1.363,1.379,2.613,2.613,0,0,0,1.1-.205l.123.517a3.2,3.2,0,0,1-1.322.247,1.846,1.846,0,0,1-1.954-2,1.93,1.93,0,0,1,1.864-2.143,1.684,1.684,0,0,1,1.642,1.872,2.721,2.721,0,0,1-.025.336Zm2.118-.517a1.029,1.029,0,0,0-1-1.174,1.2,1.2,0,0,0-1.109,1.174Z"/>
    <path d="M186.936,290.991v1.141h1.034v.551h-1.034v2.142c0,.492.139.772.542.772a1.576,1.576,0,0,0,.418-.05l.033.542a1.773,1.773,0,0,1-.64.1,1,1,0,0,1-.78-.3,1.474,1.474,0,0,1-.279-1.034v-2.167h-.616v-.551h.616v-.952Z"/>
    <path d="M190.594,296.105v-3.422h-.558v-.551h.558v-.189a1.871,1.871,0,0,1,.46-1.387,1.38,1.38,0,0,1,.968-.369,1.661,1.661,0,0,1,.616.115l-.1.557a1.1,1.1,0,0,0-.46-.089c-.616,0-.772.542-.772,1.149v.213h.961v.551h-.961v3.422Z"/>
    <path d="M196.4,294.086a1.941,1.941,0,0,1-1.978,2.109,1.889,1.889,0,0,1-1.905-2.044,1.941,1.941,0,0,1,1.971-2.109A1.881,1.881,0,0,1,196.4,294.086Zm-3.152.041c0,.87.5,1.527,1.207,1.527.689,0,1.207-.648,1.207-1.544,0-.672-.337-1.526-1.191-1.526S193.252,293.372,193.252,294.127Z"/>
    <path d="M197.313,293.372c0-.468-.008-.87-.033-1.24h.632l.025.78h.032a1.193,1.193,0,0,1,1.1-.87.8.8,0,0,1,.205.024v.682a1.045,1.045,0,0,0-.246-.024,1.012,1.012,0,0,0-.968.927,1.961,1.961,0,0,0-.033.336v2.118h-.714Z"/>
    <path d="M201.062,290.991v1.141H202.1v.551h-1.035v2.142c0,.492.14.772.542.772a1.57,1.57,0,0,0,.418-.05l.034.542a1.783,1.783,0,0,1-.641.1,1,1,0,0,1-.78-.3,1.474,1.474,0,0,1-.279-1.034v-2.167h-.615v-.551h.615v-.952Z"/>
    <path d="M202.907,290.277h.723v2.479h.016a1.342,1.342,0,0,1,.518-.509,1.483,1.483,0,0,1,.738-.205c.534,0,1.388.328,1.388,1.7v2.364h-.723v-2.282c0-.64-.238-1.181-.919-1.181a1.039,1.039,0,0,0-.969.721.877.877,0,0,0-.049.345v2.4h-.723Z"/>
    <path d="M210,291.016a.448.448,0,0,1-.895,0,.441.441,0,0,1,.452-.452A.429.429,0,0,1,210,291.016Zm-.8,5.089v-3.973h.722v3.973Z"/>
    <path d="M211.119,293.208c0-.411-.008-.747-.033-1.076h.641l.041.657h.016a1.461,1.461,0,0,1,1.314-.747c.55,0,1.4.328,1.4,1.691v2.372h-.722v-2.29c0-.64-.238-1.173-.919-1.173a1.025,1.025,0,0,0-.969.738,1.041,1.041,0,0,0-.049.337v2.388h-.723Z"/>
    <path d="M218.281,290.991v1.141h1.035v.551h-1.035v2.142c0,.492.14.772.542.772a1.584,1.584,0,0,0,.419-.05l.033.542a1.779,1.779,0,0,1-.641.1,1,1,0,0,1-.78-.3,1.475,1.475,0,0,1-.278-1.034v-2.167h-.616v-.551h.616v-.952Z"/>
    <path d="M220.126,290.277h.723v2.479h.016a1.342,1.342,0,0,1,.518-.509,1.487,1.487,0,0,1,.739-.205c.533,0,1.387.328,1.387,1.7v2.364h-.722v-2.282c0-.64-.239-1.181-.92-1.181a1.039,1.039,0,0,0-.969.721.877.877,0,0,0-.049.345v2.4h-.723Z"/>
    <path d="M225.082,294.25a1.273,1.273,0,0,0,1.363,1.379,2.613,2.613,0,0,0,1.1-.205l.123.517a3.194,3.194,0,0,1-1.322.247,1.845,1.845,0,0,1-1.953-2,1.929,1.929,0,0,1,1.863-2.143,1.684,1.684,0,0,1,1.642,1.872,2.721,2.721,0,0,1-.025.336Zm2.118-.517a1.029,1.029,0,0,0-1-1.174,1.2,1.2,0,0,0-1.109,1.174Z"/>
    <path d="M230.529,290.277h.722v5.828h-.722Z"/>
    <path d="M233.27,291.016a.448.448,0,0,1-.9,0,.44.44,0,0,1,.451-.452A.43.43,0,0,1,233.27,291.016Zm-.805,5.089v-3.973h.723v3.973Z"/>
    <path d="M237.217,295.958a2.656,2.656,0,0,1-1.141.23,1.888,1.888,0,0,1-1.979-2.028,2.019,2.019,0,0,1,2.134-2.11,2.426,2.426,0,0,1,1,.2l-.164.558a1.687,1.687,0,0,0-.838-.188,1.5,1.5,0,0,0-.024,2.988,2.055,2.055,0,0,0,.886-.2Z"/>
    <path d="M238.413,294.25a1.272,1.272,0,0,0,1.362,1.379,2.613,2.613,0,0,0,1.1-.205l.124.517a3.2,3.2,0,0,1-1.322.247,1.846,1.846,0,0,1-1.954-2,1.929,1.929,0,0,1,1.863-2.143,1.684,1.684,0,0,1,1.643,1.872,2.721,2.721,0,0,1-.025.336Zm2.118-.517a1.029,1.029,0,0,0-1-1.174,1.2,1.2,0,0,0-1.108,1.174Z"/>
    <path d="M242.121,293.208c0-.411-.009-.747-.033-1.076h.64l.042.657h.016a1.459,1.459,0,0,1,1.313-.747c.55,0,1.4.328,1.4,1.691v2.372h-.722v-2.29c0-.64-.239-1.173-.92-1.173a1.025,1.025,0,0,0-.968.738,1.013,1.013,0,0,0-.05.337v2.388h-.722Z"/>
    <path d="M246.575,295.366a1.89,1.89,0,0,0,.952.288c.526,0,.772-.262.772-.591,0-.345-.205-.534-.739-.731-.714-.254-1.051-.648-1.051-1.124a1.225,1.225,0,0,1,1.371-1.166,1.983,1.983,0,0,1,.977.246l-.18.525a1.554,1.554,0,0,0-.813-.229c-.427,0-.665.246-.665.542,0,.328.238.476.755.673.69.263,1.043.607,1.043,1.2,0,.7-.542,1.191-1.486,1.191a2.263,2.263,0,0,1-1.116-.271Z"/>
    <path d="M250.325,294.25a1.272,1.272,0,0,0,1.363,1.379,2.613,2.613,0,0,0,1.1-.205l.123.517a3.2,3.2,0,0,1-1.322.247,1.846,1.846,0,0,1-1.954-2,1.929,1.929,0,0,1,1.864-2.143,1.684,1.684,0,0,1,1.642,1.872,2.721,2.721,0,0,1-.025.336Zm2.118-.517a1.029,1.029,0,0,0-1-1.174,1.2,1.2,0,0,0-1.108,1.174Z"/>
    <path d="M253.762,295.679a.486.486,0,0,1,.492-.518.518.518,0,1,1-.492.518Z"/>
    <path d="M257.4,290.638a8.3,8.3,0,0,1,1.371-.107,2.27,2.27,0,0,1,1.551.46,1.487,1.487,0,0,1,.484,1.157,1.632,1.632,0,0,1-.427,1.183,2.291,2.291,0,0,1-1.69.607,2.47,2.47,0,0,1-.576-.049v2.216H257.4Zm.713,2.668a2.362,2.362,0,0,0,.591.057c.863,0,1.388-.418,1.388-1.181,0-.731-.517-1.084-1.305-1.084a3,3,0,0,0-.674.057Z"/>
    <path d="M261.7,290.277h.722v5.828H261.7Z"/>
    <path d="M264.033,294.25a1.272,1.272,0,0,0,1.363,1.379,2.6,2.6,0,0,0,1.1-.205l.124.517a3.2,3.2,0,0,1-1.322.247,1.846,1.846,0,0,1-1.954-2,1.929,1.929,0,0,1,1.864-2.143,1.684,1.684,0,0,1,1.642,1.872,2.721,2.721,0,0,1-.025.336Zm2.117-.517a1.027,1.027,0,0,0-1-1.174,1.2,1.2,0,0,0-1.108,1.174Z"/>
    <path d="M269.941,296.105l-.057-.5h-.026a1.475,1.475,0,0,1-1.214.591,1.132,1.132,0,0,1-1.215-1.14c0-.961.853-1.487,2.388-1.478V293.5a.819.819,0,0,0-.9-.92,1.97,1.97,0,0,0-1.034.3l-.165-.476a2.473,2.473,0,0,1,1.305-.353c1.215,0,1.511.829,1.511,1.625v1.486a5.607,5.607,0,0,0,.066.952Zm-.107-2.027c-.788-.016-1.683.123-1.683.9a.639.639,0,0,0,.682.689.987.987,0,0,0,.96-.665.768.768,0,0,0,.041-.229Z"/>
    <path d="M271.6,295.366a1.887,1.887,0,0,0,.952.288c.525,0,.771-.262.771-.591,0-.345-.2-.534-.738-.731-.715-.254-1.051-.648-1.051-1.124a1.225,1.225,0,0,1,1.37-1.166,1.99,1.99,0,0,1,.978.246l-.181.525a1.55,1.55,0,0,0-.812-.229c-.428,0-.665.246-.665.542,0,.328.237.476.755.673.689.263,1.043.607,1.043,1.2,0,.7-.542,1.191-1.487,1.191a2.269,2.269,0,0,1-1.116-.271Z"/>
    <path d="M275.346,294.25a1.271,1.271,0,0,0,1.362,1.379,2.609,2.609,0,0,0,1.1-.205l.124.517a3.208,3.208,0,0,1-1.323.247,1.846,1.846,0,0,1-1.954-2,1.929,1.929,0,0,1,1.865-2.143,1.683,1.683,0,0,1,1.641,1.872,2.764,2.764,0,0,1-.024.336Zm2.117-.517a1.028,1.028,0,0,0-1-1.174,1.2,1.2,0,0,0-1.108,1.174Z"/>
    <path d="M280.793,293.372c0-.468-.009-.87-.033-1.24h.632l.025.78h.032a1.194,1.194,0,0,1,1.1-.87.8.8,0,0,1,.2.024v.682a1.062,1.062,0,0,0-.246-.024,1.012,1.012,0,0,0-.969.927,1.961,1.961,0,0,0-.033.336v2.118h-.714Z"/>
    <path d="M283.8,294.25a1.272,1.272,0,0,0,1.362,1.379,2.609,2.609,0,0,0,1.1-.205l.124.517a3.206,3.206,0,0,1-1.322.247,1.846,1.846,0,0,1-1.955-2,1.93,1.93,0,0,1,1.865-2.143,1.683,1.683,0,0,1,1.641,1.872,2.764,2.764,0,0,1-.024.336Zm2.117-.517a1.027,1.027,0,0,0-1-1.174,1.2,1.2,0,0,0-1.108,1.174Z"/>
    <path d="M289.7,296.105l-.058-.5h-.025a1.475,1.475,0,0,1-1.215.591,1.132,1.132,0,0,1-1.215-1.14c0-.961.854-1.487,2.389-1.478V293.5a.819.819,0,0,0-.9-.92,1.97,1.97,0,0,0-1.034.3l-.165-.476a2.47,2.47,0,0,1,1.305-.353c1.215,0,1.511.829,1.511,1.625v1.486a5.719,5.719,0,0,0,.065.952Zm-.107-2.027c-.788-.016-1.683.123-1.683.9a.639.639,0,0,0,.682.689.989.989,0,0,0,.96-.665.768.768,0,0,0,.041-.229Z"/>
    <path d="M294.889,290.277v4.8c0,.354.008.756.033,1.026h-.649l-.033-.689h-.015a1.47,1.47,0,0,1-1.355.779,1.811,1.811,0,0,1-1.7-2.018,1.9,1.9,0,0,1,1.782-2.135,1.326,1.326,0,0,1,1.2.607h.017v-2.372Zm-.722,3.472a1.317,1.317,0,0,0-.033-.3,1.063,1.063,0,0,0-1.042-.837c-.747,0-1.191.657-1.191,1.536,0,.8.394,1.469,1.174,1.469a1.085,1.085,0,0,0,1.059-.862,1.288,1.288,0,0,0,.033-.312Z"/>
    <path d="M300.023,296.105l-.057-.5h-.026a1.475,1.475,0,0,1-1.214.591,1.132,1.132,0,0,1-1.215-1.14c0-.961.853-1.487,2.388-1.478V293.5a.819.819,0,0,0-.9-.92,1.97,1.97,0,0,0-1.034.3l-.165-.476a2.474,2.474,0,0,1,1.306-.353c1.214,0,1.51.829,1.51,1.625v1.486a5.607,5.607,0,0,0,.066.952Zm-.107-2.027c-.788-.016-1.683.123-1.683.9a.639.639,0,0,0,.682.689.987.987,0,0,0,.96-.665.768.768,0,0,0,.041-.229Z"/>
    <path d="M301.777,293.208c0-.411-.008-.747-.033-1.076h.641l.041.657h.016a1.461,1.461,0,0,1,1.314-.747c.55,0,1.4.328,1.4,1.691v2.372h-.722v-2.29c0-.64-.238-1.173-.919-1.173a1.025,1.025,0,0,0-.969.738,1.04,1.04,0,0,0-.05.337v2.388h-.722Z"/>
    <path d="M309.762,290.277v4.8c0,.354.009.756.033,1.026h-.649l-.033-.689H309.1a1.47,1.47,0,0,1-1.355.779,1.811,1.811,0,0,1-1.7-2.018,1.9,1.9,0,0,1,1.782-2.135,1.326,1.326,0,0,1,1.2.607h.017v-2.372Zm-.722,3.472a1.317,1.317,0,0,0-.033-.3,1.063,1.063,0,0,0-1.042-.837c-.747,0-1.191.657-1.191,1.536,0,.8.394,1.469,1.174,1.469a1.085,1.085,0,0,0,1.059-.862,1.288,1.288,0,0,0,.033-.312Z"/>
    <path d="M314.9,296.105l-.057-.5h-.026a1.473,1.473,0,0,1-1.214.591,1.132,1.132,0,0,1-1.215-1.14c0-.961.853-1.487,2.388-1.478V293.5a.819.819,0,0,0-.9-.92,1.97,1.97,0,0,0-1.034.3l-.165-.476a2.474,2.474,0,0,1,1.306-.353c1.214,0,1.51.829,1.51,1.625v1.486a5.607,5.607,0,0,0,.066.952Zm-.107-2.027c-.788-.016-1.683.123-1.683.9a.639.639,0,0,0,.682.689.987.987,0,0,0,.96-.665.768.768,0,0,0,.041-.229Z"/>
    <path d="M320.074,292.132c-.016.288-.033.607-.033,1.092v2.307a2.284,2.284,0,0,1-.566,1.814,2.108,2.108,0,0,1-1.445.476,2.563,2.563,0,0,1-1.321-.328l.18-.551a2.233,2.233,0,0,0,1.166.313c.739,0,1.281-.386,1.281-1.388v-.443h-.017a1.416,1.416,0,0,1-1.264.665,1.776,1.776,0,0,1-1.692-1.938,1.908,1.908,0,0,1,1.79-2.109,1.322,1.322,0,0,1,1.24.689h.016l.033-.6Zm-.747,1.568a1.024,1.024,0,0,0-.041-.328,1.04,1.04,0,0,0-1.01-.764c-.689,0-1.181.583-1.181,1.5,0,.781.393,1.429,1.174,1.429a1.056,1.056,0,0,0,1-.739,1.259,1.259,0,0,0,.057-.386Z"/>
    <path d="M321.188,293.372c0-.468-.009-.87-.034-1.24h.632l.026.78h.032a1.192,1.192,0,0,1,1.1-.87.8.8,0,0,1,.2.024v.682a1.057,1.057,0,0,0-.246-.024,1.012,1.012,0,0,0-.968.927,1.955,1.955,0,0,0-.034.336v2.118h-.713Z"/>
    <path d="M324.19,294.25a1.272,1.272,0,0,0,1.363,1.379,2.6,2.6,0,0,0,1.1-.205l.124.517a3.2,3.2,0,0,1-1.322.247,1.846,1.846,0,0,1-1.954-2,1.929,1.929,0,0,1,1.864-2.143,1.684,1.684,0,0,1,1.642,1.872,2.721,2.721,0,0,1-.025.336Zm2.118-.517a1.029,1.029,0,0,0-1-1.174,1.2,1.2,0,0,0-1.109,1.174Z"/>
    <path d="M328.3,294.25a1.271,1.271,0,0,0,1.362,1.379,2.609,2.609,0,0,0,1.1-.205l.124.517a3.208,3.208,0,0,1-1.323.247,1.846,1.846,0,0,1-1.954-2,1.929,1.929,0,0,1,1.865-2.143,1.683,1.683,0,0,1,1.641,1.872,2.764,2.764,0,0,1-.024.336Zm2.117-.517a1.028,1.028,0,0,0-1-1.174,1.2,1.2,0,0,0-1.108,1.174Z"/>
    <path d="M334.617,290.991v1.141h1.034v.551h-1.034v2.142c0,.492.14.772.542.772a1.576,1.576,0,0,0,.418-.05l.033.542a1.773,1.773,0,0,1-.64.1,1,1,0,0,1-.78-.3,1.47,1.47,0,0,1-.279-1.034v-2.167H333.3v-.551h.616v-.952Z"/>
    <path d="M340.01,294.086a1.942,1.942,0,0,1-1.979,2.109,1.889,1.889,0,0,1-1.905-2.044,1.94,1.94,0,0,1,1.971-2.109A1.882,1.882,0,0,1,340.01,294.086Zm-3.153.041c0,.87.5,1.527,1.206,1.527.69,0,1.208-.648,1.208-1.544,0-.672-.337-1.526-1.191-1.526S336.857,293.372,336.857,294.127Z"/>
    <path d="M344.856,296.105l-.057-.5h-.026a1.473,1.473,0,0,1-1.214.591,1.132,1.132,0,0,1-1.215-1.14c0-.961.853-1.487,2.388-1.478V293.5a.819.819,0,0,0-.9-.92,1.97,1.97,0,0,0-1.034.3l-.165-.476a2.474,2.474,0,0,1,1.306-.353c1.214,0,1.51.829,1.51,1.625v1.486a5.607,5.607,0,0,0,.066.952Zm-.107-2.027c-.788-.016-1.683.123-1.683.9a.639.639,0,0,0,.682.689.987.987,0,0,0,.96-.665.768.768,0,0,0,.041-.229Z"/>
    <path d="M346.61,290.277h.722v5.828h-.722Z"/>
    <path d="M348.547,290.277h.722v5.828h-.722Z"/>
    <path d="M353.092,290.991v1.141h1.034v.551h-1.034v2.142c0,.492.139.772.542.772a1.582,1.582,0,0,0,.418-.05l.033.542a1.779,1.779,0,0,1-.641.1,1,1,0,0,1-.779-.3,1.47,1.47,0,0,1-.279-1.034v-2.167h-.616v-.551h.616v-.952Z"/>
    <path d="M355.29,294.25a1.272,1.272,0,0,0,1.362,1.379,2.609,2.609,0,0,0,1.1-.205l.124.517a3.2,3.2,0,0,1-1.322.247,1.846,1.846,0,0,1-1.954-2,1.929,1.929,0,0,1,1.864-2.143,1.683,1.683,0,0,1,1.641,1.872,2.764,2.764,0,0,1-.024.336Zm2.117-.517a1.027,1.027,0,0,0-1-1.174,1.2,1.2,0,0,0-1.108,1.174Z"/>
    <path d="M359,293.372c0-.468-.009-.87-.033-1.24h.632l.025.78h.032a1.194,1.194,0,0,1,1.1-.87.8.8,0,0,1,.2.024v.682a1.057,1.057,0,0,0-.246-.024,1.012,1.012,0,0,0-.969.927,2.067,2.067,0,0,0-.033.336v2.118H359Z"/>
    <path d="M361.713,293.208c0-.411-.009-.747-.033-1.076h.632l.033.64h.024a1.371,1.371,0,0,1,1.248-.73,1.175,1.175,0,0,1,1.125.8h.016a1.63,1.63,0,0,1,.443-.517,1.36,1.36,0,0,1,.879-.279c.525,0,1.305.345,1.305,1.724v2.339h-.706v-2.249c0-.763-.279-1.223-.862-1.223a.934.934,0,0,0-.853.657,1.187,1.187,0,0,0-.058.361v2.454H364.2v-2.38c0-.632-.279-1.092-.829-1.092a.987.987,0,0,0-.895.722,1,1,0,0,0-.057.353v2.4h-.706Z"/>
    <path d="M368.457,295.366a1.887,1.887,0,0,0,.952.288c.526,0,.772-.262.772-.591,0-.345-.2-.534-.739-.731-.714-.254-1.05-.648-1.05-1.124a1.224,1.224,0,0,1,1.37-1.166,1.986,1.986,0,0,1,.977.246l-.18.525a1.557,1.557,0,0,0-.813-.229c-.428,0-.665.246-.665.542,0,.328.237.476.755.673.689.263,1.043.607,1.043,1.2,0,.7-.542,1.191-1.486,1.191a2.273,2.273,0,0,1-1.117-.271Z"/>
    <path d="M11.566,305.95c.017-.27.033-.673.033-1.026v-4.8h.714v2.5h.017a1.48,1.48,0,0,1,1.355-.73,1.783,1.783,0,0,1,1.674,2.027,1.887,1.887,0,0,1-1.781,2.126,1.415,1.415,0,0,1-1.33-.747h-.025l-.033.657Zm.747-1.593a1.381,1.381,0,0,0,.033.263,1.115,1.115,0,0,0,1.084.846c.755,0,1.207-.615,1.207-1.528,0-.8-.411-1.477-1.182-1.477a1.153,1.153,0,0,0-1.1.887,1.446,1.446,0,0,0-.041.3Z"/>
    <path d="M16.669,304.1a1.273,1.273,0,0,0,1.363,1.379,2.613,2.613,0,0,0,1.1-.2l.123.517a3.213,3.213,0,0,1-1.321.246,1.845,1.845,0,0,1-1.954-2,1.929,1.929,0,0,1,1.863-2.142,1.682,1.682,0,0,1,1.642,1.872,2.564,2.564,0,0,1-.025.336Zm2.119-.517a1.029,1.029,0,0,0-1-1.174,1.2,1.2,0,0,0-1.108,1.174Z"/>
    <path d="M20.451,305.95v-3.423h-.558v-.55h.558v-.189a1.873,1.873,0,0,1,.46-1.388,1.385,1.385,0,0,1,.968-.369,1.686,1.686,0,0,1,.616.115l-.1.558a1.078,1.078,0,0,0-.459-.09c-.616,0-.772.542-.772,1.15v.213h.96v.55h-.96v3.423Z"/>
    <path d="M26.262,303.931a1.942,1.942,0,0,1-1.979,2.109,1.889,1.889,0,0,1-1.9-2.044,1.939,1.939,0,0,1,1.97-2.109A1.882,1.882,0,0,1,26.262,303.931Zm-3.153.041c0,.87.5,1.527,1.207,1.527.69,0,1.207-.648,1.207-1.544,0-.673-.336-1.526-1.19-1.526S23.109,303.217,23.109,303.972Z"/>
    <path d="M27.17,303.217c0-.468-.008-.87-.033-1.24h.633l.024.78h.033a1.191,1.191,0,0,1,1.1-.87.8.8,0,0,1,.205.024v.682a1.053,1.053,0,0,0-.246-.025,1.014,1.014,0,0,0-.969.928,2.067,2.067,0,0,0-.033.336v2.118H27.17Z"/>
    <path d="M30.173,304.1a1.272,1.272,0,0,0,1.363,1.379,2.613,2.613,0,0,0,1.1-.2l.123.517a3.222,3.222,0,0,1-1.322.246,1.845,1.845,0,0,1-1.954-2,1.929,1.929,0,0,1,1.864-2.142,1.683,1.683,0,0,1,1.642,1.872,2.755,2.755,0,0,1-.025.336Zm2.118-.517a1.029,1.029,0,0,0-1-1.174,1.2,1.2,0,0,0-1.109,1.174Z"/>
    <path d="M38.944,304.866c0,.411.009.773.034,1.084h-.641L38.3,305.3H38.28a1.5,1.5,0,0,1-1.314.738c-.624,0-1.371-.345-1.371-1.74v-2.323h.722v2.2c0,.756.23,1.264.887,1.264a1.018,1.018,0,0,0,1.018-1.026v-2.438h.722Z"/>
    <path d="M40.042,305.211a1.884,1.884,0,0,0,.952.288c.525,0,.771-.263.771-.592s-.2-.533-.739-.73c-.714-.254-1.05-.649-1.05-1.124a1.225,1.225,0,0,1,1.371-1.166,1.982,1.982,0,0,1,.976.246l-.18.525a1.551,1.551,0,0,0-.813-.229c-.427,0-.665.246-.665.542,0,.328.238.475.755.673.69.262,1.043.607,1.043,1.2,0,.7-.542,1.19-1.486,1.19a2.266,2.266,0,0,1-1.116-.27Z"/>
    <path d="M44.193,300.86a.448.448,0,0,1-.895,0,.44.44,0,0,1,.452-.451A.428.428,0,0,1,44.193,300.86Zm-.8,5.09v-3.973h.723v3.973Z"/>
    <path d="M45.308,303.053c0-.411-.008-.747-.033-1.076h.641l.041.657h.016a1.461,1.461,0,0,1,1.314-.747c.55,0,1.4.328,1.4,1.691v2.372h-.722v-2.29c0-.64-.238-1.174-.919-1.174a1.059,1.059,0,0,0-1.018,1.076v2.388h-.723Z"/>
    <path d="M53.284,301.977c-.016.288-.033.607-.033,1.091v2.308a2.28,2.28,0,0,1-.566,1.813,2.1,2.1,0,0,1-1.445.477,2.572,2.572,0,0,1-1.322-.328l.181-.551a2.233,2.233,0,0,0,1.166.313c.738,0,1.28-.386,1.28-1.388v-.443h-.016a1.418,1.418,0,0,1-1.264.665A1.776,1.776,0,0,1,49.574,304a1.906,1.906,0,0,1,1.789-2.109,1.322,1.322,0,0,1,1.24.689h.016l.033-.6Zm-.747,1.568a1.021,1.021,0,0,0-.041-.328,1.04,1.04,0,0,0-1.01-.764c-.689,0-1.182.583-1.182,1.5,0,.78.394,1.429,1.174,1.429a1.056,1.056,0,0,0,1-.739,1.235,1.235,0,0,0,.058-.386Z"/>
    <path d="M57.056,300.836v1.141h1.035v.55H57.056v2.143c0,.492.14.771.542.771a1.593,1.593,0,0,0,.419-.049l.033.542a1.787,1.787,0,0,1-.641.1,1,1,0,0,1-.78-.3,1.476,1.476,0,0,1-.278-1.035v-2.167h-.616v-.55h.616v-.953Z"/>
    <path d="M58.9,300.122h.723V302.6h.016a1.342,1.342,0,0,1,.518-.509,1.483,1.483,0,0,1,.738-.2c.534,0,1.388.328,1.388,1.7v2.364h-.722v-2.282c0-.641-.239-1.182-.92-1.182a1.039,1.039,0,0,0-.969.722.877.877,0,0,0-.049.345v2.4H58.9Z"/>
    <path d="M64.259,300.86a.448.448,0,0,1-.9,0,.44.44,0,0,1,.451-.451A.429.429,0,0,1,64.259,300.86Zm-.8,5.09v-3.973h.723v3.973Z"/>
    <path d="M65.276,305.211a1.887,1.887,0,0,0,.952.288c.525,0,.772-.263.772-.592s-.206-.533-.739-.73c-.715-.254-1.051-.649-1.051-1.124a1.225,1.225,0,0,1,1.371-1.166,1.989,1.989,0,0,1,.977.246l-.181.525a1.551,1.551,0,0,0-.813-.229c-.426,0-.665.246-.665.542,0,.328.239.475.756.673.689.262,1.042.607,1.042,1.2,0,.7-.541,1.19-1.486,1.19a2.266,2.266,0,0,1-1.116-.27Z"/>
    <path d="M70.264,305.211a1.884,1.884,0,0,0,.952.288c.525,0,.771-.263.771-.592s-.2-.533-.738-.73c-.715-.254-1.051-.649-1.051-1.124a1.225,1.225,0,0,1,1.371-1.166,1.982,1.982,0,0,1,.976.246l-.18.525a1.551,1.551,0,0,0-.813-.229c-.427,0-.665.246-.665.542,0,.328.238.475.756.673.689.262,1.042.607,1.042,1.2,0,.7-.541,1.19-1.486,1.19a2.266,2.266,0,0,1-1.116-.27Z"/>
    <path d="M77.206,303.931a1.941,1.941,0,0,1-1.978,2.109A1.889,1.889,0,0,1,73.323,304a1.939,1.939,0,0,1,1.97-2.109A1.881,1.881,0,0,1,77.206,303.931Zm-3.152.041c0,.87.5,1.527,1.207,1.527.689,0,1.206-.648,1.206-1.544,0-.673-.336-1.526-1.19-1.526S74.054,303.217,74.054,303.972Z"/>
    <path d="M78.188,305.95v-3.423H77.63v-.55h.558v-.189a1.877,1.877,0,0,1,.46-1.388,1.385,1.385,0,0,1,.969-.369,1.68,1.68,0,0,1,.615.115l-.1.558a1.087,1.087,0,0,0-.46-.09c-.615,0-.772.542-.772,1.15v.213h.961v.55H78.9v3.423Z"/>
    <path d="M81.47,300.836v1.141H82.5v.55H81.47v2.143c0,.492.139.771.542.771a1.6,1.6,0,0,0,.419-.049l.032.542a1.777,1.777,0,0,1-.64.1,1,1,0,0,1-.78-.3,1.476,1.476,0,0,1-.279-1.035v-2.167h-.616v-.55h.616v-.953Z"/>
    <path d="M83.676,301.977,84.2,304c.114.443.221.855.3,1.265h.024c.091-.4.222-.829.354-1.256l.648-2.028h.608l.616,1.987c.147.475.262.894.353,1.3h.024a11.56,11.56,0,0,1,.3-1.289l.566-2h.714l-1.28,3.973h-.657l-.607-1.9a13.023,13.023,0,0,1-.353-1.3h-.017a11.851,11.851,0,0,1-.361,1.314l-.641,1.887h-.656l-1.2-3.973Z"/>
    <path d="M91.594,305.95l-.057-.5h-.025a1.475,1.475,0,0,1-1.215.591,1.132,1.132,0,0,1-1.215-1.141c0-.961.854-1.486,2.389-1.477v-.082a.819.819,0,0,0-.9-.92,1.976,1.976,0,0,0-1.034.3l-.164-.477a2.467,2.467,0,0,1,1.3-.352c1.215,0,1.511.829,1.511,1.625V305a5.614,5.614,0,0,0,.065.952Zm-.107-2.027c-.788-.017-1.682.123-1.682.894a.64.64,0,0,0,.681.69.987.987,0,0,0,.96-.665.744.744,0,0,0,.041-.23Z"/>
    <path d="M93.348,303.217c0-.468-.008-.87-.033-1.24h.633l.024.78h.033a1.193,1.193,0,0,1,1.1-.87.809.809,0,0,1,.206.024v.682a1.062,1.062,0,0,0-.247-.025,1.014,1.014,0,0,0-.969.928,2.073,2.073,0,0,0-.032.336v2.118h-.715Z"/>
    <path d="M96.351,304.1a1.273,1.273,0,0,0,1.363,1.379,2.613,2.613,0,0,0,1.1-.2l.123.517a3.214,3.214,0,0,1-1.322.246,1.844,1.844,0,0,1-1.953-2,1.929,1.929,0,0,1,1.863-2.142,1.683,1.683,0,0,1,1.642,1.872,2.755,2.755,0,0,1-.025.336Zm2.118-.517a1.028,1.028,0,0,0-1-1.174,1.2,1.2,0,0,0-1.109,1.174Z"/>
    <path d="M99.788,305.523a.486.486,0,0,1,.493-.517.518.518,0,1,1-.493.517Z"/>
    <path d="M108.151,303.126c0,1.905-1.158,2.914-2.57,2.914a2.536,2.536,0,0,1-2.487-2.807,2.629,2.629,0,0,1,2.57-2.906A2.519,2.519,0,0,1,108.151,303.126Zm-4.294.091c0,1.181.641,2.241,1.765,2.241s1.774-1.043,1.774-2.3c0-1.1-.575-2.249-1.766-2.249S103.857,302,103.857,303.217Z"/>
    <path d="M110.06,300.836v1.141h1.034v.55H110.06v2.143c0,.492.139.771.542.771a1.6,1.6,0,0,0,.419-.049l.032.542a1.777,1.777,0,0,1-.64.1,1,1,0,0,1-.78-.3,1.476,1.476,0,0,1-.279-1.035v-2.167h-.616v-.55h.616v-.953Z"/>
    <path d="M111.905,300.122h.722V302.6h.017a1.339,1.339,0,0,1,.517-.509,1.49,1.49,0,0,1,.739-.2c.534,0,1.387.328,1.387,1.7v2.364h-.722v-2.282c0-.641-.238-1.182-.919-1.182a1.037,1.037,0,0,0-.969.722.876.876,0,0,0-.05.345v2.4h-.722Z"/>
    <path d="M116.86,304.1a1.272,1.272,0,0,0,1.363,1.379,2.613,2.613,0,0,0,1.1-.2l.123.517a3.222,3.222,0,0,1-1.322.246,1.845,1.845,0,0,1-1.954-2,1.929,1.929,0,0,1,1.864-2.142,1.683,1.683,0,0,1,1.642,1.872,2.755,2.755,0,0,1-.025.336Zm2.118-.517a1.029,1.029,0,0,0-1-1.174,1.2,1.2,0,0,0-1.109,1.174Z"/>
    <path d="M120.568,303.217c0-.468-.008-.87-.033-1.24h.632l.025.78h.033a1.191,1.191,0,0,1,1.1-.87.8.8,0,0,1,.2.024v.682a1.053,1.053,0,0,0-.246-.025,1.014,1.014,0,0,0-.969.928,2.067,2.067,0,0,0-.033.336v2.118h-.714Z"/>
    <path d="M124.989,303.274c0-.509-.016-.92-.032-1.3h.648l.033.681h.016a1.563,1.563,0,0,1,1.412-.771,1.8,1.8,0,0,1,1.683,2.019,1.88,1.88,0,0,1-1.806,2.134,1.393,1.393,0,0,1-1.223-.623H125.7v2.158h-.715Zm.715,1.059a1.688,1.688,0,0,0,.032.3,1.116,1.116,0,0,0,1.084.845c.763,0,1.207-.623,1.207-1.536,0-.8-.419-1.477-1.182-1.477a1.251,1.251,0,0,0-1.141,1.19Z"/>
    <path d="M129.657,303.217c0-.468-.008-.87-.032-1.24h.632l.024.78h.033a1.193,1.193,0,0,1,1.1-.87.8.8,0,0,1,.205.024v.682a1.047,1.047,0,0,0-.246-.025,1.014,1.014,0,0,0-.969.928,2.073,2.073,0,0,0-.032.336v2.118h-.715Z"/>
    <path d="M135.854,303.931a1.942,1.942,0,0,1-1.979,2.109,1.889,1.889,0,0,1-1.9-2.044,1.939,1.939,0,0,1,1.97-2.109A1.882,1.882,0,0,1,135.854,303.931Zm-3.153.041c0,.87.5,1.527,1.207,1.527.69,0,1.207-.648,1.207-1.544,0-.673-.337-1.526-1.191-1.526S132.7,303.217,132.7,303.972Z"/>
    <path d="M140.193,300.122v4.8c0,.353.009.756.033,1.026h-.648l-.033-.689h-.017a1.469,1.469,0,0,1-1.354.779,1.81,1.81,0,0,1-1.7-2.019,1.9,1.9,0,0,1,1.781-2.134,1.33,1.33,0,0,1,1.2.607h.016v-2.372Zm-.722,3.472a1.264,1.264,0,0,0-.033-.3,1.061,1.061,0,0,0-1.042-.837c-.748,0-1.191.656-1.191,1.535,0,.805.394,1.47,1.174,1.47a1.086,1.086,0,0,0,1.059-.862,1.245,1.245,0,0,0,.033-.312Z"/>
    <path d="M144.713,304.866c0,.411.009.773.034,1.084h-.641l-.041-.648h-.016a1.5,1.5,0,0,1-1.314.738c-.624,0-1.371-.345-1.371-1.74v-2.323h.722v2.2c0,.756.23,1.264.887,1.264a1.018,1.018,0,0,0,1.018-1.026v-2.438h.722Z"/>
    <path d="M148.741,305.8a2.67,2.67,0,0,1-1.141.229,1.887,1.887,0,0,1-1.978-2.027,2.018,2.018,0,0,1,2.134-2.11,2.416,2.416,0,0,1,1,.205l-.164.558a1.679,1.679,0,0,0-.837-.188,1.5,1.5,0,0,0-.025,2.988,2.056,2.056,0,0,0,.887-.2Z"/>
    <path d="M150.561,300.836v1.141H151.6v.55h-1.034v2.143c0,.492.139.771.542.771a1.584,1.584,0,0,0,.418-.049l.033.542a1.777,1.777,0,0,1-.64.1,1,1,0,0,1-.78-.3,1.476,1.476,0,0,1-.279-1.035v-2.167h-.616v-.55h.616v-.953Z"/>
    <path d="M156.345,305.95l-.057-.5h-.025a1.475,1.475,0,0,1-1.215.591,1.132,1.132,0,0,1-1.215-1.141c0-.961.854-1.486,2.389-1.477v-.082a.819.819,0,0,0-.9-.92,1.976,1.976,0,0,0-1.034.3l-.164-.477a2.467,2.467,0,0,1,1.3-.352c1.215,0,1.511.829,1.511,1.625V305a5.614,5.614,0,0,0,.065.952Zm-.107-2.027c-.788-.017-1.682.123-1.682.894a.64.64,0,0,0,.681.69.987.987,0,0,0,.96-.665.744.744,0,0,0,.041-.23Z"/>
    <path d="M158.1,303.053c0-.411-.008-.747-.033-1.076h.641l.041.657h.016a1.461,1.461,0,0,1,1.314-.747c.55,0,1.4.328,1.4,1.691v2.372h-.722v-2.29c0-.64-.238-1.174-.919-1.174a1.059,1.059,0,0,0-1.018,1.076v2.388H158.1Z"/>
    <path d="M166.084,300.122v4.8c0,.353.008.756.033,1.026h-.649l-.032-.689h-.017a1.47,1.47,0,0,1-1.355.779,1.811,1.811,0,0,1-1.7-2.019,1.9,1.9,0,0,1,1.781-2.134,1.328,1.328,0,0,1,1.2.607h.016v-2.372Zm-.723,3.472a1.263,1.263,0,0,0-.032-.3,1.063,1.063,0,0,0-1.043-.837c-.747,0-1.19.656-1.19,1.535,0,.805.394,1.47,1.174,1.47a1.087,1.087,0,0,0,1.059-.862,1.246,1.246,0,0,0,.032-.312Z"/>
    <path d="M168.985,305.95c.017-.27.033-.673.033-1.026v-4.8h.714v2.5h.017a1.48,1.48,0,0,1,1.355-.73,1.783,1.783,0,0,1,1.674,2.027A1.887,1.887,0,0,1,171,306.04a1.415,1.415,0,0,1-1.33-.747h-.025l-.033.657Zm.747-1.593a1.381,1.381,0,0,0,.033.263,1.115,1.115,0,0,0,1.084.846c.755,0,1.207-.615,1.207-1.528,0-.8-.411-1.477-1.182-1.477a1.153,1.153,0,0,0-1.1.887,1.446,1.446,0,0,0-.041.3Z"/>
    <path d="M173.686,303.217c0-.468-.008-.87-.033-1.24h.633l.024.78h.033a1.191,1.191,0,0,1,1.1-.87.8.8,0,0,1,.2.024v.682a1.053,1.053,0,0,0-.246-.025,1.014,1.014,0,0,0-.969.928,2.067,2.067,0,0,0-.033.336v2.118h-.714Z"/>
    <path d="M178.528,305.95l-.058-.5h-.024a1.478,1.478,0,0,1-1.215.591,1.131,1.131,0,0,1-1.215-1.141c0-.961.854-1.486,2.389-1.477v-.082a.82.82,0,0,0-.9-.92,1.979,1.979,0,0,0-1.035.3l-.164-.477a2.467,2.467,0,0,1,1.305-.352c1.215,0,1.511.829,1.511,1.625V305a5.505,5.505,0,0,0,.066.952Zm-.107-2.027c-.788-.017-1.683.123-1.683.894a.64.64,0,0,0,.681.69.988.988,0,0,0,.961-.665.744.744,0,0,0,.041-.23Z"/>
    <path d="M180.282,303.053c0-.411-.009-.747-.033-1.076h.64l.042.657h.016a1.46,1.46,0,0,1,1.313-.747c.551,0,1.4.328,1.4,1.691v2.372h-.722v-2.29c0-.64-.238-1.174-.92-1.174A1.062,1.062,0,0,0,181,303.562v2.388h-.722Z"/>
    <path d="M188.267,300.122v4.8c0,.353.008.756.032,1.026h-.648l-.033-.689H187.6a1.47,1.47,0,0,1-1.355.779,1.811,1.811,0,0,1-1.7-2.019,1.9,1.9,0,0,1,1.781-2.134,1.329,1.329,0,0,1,1.2.607h.016v-2.372Zm-.723,3.472a1.264,1.264,0,0,0-.033-.3,1.061,1.061,0,0,0-1.042-.837c-.747,0-1.191.656-1.191,1.535,0,.805.394,1.47,1.174,1.47a1.085,1.085,0,0,0,1.059-.862,1.245,1.245,0,0,0,.033-.312Z"/>
    <path d="M191.2,303.053c0-.411-.009-.747-.033-1.076h.64l.042.657h.016a1.459,1.459,0,0,1,1.313-.747c.55,0,1.4.328,1.4,1.691v2.372h-.722v-2.29c0-.64-.238-1.174-.92-1.174a1.025,1.025,0,0,0-.968.739,1,1,0,0,0-.05.337v2.388H191.2Z"/>
    <path d="M197.954,305.95l-.058-.5h-.024a1.477,1.477,0,0,1-1.215.591,1.132,1.132,0,0,1-1.215-1.141c0-.961.854-1.486,2.389-1.477v-.082a.819.819,0,0,0-.9-.92,1.976,1.976,0,0,0-1.034.3l-.165-.477a2.473,2.473,0,0,1,1.306-.352c1.215,0,1.51.829,1.51,1.625V305a5.607,5.607,0,0,0,.066.952Zm-.106-2.027c-.788-.017-1.683.123-1.683.894a.64.64,0,0,0,.681.69.988.988,0,0,0,.96-.665.745.745,0,0,0,.042-.23Z"/>
    <path d="M199.708,303.053c0-.411-.008-.747-.033-1.076h.633l.032.64h.025a1.368,1.368,0,0,1,1.248-.73,1.174,1.174,0,0,1,1.124.8h.017a1.63,1.63,0,0,1,.443-.517,1.355,1.355,0,0,1,.879-.279c.525,0,1.305.344,1.305,1.723v2.34h-.706V303.7c0-.763-.279-1.223-.862-1.223a.934.934,0,0,0-.854.657,1.177,1.177,0,0,0-.058.361v2.454H202.2v-2.381c0-.631-.278-1.091-.829-1.091a.986.986,0,0,0-.894.722,1,1,0,0,0-.058.353v2.4h-.706Z"/>
    <path d="M206.952,304.1a1.273,1.273,0,0,0,1.363,1.379,2.613,2.613,0,0,0,1.1-.2l.123.517a3.214,3.214,0,0,1-1.322.246,1.844,1.844,0,0,1-1.953-2,1.929,1.929,0,0,1,1.863-2.142,1.683,1.683,0,0,1,1.642,1.872,2.755,2.755,0,0,1-.025.336Zm2.118-.517a1.028,1.028,0,0,0-1-1.174,1.2,1.2,0,0,0-1.109,1.174Z"/>
    <path d="M210.562,305.211a1.887,1.887,0,0,0,.952.288c.526,0,.772-.263.772-.592s-.205-.533-.739-.73c-.714-.254-1.051-.649-1.051-1.124a1.225,1.225,0,0,1,1.371-1.166,1.986,1.986,0,0,1,.977.246l-.18.525a1.557,1.557,0,0,0-.813-.229c-.427,0-.665.246-.665.542,0,.328.238.475.755.673.689.262,1.042.607,1.042,1.2,0,.7-.541,1.19-1.485,1.19a2.27,2.27,0,0,1-1.117-.27Z"/>
    <path d="M217.848,305.95l-.057-.5h-.025a1.477,1.477,0,0,1-1.215.591,1.132,1.132,0,0,1-1.215-1.141c0-.961.854-1.486,2.389-1.477v-.082a.819.819,0,0,0-.9-.92,1.976,1.976,0,0,0-1.034.3l-.164-.477a2.467,2.467,0,0,1,1.305-.352c1.215,0,1.51.829,1.51,1.625V305a5.607,5.607,0,0,0,.066.952Zm-.107-2.027c-.788-.017-1.682.123-1.682.894a.64.64,0,0,0,.681.69.988.988,0,0,0,.96-.665.744.744,0,0,0,.041-.23Z"/>
    <path d="M219.6,303.217c0-.468-.008-.87-.033-1.24h.633l.024.78h.033a1.192,1.192,0,0,1,1.1-.87.8.8,0,0,1,.2.024v.682a1.047,1.047,0,0,0-.246-.025,1.014,1.014,0,0,0-.969.928,2.067,2.067,0,0,0-.033.336v2.118H219.6Z"/>
    <path d="M222.605,304.1a1.273,1.273,0,0,0,1.363,1.379,2.613,2.613,0,0,0,1.1-.2l.123.517a3.218,3.218,0,0,1-1.322.246,1.844,1.844,0,0,1-1.953-2,1.929,1.929,0,0,1,1.863-2.142,1.683,1.683,0,0,1,1.642,1.872,2.755,2.755,0,0,1-.025.336Zm2.118-.517a1.029,1.029,0,0,0-1-1.174,1.2,1.2,0,0,0-1.109,1.174Z"/>
    <path d="M228.922,300.836v1.141h1.035v.55h-1.035v2.143c0,.492.14.771.542.771a1.6,1.6,0,0,0,.419-.049l.033.542a1.787,1.787,0,0,1-.641.1,1,1,0,0,1-.78-.3,1.476,1.476,0,0,1-.279-1.035v-2.167H227.6v-.55h.615v-.953Z"/>
    <path d="M230.767,303.217c0-.468-.008-.87-.033-1.24h.633l.024.78h.033a1.192,1.192,0,0,1,1.1-.87.8.8,0,0,1,.205.024v.682a1.047,1.047,0,0,0-.246-.025,1.014,1.014,0,0,0-.969.928,2.067,2.067,0,0,0-.033.336v2.118h-.714Z"/>
    <path d="M235.609,305.95l-.058-.5h-.024a1.478,1.478,0,0,1-1.215.591A1.131,1.131,0,0,1,233.1,304.9c0-.961.854-1.486,2.389-1.477v-.082a.819.819,0,0,0-.9-.92,1.979,1.979,0,0,0-1.035.3l-.164-.477a2.467,2.467,0,0,1,1.305-.352c1.215,0,1.511.829,1.511,1.625V305a5.505,5.505,0,0,0,.066.952Zm-.107-2.027c-.788-.017-1.683.123-1.683.894a.64.64,0,0,0,.681.69.988.988,0,0,0,.961-.665.744.744,0,0,0,.041-.23Z"/>
    <path d="M240.794,300.122v4.8c0,.353.009.756.033,1.026h-.648l-.033-.689h-.017a1.469,1.469,0,0,1-1.354.779,1.81,1.81,0,0,1-1.7-2.019,1.9,1.9,0,0,1,1.781-2.134,1.33,1.33,0,0,1,1.2.607h.016v-2.372Zm-.722,3.472a1.264,1.264,0,0,0-.033-.3,1.061,1.061,0,0,0-1.042-.837c-.747,0-1.191.656-1.191,1.535,0,.805.394,1.47,1.174,1.47a1.086,1.086,0,0,0,1.059-.862,1.245,1.245,0,0,0,.033-.312Z"/>
    <path d="M242.392,304.1a1.273,1.273,0,0,0,1.363,1.379,2.613,2.613,0,0,0,1.1-.2l.123.517a3.214,3.214,0,0,1-1.322.246,1.844,1.844,0,0,1-1.953-2,1.929,1.929,0,0,1,1.863-2.142,1.683,1.683,0,0,1,1.642,1.872,2.755,2.755,0,0,1-.025.336Zm2.118-.517a1.028,1.028,0,0,0-1-1.174,1.2,1.2,0,0,0-1.109,1.174Z"/>
    <path d="M246.1,303.053c0-.411-.008-.747-.033-1.076h.632l.033.64h.024a1.37,1.37,0,0,1,1.248-.73,1.174,1.174,0,0,1,1.125.8h.017a1.618,1.618,0,0,1,.443-.517,1.352,1.352,0,0,1,.878-.279c.526,0,1.3.344,1.3,1.723v2.34h-.706V303.7c0-.763-.279-1.223-.861-1.223a.934.934,0,0,0-.854.657,1.177,1.177,0,0,0-.058.361v2.454h-.706v-2.381c0-.631-.279-1.091-.829-1.091a.988.988,0,0,0-.9.722,1,1,0,0,0-.057.353v2.4H246.1Z"/>
    <path d="M255.143,305.95l-.058-.5h-.025a1.478,1.478,0,0,1-1.215.591,1.132,1.132,0,0,1-1.215-1.141c0-.961.853-1.486,2.389-1.477v-.082a.819.819,0,0,0-.9-.92,1.97,1.97,0,0,0-1.034.3l-.165-.477a2.473,2.473,0,0,1,1.306-.352c1.215,0,1.51.829,1.51,1.625V305a5.607,5.607,0,0,0,.066.952Zm-.108-2.027c-.788-.017-1.682.123-1.682.894a.639.639,0,0,0,.681.69.987.987,0,0,0,.96-.665.744.744,0,0,0,.041-.23Z"/>
    <path d="M256.9,303.217c0-.468-.008-.87-.033-1.24h.632l.026.78h.032a1.192,1.192,0,0,1,1.1-.87.8.8,0,0,1,.2.024v.682a1.053,1.053,0,0,0-.246-.025,1.013,1.013,0,0,0-.968.928,1.955,1.955,0,0,0-.034.336v2.118H256.9Z"/>
    <path d="M260.325,303.8h.017c.1-.14.238-.313.352-.452l1.166-1.371h.87L261.2,303.61l1.749,2.34h-.879l-1.371-1.9-.369.41v1.494h-.714v-5.828h.714Z"/>
    <path d="M263.36,305.211a1.888,1.888,0,0,0,.953.288c.525,0,.771-.263.771-.592s-.2-.533-.738-.73c-.715-.254-1.051-.649-1.051-1.124a1.225,1.225,0,0,1,1.37-1.166,1.993,1.993,0,0,1,.978.246l-.181.525a1.551,1.551,0,0,0-.813-.229c-.427,0-.665.246-.665.542,0,.328.238.475.755.673.69.262,1.043.607,1.043,1.2,0,.7-.542,1.19-1.486,1.19a2.266,2.266,0,0,1-1.116-.27Z"/>
    <path d="M272.043,303.931a1.942,1.942,0,0,1-1.979,2.109A1.889,1.889,0,0,1,268.159,304a1.939,1.939,0,0,1,1.971-2.109A1.882,1.882,0,0,1,272.043,303.931Zm-3.152.041c0,.87.5,1.527,1.206,1.527.689,0,1.207-.648,1.207-1.544,0-.673-.337-1.526-1.191-1.526S268.891,303.217,268.891,303.972Z"/>
    <path d="M273.024,305.95v-3.423h-.557v-.55h.557v-.189a1.873,1.873,0,0,1,.46-1.388,1.385,1.385,0,0,1,.969-.369,1.671,1.671,0,0,1,.615.115l-.1.558a1.09,1.09,0,0,0-.46-.09c-.616,0-.772.542-.772,1.15v.213h.96v.55h-.96v3.423Z"/>
    <path d="M277.955,300.836v1.141h1.034v.55h-1.034v2.143c0,.492.14.771.542.771a1.584,1.584,0,0,0,.418-.049l.033.542a1.777,1.777,0,0,1-.64.1,1,1,0,0,1-.78-.3,1.471,1.471,0,0,1-.279-1.035v-2.167h-.616v-.55h.616v-.953Z"/>
    <path d="M279.8,300.122h.721V302.6h.017a1.342,1.342,0,0,1,.518-.509,1.483,1.483,0,0,1,.738-.2c.534,0,1.388.328,1.388,1.7v2.364h-.723v-2.282c0-.641-.237-1.182-.919-1.182a1.038,1.038,0,0,0-.969.722.876.876,0,0,0-.05.345v2.4H279.8Z"/>
    <path d="M284.756,304.1a1.272,1.272,0,0,0,1.362,1.379,2.609,2.609,0,0,0,1.1-.2l.124.517a3.226,3.226,0,0,1-1.322.246,1.846,1.846,0,0,1-1.955-2,1.929,1.929,0,0,1,1.865-2.142,1.682,1.682,0,0,1,1.641,1.872,2.8,2.8,0,0,1-.024.336Zm2.117-.517a1.027,1.027,0,0,0-1-1.174,1.2,1.2,0,0,0-1.108,1.174Z"/>
    <path d="M289.268,300.86a.448.448,0,0,1-.895,0,.441.441,0,0,1,.452-.451A.428.428,0,0,1,289.268,300.86Zm-.8,5.09v-3.973h.722v3.973Z"/>
    <path d="M290.384,303.217c0-.468-.009-.87-.033-1.24h.631l.026.78h.032a1.194,1.194,0,0,1,1.1-.87.807.807,0,0,1,.2.024v.682a1.065,1.065,0,0,0-.246-.025,1.013,1.013,0,0,0-.969.928,1.961,1.961,0,0,0-.033.336v2.118h-.714Z"/>
    <path d="M294.805,303.217c0-.468-.009-.87-.034-1.24h.632l.026.78h.032a1.194,1.194,0,0,1,1.1-.87.8.8,0,0,1,.2.024v.682a1.065,1.065,0,0,0-.246-.025,1.013,1.013,0,0,0-.969.928,1.961,1.961,0,0,0-.033.336v2.118h-.714Z"/>
    <path d="M297.808,304.1a1.271,1.271,0,0,0,1.362,1.379,2.609,2.609,0,0,0,1.1-.2l.124.517a3.228,3.228,0,0,1-1.323.246,1.846,1.846,0,0,1-1.954-2,1.929,1.929,0,0,1,1.864-2.142,1.683,1.683,0,0,1,1.642,1.872,3.027,3.027,0,0,1-.024.336Zm2.117-.517a1.028,1.028,0,0,0-1-1.174,1.2,1.2,0,0,0-1.109,1.174Z"/>
    <path d="M301.417,305.211a1.887,1.887,0,0,0,.952.288c.526,0,.772-.263.772-.592s-.205-.533-.739-.73c-.714-.254-1.05-.649-1.05-1.124a1.224,1.224,0,0,1,1.37-1.166,1.986,1.986,0,0,1,.977.246l-.18.525a1.557,1.557,0,0,0-.813-.229c-.428,0-.665.246-.665.542,0,.328.237.475.755.673.689.262,1.043.607,1.043,1.2,0,.7-.542,1.19-1.486,1.19a2.273,2.273,0,0,1-1.117-.27Z"/>
    <path d="M304.765,303.274c0-.509-.017-.92-.034-1.3h.649l.033.681h.017a1.559,1.559,0,0,1,1.411-.771,1.8,1.8,0,0,1,1.683,2.019,1.88,1.88,0,0,1-1.806,2.134,1.392,1.392,0,0,1-1.223-.623h-.016v2.158h-.714Zm.714,1.059a1.6,1.6,0,0,0,.033.3,1.114,1.114,0,0,0,1.083.845c.763,0,1.207-.623,1.207-1.536,0-.8-.419-1.477-1.183-1.477a1.154,1.154,0,0,0-1.092.895,1.2,1.2,0,0,0-.048.3Z"/>
    <path d="M309.835,304.1a1.272,1.272,0,0,0,1.362,1.379,2.609,2.609,0,0,0,1.1-.2l.124.517a3.226,3.226,0,0,1-1.322.246,1.845,1.845,0,0,1-1.954-2,1.929,1.929,0,0,1,1.864-2.142,1.682,1.682,0,0,1,1.641,1.872,2.8,2.8,0,0,1-.024.336Zm2.117-.517a1.027,1.027,0,0,0-1-1.174,1.2,1.2,0,0,0-1.108,1.174Z"/>
    <path d="M316.374,305.8a2.672,2.672,0,0,1-1.142.229,1.887,1.887,0,0,1-1.978-2.027,2.019,2.019,0,0,1,2.135-2.11,2.433,2.433,0,0,1,1,.205l-.164.558a1.687,1.687,0,0,0-.838-.188,1.5,1.5,0,0,0-.025,2.988,2.06,2.06,0,0,0,.887-.2Z"/>
    <path d="M318.194,300.836v1.141h1.035v.55h-1.035v2.143c0,.492.14.771.542.771a1.584,1.584,0,0,0,.418-.049l.034.542a1.787,1.787,0,0,1-.641.1,1,1,0,0,1-.779-.3,1.471,1.471,0,0,1-.28-1.035v-2.167h-.616v-.55h.616v-.953Z"/>
    <path d="M320.843,300.86a.448.448,0,0,1-.9,0,.441.441,0,0,1,.452-.451A.428.428,0,0,1,320.843,300.86Zm-.8,5.09v-3.973h.722v3.973Z"/>
    <path d="M322.237,301.977l.781,2.233a10.214,10.214,0,0,1,.32,1.018h.024c.091-.329.2-.657.337-1.018l.772-2.233h.755l-1.56,3.973h-.689l-1.511-3.973Z"/>
    <path d="M326.226,304.1a1.271,1.271,0,0,0,1.362,1.379,2.613,2.613,0,0,0,1.1-.2l.124.517a3.228,3.228,0,0,1-1.323.246,1.846,1.846,0,0,1-1.954-2,1.929,1.929,0,0,1,1.864-2.142,1.683,1.683,0,0,1,1.642,1.872,3.027,3.027,0,0,1-.024.336Zm2.117-.517a1.028,1.028,0,0,0-1-1.174,1.2,1.2,0,0,0-1.109,1.174Z"/>
    <path d="M335.268,303.931a1.942,1.942,0,0,1-1.979,2.109,1.889,1.889,0,0,1-1.9-2.044,1.939,1.939,0,0,1,1.97-2.109A1.882,1.882,0,0,1,335.268,303.931Zm-3.153.041c0,.87.5,1.527,1.206,1.527.69,0,1.207-.648,1.207-1.544,0-.673-.337-1.526-1.19-1.526S332.115,303.217,332.115,303.972Z"/>
    <path d="M336.405,301.977l.526,2.019c.115.443.221.855.3,1.265h.024c.09-.4.222-.829.353-1.256l.648-2.028h.607l.617,1.987c.147.475.262.894.352,1.3h.026a11.543,11.543,0,0,1,.3-1.289l.567-2h.714l-1.281,3.973H339.5l-.607-1.9a13.3,13.3,0,0,1-.354-1.3h-.016a11.637,11.637,0,0,1-.361,1.314l-.641,1.887h-.656l-1.2-3.973Z"/>
    <path d="M342.156,303.053c0-.411-.009-.747-.033-1.076h.641l.041.657h.016a1.461,1.461,0,0,1,1.314-.747c.55,0,1.4.328,1.4,1.691v2.372h-.723v-2.29c0-.64-.237-1.174-.919-1.174a1.062,1.062,0,0,0-1.018,1.076v2.388h-.722Z"/>
    <path d="M347.112,304.1a1.272,1.272,0,0,0,1.363,1.379,2.6,2.6,0,0,0,1.1-.2l.124.517a3.222,3.222,0,0,1-1.322.246,1.845,1.845,0,0,1-1.954-2,1.929,1.929,0,0,1,1.864-2.142,1.683,1.683,0,0,1,1.642,1.872,2.755,2.755,0,0,1-.025.336Zm2.117-.517a1.027,1.027,0,0,0-1-1.174,1.2,1.2,0,0,0-1.109,1.174Z"/>
    <path d="M350.819,303.217c0-.468-.008-.87-.033-1.24h.632l.025.78h.033a1.192,1.192,0,0,1,1.1-.87.8.8,0,0,1,.2.024v.682a1.053,1.053,0,0,0-.246-.025,1.013,1.013,0,0,0-.969.928,2.067,2.067,0,0,0-.033.336v2.118h-.714Z"/>
    <path d="M353.4,305.211a1.887,1.887,0,0,0,.952.288c.526,0,.772-.263.772-.592s-.2-.533-.738-.73c-.715-.254-1.051-.649-1.051-1.124a1.224,1.224,0,0,1,1.37-1.166,1.993,1.993,0,0,1,.978.246l-.181.525a1.551,1.551,0,0,0-.813-.229c-.427,0-.665.246-.665.542,0,.328.238.475.755.673.69.262,1.043.607,1.043,1.2,0,.7-.542,1.19-1.486,1.19a2.266,2.266,0,0,1-1.116-.27Z"/>
    <path d="M356.487,305.523a.486.486,0,0,1,.493-.517.518.518,0,0,1-.008,1.034A.484.484,0,0,1,356.487,305.523Z"/>
  </g>
  <g>
    <g class="c">
      <path class="g" d="M52.124,33.162h2.524a1.151,1.151,0,0,0,.594-.142.356.356,0,0,0,0-.68,1.151,1.151,0,0,0-.594-.142H52.964a1.145,1.145,0,0,0-.593.142.4.4,0,0,0-.247.34Zm0,1.456a.4.4,0,0,0,.247.339,1.145,1.145,0,0,0,.593.142h3.088c.183,0,.276.082.276.247v.481c0,.164-.093.243-.276.243H52.964a3.512,3.512,0,0,1-1.781-.426,1.217,1.217,0,0,1-.742-1.026V32.68a1.215,1.215,0,0,1,.742-1.027,3.522,3.522,0,0,1,1.781-.425h1.684a3.54,3.54,0,0,1,1.781.425,1.216,1.216,0,0,1,.739,1.027,1.169,1.169,0,0,1-.65.971,3.34,3.34,0,0,1-1.594.474v0h-1.96a1.146,1.146,0,0,0-.593.145A.408.408,0,0,0,52.124,34.618Z"/>
      <path class="g" d="M62.693,33.005h2.92c.194,0,.291.082.291.25v.5c0,.168-.1.25-.291.25h-2.92c-.194,0-.287-.082-.287-.25v-.5C62.406,33.087,62.5,33.005,62.693,33.005Z"/>
      <path class="g" d="M73.147,32.68v1.938a.4.4,0,0,0,.246.339,1.15,1.15,0,0,0,.6.142h3.084c.183,0,.276.082.276.247v.481c0,.164-.093.243-.276.243H73.99a3.524,3.524,0,0,1-1.784-.426,1.216,1.216,0,0,1-.743-1.026V32.68a1.214,1.214,0,0,1,.743-1.027,3.534,3.534,0,0,1,1.784-.425h3.084c.183,0,.276.078.276.242v.482c0,.164-.093.246-.276.246H73.99a1.15,1.15,0,0,0-.6.142A.4.4,0,0,0,73.147,32.68Z"/>
      <path class="g" d="M89.405,32.68v1.938a1.216,1.216,0,0,1-.743,1.026,3.5,3.5,0,0,1-1.777.426h-1.96a3.3,3.3,0,0,1-1.6-.478,1.17,1.17,0,0,1-.649-.974V32.68a1.216,1.216,0,0,1,.739-1.027,3.546,3.546,0,0,1,1.785-.425h1.683a3.512,3.512,0,0,1,1.777.425A1.214,1.214,0,0,1,89.405,32.68Zm-1.68,1.938V32.68a.4.4,0,0,0-.246-.34,1.166,1.166,0,0,0-.594-.142H85.2a1.164,1.164,0,0,0-.6.142.4.4,0,0,0-.246.34v1.938a.4.4,0,0,0,.246.339,1.164,1.164,0,0,0,.6.142h1.683a1.166,1.166,0,0,0,.594-.142A.4.4,0,0,0,87.725,34.618Z"/>
      <path class="g" d="M95.289,31.228H98.94a2.428,2.428,0,0,1,.769.1,4.881,4.881,0,0,1,.631.272,3.624,3.624,0,0,1,1.68-.369h.84a3.538,3.538,0,0,1,1.781.425,1.219,1.219,0,0,1,.747,1.027v3.147c0,.164-.1.243-.284.243h-1.12c-.187,0-.28-.079-.28-.243V32.68a.406.406,0,0,0-.25-.34,1.156,1.156,0,0,0-.594-.142h-.84a1.165,1.165,0,0,0-.59.139.413.413,0,0,0-.253.339v2.666h0v.485c0,.164-.094.243-.277.243H99.777c-.187,0-.277-.079-.277-.243V32.676a.412.412,0,0,0-.254-.339,1.159,1.159,0,0,0-.589-.139h-.84a1.176,1.176,0,0,0-.594.139.4.4,0,0,0-.25.339v3.151c0,.164-.094.243-.276.243H95.573c-.191,0-.284-.079-.284-.243v-4.6Z"/>
      <path class="g" d="M110.708,31.228h3.647a2.46,2.46,0,0,1,.773.1,5.13,5.13,0,0,1,.631.272,3.619,3.619,0,0,1,1.676-.369h.844a3.54,3.54,0,0,1,1.781.425,1.216,1.216,0,0,1,.743,1.027v3.147c0,.164-.094.243-.28.243H119.4c-.191,0-.284-.079-.284-.243V32.68a.4.4,0,0,0-.246-.34,1.166,1.166,0,0,0-.594-.142h-.844a1.173,1.173,0,0,0-.59.139.411.411,0,0,0-.25.339v2.666h0v.485c0,.164-.093.243-.276.243H115.2c-.186,0-.28-.079-.28-.243V32.676a.411.411,0,0,0-.25-.339,1.171,1.171,0,0,0-.59-.139h-.844a1.169,1.169,0,0,0-.589.139.4.4,0,0,0-.251.339v3.151c0,.164-.093.243-.276.243h-1.124c-.19,0-.283-.079-.283-.243v-4.6Z"/>
      <path class="g" d="M127.806,33.162h2.528a1.163,1.163,0,0,0,.593-.142.358.358,0,0,0,0-.68,1.163,1.163,0,0,0-.593-.142H128.65a1.16,1.16,0,0,0-.6.142.4.4,0,0,0-.247.34Zm0,1.456a.4.4,0,0,0,.247.339,1.16,1.16,0,0,0,.6.142h3.084c.187,0,.276.082.276.247v.481c0,.164-.089.243-.276.243H128.65a3.532,3.532,0,0,1-1.784-.426,1.22,1.22,0,0,1-.74-1.026V32.68a1.218,1.218,0,0,1,.74-1.027,3.542,3.542,0,0,1,1.784-.425h1.684a3.515,3.515,0,0,1,1.777.425,1.216,1.216,0,0,1,.743,1.027,1.166,1.166,0,0,1-.653.971,3.321,3.321,0,0,1-1.591.474v0h-1.96a1.161,1.161,0,0,0-.6.145A.41.41,0,0,0,127.806,34.618Z"/>
      <path class="g" d="M143.789,32.68a.414.414,0,0,0-.25-.34,1.144,1.144,0,0,0-.59-.142h-1.781l-.007,0h-.045v0h-.023l-.018,0h-.023s-.007,0-.015,0h0a.017.017,0,0,0-.015.008h-.026a.04.04,0,0,1-.015,0l-.015,0h-.008l-.015,0h0l-.015,0v0H140.9l0,0v0c-.007,0-.011,0-.015,0h0l-.012,0h-.007l-.008,0h-.011s0,0-.011,0v.007h0c-.007,0-.011,0-.011,0h-.011l0,0-.011,0,0,0h-.011l-.007,0,0,0h0l0,0-.011,0h0l-.011,0,0,0h0l-.007,0h0l0,0-.007,0h0a.016.016,0,0,1-.011,0v0l-.008,0h0l0,0h0l-.008,0,0,0h0l0,0h-.007l0,0h0c0,.007,0,.007-.011.007l-.008.008,0,0-.008,0-.007,0a.387.387,0,0,0-.191.306v3.147c0,.164-.089.243-.276.243h-1.124c-.186,0-.283-.079-.283-.243V32.68a1.222,1.222,0,0,1,.743-1.027,3.531,3.531,0,0,1,1.784-.425h1.684a3.481,3.481,0,0,1,1.769.422,1.234,1.234,0,0,1,.751,1.015v.258c0,.16-.094.239-.28.239h-1.124c-.183,0-.276-.079-.276-.239Z"/>
      <path class="g" d="M152.334,32.68v1.938a.4.4,0,0,0,.247.339,1.15,1.15,0,0,0,.6.142h3.084c.187,0,.276.082.276.247v.481c0,.164-.089.243-.276.243h-3.084a3.532,3.532,0,0,1-1.784-.426,1.224,1.224,0,0,1-.743-1.026V32.68a1.222,1.222,0,0,1,.743-1.027,3.542,3.542,0,0,1,1.784-.425h3.084c.187,0,.276.078.276.242v.482c0,.164-.089.246-.276.246h-3.084a1.15,1.15,0,0,0-.6.142A.4.4,0,0,0,152.334,32.68Z"/>
      <path class="g" d="M164.247,33.162h2.528a1.166,1.166,0,0,0,.594-.142.358.358,0,0,0,0-.68,1.166,1.166,0,0,0-.594-.142h-1.684a1.16,1.16,0,0,0-.6.142.4.4,0,0,0-.247.34Zm0,1.456a.4.4,0,0,0,.247.339,1.16,1.16,0,0,0,.6.142h3.084c.187,0,.276.082.276.247v.481c0,.164-.089.243-.276.243h-3.084a3.532,3.532,0,0,1-1.784-.426,1.224,1.224,0,0,1-.743-1.026V32.68a1.222,1.222,0,0,1,.743-1.027,3.542,3.542,0,0,1,1.784-.425h1.684a3.515,3.515,0,0,1,1.777.425,1.214,1.214,0,0,1,.743,1.027,1.166,1.166,0,0,1-.653.971,3.317,3.317,0,0,1-1.591.474v0h-1.96a1.161,1.161,0,0,0-.6.145A.41.41,0,0,0,164.247,34.618Z"/>
      <path class="g" d="M187.939,36.551a.414.414,0,0,0-.254-.339,1.182,1.182,0,0,0-.59-.142h-1.96a2.8,2.8,0,0,1-1.646-.426,1.246,1.246,0,0,1-.6-1.026V32.68a1.214,1.214,0,0,1,.743-1.027,3.52,3.52,0,0,1,1.781-.425H187.1a3.527,3.527,0,0,1,1.781.425,1.216,1.216,0,0,1,.739,1.027v3.875a1.209,1.209,0,0,1-.739,1.019A3.517,3.517,0,0,1,187.1,38h-2.523c-.183,0-.277-.078-.277-.239v-.485c0-.157.094-.239.277-.239H187.1a1.146,1.146,0,0,0,.594-.142.4.4,0,0,0,.25-.34Zm-3.367-1.933a.4.4,0,0,0,.246.339,1.146,1.146,0,0,0,.594.142h2.527v-.478h0V32.68a.4.4,0,0,0-.25-.34,1.146,1.146,0,0,0-.594-.142h-1.683a1.146,1.146,0,0,0-.594.142.4.4,0,0,0-.246.34Z"/>
      <path class="g" d="M194.8,31.228h3.651a2.428,2.428,0,0,1,.769.1,5.065,5.065,0,0,1,.631.272,3.624,3.624,0,0,1,1.68-.369h.84a3.538,3.538,0,0,1,1.781.425,1.214,1.214,0,0,1,.743,1.027v3.147c0,.164-.093.243-.28.243H203.5c-.187,0-.284-.079-.284-.243V32.68a.4.4,0,0,0-.246-.34,1.166,1.166,0,0,0-.594-.142h-.84a1.175,1.175,0,0,0-.593.139.407.407,0,0,0-.25.339v3.151c0,.164-.094.243-.277.243h-1.123c-.187,0-.277-.079-.277-.243V32.676a.412.412,0,0,0-.254-.339,1.169,1.169,0,0,0-.589-.139h-.84a1.176,1.176,0,0,0-.594.139.4.4,0,0,0-.25.339v3.151c0,.164-.094.243-.276.243h-1.124c-.191,0-.284-.079-.284-.243v-4.6Z"/>
      <path class="g" d="M227.882,32.68a.4.4,0,0,0-.246-.34,1.166,1.166,0,0,0-.594-.142h-2.527v3.629c0,.164-.09.243-.277.243h-1.123c-.187,0-.28-.079-.28-.243V29.533c0-.164.093-.243.28-.243h1.123c.187,0,.277.079.277.243v1.213a.4.4,0,0,0,.246.34,1.2,1.2,0,0,0,.6.142h1.684a3.515,3.515,0,0,1,1.777.425,1.214,1.214,0,0,1,.743,1.027v3.147c0,.164-.093.243-.276.243h-1.124c-.187,0-.28-.079-.28-.243V32.68Z"/>
      <path class="g" d="M27.738,14.428a5.893,5.893,0,0,1,0,11.782c-1.579,0-5.738.008-5.738,0V20.319A5.817,5.817,0,0,1,27.738,14.428Z"/>
      <path class="g" d="M50.037,14.6H59.15a6.47,6.47,0,0,1,1.923.235,12.631,12.631,0,0,1,1.576.646,9.43,9.43,0,0,1,4.192-.881h2.1a9.11,9.11,0,0,1,4.446,1.016q1.86,1.013,1.86,2.438v7.474c0,.388-.236.578-.706.578H71.75c-.47,0-.7-.19-.7-.578V18.057c0-.318-.206-.587-.62-.814a3.08,3.08,0,0,0-1.482-.336h-2.1a3.089,3.089,0,0,0-1.475.332.981.981,0,0,0-.627.806v7.486c0,.388-.231.578-.694.578h-2.8c-.463,0-.694-.19-.694-.578V18.045a.98.98,0,0,0-.628-.806,3.082,3.082,0,0,0-1.474-.332h-2.1a3.126,3.126,0,0,0-1.482.332c-.415.22-.62.489-.62.806v7.486c0,.388-.231.578-.691.578H50.743c-.47,0-.706-.19-.706-.578V14.6Z"/>
      <path class="g" d="M83.641,19.2h6.306a3.072,3.072,0,0,0,1.482-.336c.414-.224.623-.5.623-.81s-.209-.587-.623-.814a3.072,3.072,0,0,0-1.482-.336h-4.2a3.066,3.066,0,0,0-1.486.336c-.411.227-.616.5-.616.814Zm0,3.453c0,.317.2.586.616.81a3.022,3.022,0,0,0,1.486.34h7.706c.459,0,.69.19.69.579v1.146c0,.388-.231.578-.69.578H85.743a9.127,9.127,0,0,1-4.454-1.015q-1.854-1.014-1.852-2.438v-4.6q0-1.423,1.852-2.438A9.116,9.116,0,0,1,85.743,14.6h4.2a9.075,9.075,0,0,1,4.442,1.016q1.854,1.013,1.852,2.438a2.758,2.758,0,0,1-1.628,2.3,8.639,8.639,0,0,1-3.972,1.127V21.5h-4.9a3.022,3.022,0,0,0-1.486.343Q83.641,22.184,83.641,22.656Z"/>
      <path class="g" d="M113.052,18.057c0-.318-.209-.587-.623-.814a3.068,3.068,0,0,0-1.479-.336h-4.229a2.986,2.986,0,0,0-1.468.336c-.407.227-.612.5-.612.814v7.474c0,.388-.228.578-.691.578h-2.807c-.47,0-.706-.19-.706-.578V14.6H110.95a9.063,9.063,0,0,1,4.439,1.016q1.854,1.013,1.852,2.438v7.474c0,.388-.228.578-.691.578h-2.807c-.459,0-.691-.19-.691-.578V18.057Z"/>
      <path class="g" d="M138.245,13.453v9.2a2.77,2.77,0,0,1-1.628,2.307,8.593,8.593,0,0,1-3.976,1.116v.03h-4.894a9.105,9.105,0,0,1-4.454-1.015q-1.854-1.014-1.852-2.438v-4.6q0-1.423,1.852-2.438a9.094,9.094,0,0,1,4.454-1.016h4.2a3.094,3.094,0,0,0,1.46-.328,1.011,1.011,0,0,0,.642-.8v-2.9c0-.385.232-.579.691-.579h2.807c.463,0,.695.194.695.579v2.874Zm-12.6,9.2c0,.317.2.586.612.81a3.027,3.027,0,0,0,1.49.34h4.2a3.024,3.024,0,0,0,1.479-.34c.414-.224.623-.493.623-.81V16.907h-6.3a3.072,3.072,0,0,0-1.49.336c-.407.227-.612.5-.612.814Z"/>
      <path class="g" d="M146.645,19.2h6.3a3.084,3.084,0,0,0,1.483-.336c.414-.224.619-.5.619-.81s-.2-.587-.619-.814a3.084,3.084,0,0,0-1.483-.336h-4.2a3.053,3.053,0,0,0-1.486.336c-.411.227-.616.5-.616.814Zm0,3.453c0,.317.2.586.616.81a3.009,3.009,0,0,0,1.486.34h7.7c.462,0,.694.19.694.579v1.146c0,.388-.232.578-.694.578h-7.7a9.116,9.116,0,0,1-4.454-1.015q-1.854-1.014-1.852-2.438v-4.6q0-1.423,1.852-2.438a9.1,9.1,0,0,1,4.454-1.016h4.2a9.09,9.09,0,0,1,4.443,1.016c1.232.675,1.852,1.489,1.852,2.438a2.766,2.766,0,0,1-1.628,2.3,8.656,8.656,0,0,1-3.976,1.127V21.5h-4.894a3.009,3.009,0,0,0-1.486.343Q146.645,22.184,146.645,22.656Z"/>
      <path class="g" d="M167.645,10.579V25.531c0,.388-.232.578-.691.578h-2.807c-.471,0-.706-.19-.706-.578V10.579c0-.385.235-.579.706-.579h2.807C167.413,10,167.645,10.194,167.645,10.579Z"/>
      <path class="g" d="M208.947,18.057v4.6c0,.948-.62,1.762-1.852,2.438a9.1,9.1,0,0,1-4.443,1.015h-4.9a8.6,8.6,0,0,1-3.983-1.135,2.785,2.785,0,0,1-1.628-2.318v-4.6q0-1.423,1.852-2.438a9.1,9.1,0,0,1,4.454-1.016h4.2a9.09,9.09,0,0,1,4.443,1.016C208.327,16.294,208.947,17.108,208.947,18.057Zm-4.193,4.6v-4.6c0-.318-.2-.587-.62-.814a3.08,3.08,0,0,0-1.482-.336h-4.2a3.053,3.053,0,0,0-1.486.336c-.411.227-.616.5-.616.814v4.6c0,.317.2.586.616.81a3.009,3.009,0,0,0,1.486.34h4.2a3.036,3.036,0,0,0,1.482-.34C204.549,23.242,204.754,22.973,204.754,22.656Z"/>
      <path class="g" d="M225.754,18.057c0-.318-.2-.587-.62-.814a3.069,3.069,0,0,0-1.482-.336h-4.23a3,3,0,0,0-1.467.336.963.963,0,0,0-.608.814v7.474c0,.388-.232.578-.691.578h-2.807c-.471,0-.706-.19-.706-.578V14.6h10.509a9.079,9.079,0,0,1,4.443,1.016q1.854,1.013,1.852,2.438v7.474c0,.388-.232.578-.691.578h-2.807c-.463,0-.7-.19-.7-.578V18.057Z"/>
      <path class="g" d="M212.673,30.869c0,.135.186.161.35.254a1.23,1.23,0,0,0,.6.09l1.657-.023a3.862,3.862,0,0,1,1.938.5,1.241,1.241,0,0,1,.6,1.026v1.938a1.226,1.226,0,0,1-.743,1.027,3.535,3.535,0,0,1-1.785.425H213.61a3.512,3.512,0,0,1-1.777-.425,1.226,1.226,0,0,1-.743-1.027V30.78c0-.15-.038-1.2-.015-1.553a12.466,12.466,0,0,1,1.586.059c.041.28.012,1.527.012,1.58Zm3.464,1.848a.408.408,0,0,0-.246-.343,1.273,1.273,0,0,0-.609-.2l-1.209-.015-1.318-.033.015.59h0v1.941a.4.4,0,0,0,.25.34,1.141,1.141,0,0,0,.59.142h1.683a1.154,1.154,0,0,0,.6-.142.4.4,0,0,0,.246-.34Z"/>
      <path class="g" d="M182.641,23.808a2.428,2.428,0,0,0,1.3-.335.861.861,0,0,0-.006-1.6,2.578,2.578,0,0,0-1.29-.356h-3.678a7.254,7.254,0,0,1-3.9-1,2.866,2.866,0,0,1-1.62-2.417,2.88,2.88,0,0,1,1.62-2.424,7.228,7.228,0,0,1,3.9-1.009h7.346q.617,0,.616.575v1.141q0,.576-.616.576h-7.346a2.408,2.408,0,0,0-1.3.335.872.872,0,0,0,0,1.611,2.408,2.408,0,0,0,1.3.335H183.2a7.1,7.1,0,0,1,3.5,1.136,2.778,2.778,0,0,1,1.447,2.3,2.878,2.878,0,0,1-1.621,2.422,7.2,7.2,0,0,1-3.886,1.011h-7.962c-.412,0-.617-.192-.617-.576V24.383c0-.383.2-.575.617-.575Z"/>
    </g>
    <path class="a" d="M39.711,26.21a5.893,5.893,0,1,1,5.738-5.891V26.2C45.449,26.221,41.133,26.21,39.711,26.21Z"/>
  </g>
  <g>
    <path class="d" d="M243.325,133.249h-3.837v-10.3h3.837v1.593a3.343,3.343,0,0,1,1.528-1.352,7,7,0,0,1,2.662-.4,7.148,7.148,0,0,1,3.178.571,2.837,2.837,0,0,1,1.488,1.79,3.624,3.624,0,0,1,1.584-1.8,5.935,5.935,0,0,1,2.809-.561,6.833,6.833,0,0,1,3.967.93,3.258,3.258,0,0,1,1.3,2.838v6.689H258v-5.213a2.223,2.223,0,0,0-.563-1.81,3.652,3.652,0,0,0-2.109-.434,3.072,3.072,0,0,0-2.051.551,2.31,2.31,0,0,0-.622,1.81v5.1h-3.836v-5.213a2.2,2.2,0,0,0-.572-1.81,3.8,3.8,0,0,0-2.161-.434,3.231,3.231,0,0,0-2.11.557,2.245,2.245,0,0,0-.653,1.8Z"/>
    <path class="d" d="M273.938,129.806h3.614v.157a2.976,2.976,0,0,1-1.144,2.622,6.76,6.76,0,0,1-3.775.8h-3.564a5.93,5.93,0,0,1-3.678-.979,3.353,3.353,0,0,1-1.271-2.828v-2.813a3.617,3.617,0,0,1,1.271-2.981,5.667,5.667,0,0,1,3.658-1.033h3.584a5.711,5.711,0,0,1,3.674,1.028,3.623,3.623,0,0,1,1.265,2.986v2.213h-9.626c0,.033,0,.082-.01.147s-.01.108-.01.128a1.485,1.485,0,0,0,.531,1.284,3.043,3.043,0,0,0,1.756.389h1.609a3.533,3.533,0,0,0,1.62-.237A1.256,1.256,0,0,0,273.938,129.806Zm-5.992-3.108h5.911v-.04a1.136,1.136,0,0,0-.481-1.042,3.325,3.325,0,0,0-1.675-.3h-1.579a3.333,3.333,0,0,0-1.685.31,1.128,1.128,0,0,0-.491,1.037Z"/>
    <path class="d" d="M283.8,133.249h-3.836v-10.3H283.8v1.593a3.593,3.593,0,0,1,1.685-1.352,9.079,9.079,0,0,1,3.1-.4,6.629,6.629,0,0,1,3.9.945,3.263,3.263,0,0,1,1.3,2.823v6.689h-3.826v-5.213a2.069,2.069,0,0,0-.638-1.81,4.725,4.725,0,0,0-2.439-.434,3.865,3.865,0,0,0-2.379.566,2.288,2.288,0,0,0-.708,1.894Z"/>
    <path class="d" d="M306.45,124.809V118.6h3.826v14.647H306.45V131.4a1.842,1.842,0,0,1-1.189,1.559,9.678,9.678,0,0,1-3.558.467,8.732,8.732,0,0,1-4.357-.787,2.9,2.9,0,0,1-1.26-2.676V126.54a3.119,3.119,0,0,1,1.26-2.823,8.2,8.2,0,0,1,4.287-.826,9.861,9.861,0,0,1,3.451.433A2.23,2.23,0,0,1,306.45,124.809Zm-2.368,5.764a3.324,3.324,0,0,0,1.878-.4,1.547,1.547,0,0,0,.552-1.343v-1.239a1.705,1.705,0,0,0-.527-1.441,3.3,3.3,0,0,0-1.9-.4h-1.741a3.22,3.22,0,0,0-1.867.414,1.571,1.571,0,0,0-.562,1.357v1.289a1.583,1.583,0,0,0,.541,1.357,3.276,3.276,0,0,0,1.888.4Z"/>
    <path class="d" d="M322.489,129.806H326.1v.157a2.976,2.976,0,0,1-1.144,2.622,6.763,6.763,0,0,1-3.775.8H317.62a5.935,5.935,0,0,1-3.679-.979,3.355,3.355,0,0,1-1.27-2.828v-2.813a3.619,3.619,0,0,1,1.27-2.981,5.672,5.672,0,0,1,3.659-1.033h3.584a5.706,5.706,0,0,1,3.673,1.028,3.621,3.621,0,0,1,1.266,2.986v2.213H316.5c0,.033,0,.082-.011.147s-.009.108-.009.128a1.482,1.482,0,0,0,.531,1.284,3.041,3.041,0,0,0,1.756.389h1.609a3.533,3.533,0,0,0,1.62-.237A1.256,1.256,0,0,0,322.489,129.806ZM316.5,126.7h5.911v-.04a1.136,1.136,0,0,0-.481-1.042,3.328,3.328,0,0,0-1.675-.3h-1.579a3.338,3.338,0,0,0-1.686.31,1.13,1.13,0,0,0-.49,1.037Z"/>
    <path class="d" d="M332.484,133.249h-3.837V118.6h3.837Z"/>
    <path class="d" d="M334.8,129.973l4.068-.01V130a.734.734,0,0,0,.5.7,4.169,4.169,0,0,0,1.589.222h2.8a2.745,2.745,0,0,0,1.184-.182.691.691,0,0,0-.025-1.21,3.016,3.016,0,0,0-1.2-.251l-3.8-.069a7.972,7.972,0,0,1-3.978-.718,2.633,2.633,0,0,1-1.1-2.4,2.832,2.832,0,0,1,1.194-2.568,7.682,7.682,0,0,1,4.009-.777h4.352a5.17,5.17,0,0,1,3.087.747,2.748,2.748,0,0,1,1.023,2.313h-3.837a.958.958,0,0,0-.617-.448,4.342,4.342,0,0,0-1.285-.153h-2.683a2.662,2.662,0,0,0-1.078.153.522.522,0,0,0-.309.506.538.538,0,0,0,.325.522,4.885,4.885,0,0,0,1.477.226h4.687a4.775,4.775,0,0,1,3,.821,3.024,3.024,0,0,1,.953,2.464,3.148,3.148,0,0,1-1.059,2.7,6.5,6.5,0,0,1-3.729.787h-3.9q-3.3,0-4.464-.748A2.979,2.979,0,0,1,334.8,129.973Z"/>
    <path class="d" d="M356.211,133.387a7.192,7.192,0,0,1-4.1-.886,3.358,3.358,0,0,1-1.224-2.921v-2.813a3.658,3.658,0,0,1,1.194-3.114,7.037,7.037,0,0,1,4.109-.9h3.857a7,7,0,0,1,4.063.91,3.441,3.441,0,0,1,1.241,2.976v2.882a3.455,3.455,0,0,1-1.2,2.98,7.129,7.129,0,0,1-4.1.886Zm1.012-2.794h1.8a3.33,3.33,0,0,0,1.934-.418,1.668,1.668,0,0,0,.557-1.422v-1.367a1.638,1.638,0,0,0-.568-1.411,3.332,3.332,0,0,0-1.923-.418h-1.8a3.4,3.4,0,0,0-1.969.413,1.75,1.75,0,0,0-.541,1.475v1.328a1.622,1.622,0,0,0,.571,1.4A3.387,3.387,0,0,0,357.223,130.593Z"/>
    <path class="d" d="M371.57,133.249h-3.836v-10.3h3.836v1.593a3.6,3.6,0,0,1,1.686-1.352,9.073,9.073,0,0,1,3.1-.4,6.63,6.63,0,0,1,3.9.945,3.263,3.263,0,0,1,1.3,2.823v6.689h-3.827v-5.213a2.072,2.072,0,0,0-.637-1.81,4.729,4.729,0,0,0-2.44-.434,3.869,3.869,0,0,0-2.379.566,2.291,2.291,0,0,0-.708,1.894Z"/>
    <path class="d" d="M397.716,133.249H392.7l8.23-14.647H406.8l8.077,14.647h-5.051l-1.458-2.439h-9.18Zm3.209-5.961h5.79l-2.926-5.184Z"/>
    <path class="d" d="M415.647,128.38l4.544-.01v.266a1.279,1.279,0,0,0,.415,1.116,3.44,3.44,0,0,0,1.742.29h5.779a2.028,2.028,0,0,0,1.215-.28,1.1,1.1,0,0,0,.364-.93,1.058,1.058,0,0,0-.42-.944,4.24,4.24,0,0,0-1.807-.384l-7.226-.157q-2.713-.079-3.67-1a4.623,4.623,0,0,1-.956-3.364,7.129,7.129,0,0,1,.253-2.075,3.159,3.159,0,0,1,.809-1.358,3.781,3.781,0,0,1,1.721-.865,16.442,16.442,0,0,1,3.462-.256H428.9a6.027,6.027,0,0,1,3.761.925,3.627,3.627,0,0,1,1.149,3c0,.091,0,.19,0,.3s-.016.275-.035.511h-4.434V123.1a1.448,1.448,0,0,0-.38-1.092,1.591,1.591,0,0,0-1.139-.363h-5.3a3.91,3.91,0,0,0-1.751.255.96.96,0,0,0-.426.895,1.05,1.05,0,0,0,.385.91,2.949,2.949,0,0,0,1.417.36l7.571.117a5.263,5.263,0,0,1,3.649,1.132,5.042,5.042,0,0,1,1.058,3.629,5.727,5.727,0,0,1-.39,2.361,3.428,3.428,0,0,1-1.31,1.427,4.482,4.482,0,0,1-1.65.536,21.1,21.1,0,0,1-3.017.162h-6.134q-3.774,0-5.051-.822a3.368,3.368,0,0,1-1.275-3.063c0-.085.006-.228.016-.428S415.627,128.668,415.647,128.38Z"/>
    <path class="d" d="M454.247,133.249H436.808v-5.155a2.5,2.5,0,0,1,1-2.026,4.717,4.717,0,0,1,2.676-.934l7.085-.571a5,5,0,0,0,1.716-.339.788.788,0,0,0,.461-.743v-.748a.773.773,0,0,0-.512-.723,3.758,3.758,0,0,0-1.533-.24h-3.937a3.634,3.634,0,0,0-2.09.442,1.759,1.759,0,0,0-.592,1.5.462.462,0,0,0,.01.084.463.463,0,0,1,.01.083.183.183,0,0,1,0,.05.061.061,0,0,1-.015.029h-4.271V122.93q0-2.538,1.269-3.521t4.723-.984h6.113a7.209,7.209,0,0,1,3.947.836,2.986,2.986,0,0,1,1.236,2.666v2.42a2.971,2.971,0,0,1-.952,2.292,4.312,4.312,0,0,1-2.652,1.013l-8.067.659a1.466,1.466,0,0,0-1.023.428,1.641,1.641,0,0,0-.323,1.106v.079h13.168Z"/>
  </g>
  <g class="h">
    <path class="g" d="M319.239,103.11h1.589l-.036.251v.511a1.784,1.784,0,0,0,.821,1.688,6.711,6.711,0,0,0,3.049.476h3.453a7.58,7.58,0,0,0,3.5-.52,2.164,2.164,0,0,0,.822-1.982,2.049,2.049,0,0,0-.569-1.675,4.059,4.059,0,0,0-2.334-.454h-5.583a6.413,6.413,0,0,1-3.71-.8,3.21,3.21,0,0,1-1.074-2.749,3.081,3.081,0,0,1,1.221-2.791q1.219-.8,4.468-.8h3a22.093,22.093,0,0,1,3.44.182,3.371,3.371,0,0,1,1.549.632,2.252,2.252,0,0,1,.67,1.008,4.765,4.765,0,0,1,.217,1.545V98h-1.58v-.2a1.986,1.986,0,0,0-.627-1.723,5.208,5.208,0,0,0-2.653-.441h-4.516a5.683,5.683,0,0,0-2.778.459,1.849,1.849,0,0,0-.716,1.687,1.921,1.921,0,0,0,.694,1.714,5.891,5.891,0,0,0,2.906.468h4.755q.808,0,1.364.026a8.437,8.437,0,0,1,.974.095,3.56,3.56,0,0,1,1.261.4,2.215,2.215,0,0,1,.969,1.091,5.525,5.525,0,0,1,.294,2.043,3.44,3.44,0,0,1-1.185,3,7.762,7.762,0,0,1-4.274.848h-4.482a6.905,6.905,0,0,1-3.79-.783,2.933,2.933,0,0,1-1.137-2.6l.027-.823Z"/>
    <path class="g" d="M342.7,107.464a17.348,17.348,0,0,1-3.146-.2,3.9,3.9,0,0,1-1.638-.7,3.081,3.081,0,0,1-1.017-1.449,7.276,7.276,0,0,1-.323-2.376V99.223a8.54,8.54,0,0,1,.306-2.562,3.082,3.082,0,0,1,1.016-1.5,4.062,4.062,0,0,1,1.656-.684,16.591,16.591,0,0,1,3.129-.217h4.411a17.231,17.231,0,0,1,3.115.208,4.055,4.055,0,0,1,1.691.706,2.962,2.962,0,0,1,.977,1.445,7.706,7.706,0,0,1,.323,2.445v3.593a7.714,7.714,0,0,1-.319,2.441,3.02,3.02,0,0,1-1,1.462,3.894,3.894,0,0,1-1.642.7,10.755,10.755,0,0,1-1.278.147q-.791.052-1.864.052Zm5.175-11.781H341.9a7.07,7.07,0,0,0-1.979.212,2.085,2.085,0,0,0-1.074.723,2.168,2.168,0,0,0-.4.882,8.4,8.4,0,0,0-.115,1.637v3.384a8.57,8.57,0,0,0,.111,1.667,2.054,2.054,0,0,0,.4.852,2.183,2.183,0,0,0,1.092.71,6.751,6.751,0,0,0,1.961.225h5.974a7.083,7.083,0,0,0,1.98-.212,2.035,2.035,0,0,0,1.455-1.562,7.082,7.082,0,0,0,.116-1.481V98.938a7.193,7.193,0,0,0-.111-1.494,2.156,2.156,0,0,0-.386-.826,2.187,2.187,0,0,0-1.092-.71A6.763,6.763,0,0,0,347.873,95.683Z"/>
    <path class="g" d="M361.693,107.464a14.582,14.582,0,0,1-2.889-.2,3.56,3.56,0,0,1-1.513-.7,3.093,3.093,0,0,1-.933-1.419,7.6,7.6,0,0,1-.3-2.372V94.419h1.686v8.353a7.252,7.252,0,0,0,.107,1.48,2.22,2.22,0,0,0,.355.806,1.924,1.924,0,0,0,.994.709,5.68,5.68,0,0,0,1.784.225h5.432a5.69,5.69,0,0,0,1.793-.221,1.971,1.971,0,0,0,.994-.713,2.23,2.23,0,0,0,.347-.8,7.408,7.408,0,0,0,.106-1.489V94.419h1.687v8.258a8.264,8.264,0,0,1-.293,2.415,3.084,3.084,0,0,1-.923,1.471,3.3,3.3,0,0,1-1.5.7,9.214,9.214,0,0,1-1.176.147q-.723.052-1.718.052Z"/>
    <path class="g" d="M376.126,107.308h-1.643V94.419h9.436a8.792,8.792,0,0,1,4.172.654,2.631,2.631,0,0,1,1.029,2.41v1.55a2.507,2.507,0,0,1-.506,1.74,3.5,3.5,0,0,1-1.819.831,2.355,2.355,0,0,1,1.629.744,2.614,2.614,0,0,1,.555,1.766v3.194h-1.643v-2.874a2.148,2.148,0,0,0-.567-1.722,2.032,2.032,0,0,0-.924-.347,10.373,10.373,0,0,0-1.7-.112h-8.015Zm8.325-11.487h-8.325v4.943h8.325a4.364,4.364,0,0,0,2.357-.429,2.063,2.063,0,0,0,.582-1.735v-.615a2.066,2.066,0,0,0-.582-1.726A4.289,4.289,0,0,0,384.451,95.821Z"/>
    <path class="g" d="M397.481,107.464a15.219,15.219,0,0,1-2.973-.2,3.57,3.57,0,0,1-1.518-.7,3.088,3.088,0,0,1-.954-1.445,7.794,7.794,0,0,1-.3-2.38V99.223a8.938,8.938,0,0,1,.292-2.549,3.14,3.14,0,0,1,.958-1.51,3.489,3.489,0,0,1,1.542-.693,15.152,15.152,0,0,1,2.926-.208h4.158q3.228,0,4.363.784a3.231,3.231,0,0,1,1.134,2.852v.684H405.6v-.191a2.713,2.713,0,0,0-.68-2.112,3.661,3.661,0,0,0-2.392-.6h-5.725a6.167,6.167,0,0,0-1.824.212,1.942,1.942,0,0,0-1.016.723,2.34,2.34,0,0,0-.356.84,8.4,8.4,0,0,0-.115,1.662v3.419a8.952,8.952,0,0,0,.107,1.649,2.141,2.141,0,0,0,.364.852,2.021,2.021,0,0,0,1.025.71,5.884,5.884,0,0,0,1.815.225h5.708a4.041,4.041,0,0,0,2.555-.589,2.724,2.724,0,0,0,.684-2.137v-.355h1.509l.008.337.01.3a6.2,6.2,0,0,1-.244,1.93,2.577,2.577,0,0,1-.812,1.186,3.323,3.323,0,0,1-1.487.623,17.869,17.869,0,0,1-3.111.191Z"/>
    <path class="g" d="M410.076,107.308V94.419H423.1v1.437H411.684V99.9h10.934v1.437H411.684v4.536H423.1v1.437Z"/>
  </g>
  <g>
    <path class="d" d="M245.66,107.464a20.241,20.241,0,0,1-3.4-.2,4.276,4.276,0,0,1-1.754-.7,3.1,3.1,0,0,1-1.1-1.449,6.882,6.882,0,0,1-.338-2.376V99.223a7.835,7.835,0,0,1,.338-2.562,3.079,3.079,0,0,1,1.1-1.5,4.354,4.354,0,0,1,1.777-.693,19.922,19.922,0,0,1,3.362-.208h4.765a20.167,20.167,0,0,1,3.38.208,4.286,4.286,0,0,1,1.777.693,3.1,3.1,0,0,1,1.082,1.488,7.165,7.165,0,0,1,.343,2.415v3.593a7.11,7.11,0,0,1-.343,2.419,3.161,3.161,0,0,1-1.082,1.484,4.217,4.217,0,0,1-1.763.7,20.363,20.363,0,0,1-3.394.2Zm1.095-3.22h2.574a5.238,5.238,0,0,0,2.851-.524,2.291,2.291,0,0,0,.7-1.943V99.95a2.291,2.291,0,0,0-.7-1.943,5.238,5.238,0,0,0-2.851-.524h-2.591a5.2,5.2,0,0,0-2.873.528,2.43,2.43,0,0,0-.681,2.009v1.792a2.22,2.22,0,0,0,.717,1.913A5.331,5.331,0,0,0,246.755,104.244Z"/>
    <path class="d" d="M269.812,94.419a14.783,14.783,0,0,1,2.159.125,4.574,4.574,0,0,1,1.367.412,3.082,3.082,0,0,1,1.461,1.519,6.922,6.922,0,0,1,.454,2.783,5.937,5.937,0,0,1-.908,3.743,3.79,3.79,0,0,1-3.074,1.1H263.7v3.211H259.64V94.419Zm-.143,3.211H263.7v3.264h5.968a1.422,1.422,0,0,0,1.136-.385,2.181,2.181,0,0,0,.324-1.372,1.6,1.6,0,0,0-.347-1.147A1.489,1.489,0,0,0,269.669,97.63Z"/>
    <path class="d" d="M292.046,97.562H281.6v1.947h9.84v2.709H281.6v1.974h10.608v3.116H277.555V94.419h14.491Z"/>
    <path class="d" d="M312.67,107.308h-5.932l-7.954-9.374v9.374h-4.043V94.419h5.994l7.9,9.453V94.419h4.034Z"/>
  </g>
  <g>
    <g>
      <circle class="a" cx="101" cy="160" r="72"/>
      <circle class="i" cx="101.325" cy="160" r="61.923"/>
    </g>
    <path class="a" d="M80.8,136c11.489,0,20.8,9.568,20.8,21.355S92.289,178.71,80.8,178.71c-5.724,0-20.8.027-20.8,0V157.355C60,145.568,69.311,136,80.8,136Z"/>
    <path class="j" d="M124.2,178.71c-11.489,0-20.8-9.554-20.8-21.355S112.711,136,124.2,136s20.8,9.568,20.8,21.355v21.314C145,178.75,129.356,178.71,124.2,178.71Z"/>
  </g>
</svg>
