<svg id="fffc18e4-52e8-40c9-a7b2-eea07f4fcbe6" data-name="Layer 1" xmlns="http://www.w3.org/2000/svg" width="56" height="55.999" viewBox="0 0 56 55.999"><defs><style>.b2af9bbc-980b-4475-b55d-16878cdccdf0{fill:#333;}</style></defs><path class="b2af9bbc-980b-4475-b55d-16878cdccdf0" d="M14.6,4.134a.739.739,0,0,0-.417,1.252l3.765,3.765a4.587,4.587,0,0,1,0,6.476l-2.317,2.317a4.587,4.587,0,0,1-6.476,0L5.386,14.178a.738.738,0,0,0-1.251.417A12.441,12.441,0,0,0,18.072,28.764,5.262,5.262,0,0,1,22.5,30.258L50.637,58.4A5.488,5.488,0,0,0,58.4,50.636L30.259,22.485a5.261,5.261,0,0,1-1.5-4.426A12.426,12.426,0,0,0,14.6,4.134ZM55.155,52.9A1.6,1.6,0,0,1,52.9,55.154L24.188,26.447a1.6,1.6,0,0,1,2.259-2.259Z" transform="translate(-4 -4)"/></svg>