<?xml version="1.0" encoding="utf-8"?>
<!-- Generator: Adobe Illustrator 19.1.0, SVG Export Plug-In . SVG Version: 6.00 Build 0)  -->
<svg version="1.1" id="Layer_1" xmlns="http://www.w3.org/2000/svg" xmlns:xlink="http://www.w3.org/1999/xlink" x="0px" y="0px"
	 width="32px" height="32px" viewBox="0 0 32 32" style="enable-background:new 0 0 32 32;" xml:space="preserve">
<style type="text/css">
	.st0{fill:#FFFFFF;stroke:#808080;stroke-linecap:round;stroke-linejoin:round;stroke-miterlimit:10;}
	.st1{fill:#006837;}
</style>
<rect x="0.5" y="0.5" class="st0" width="31" height="31"/>
<g>
	<path class="st1" d="M10,13c-2.2,0-4-1.8-4-4s1.8-4,4-4s4,1.8,4,4S12.2,13,10,13z"/>
</g>
<path class="st1" d="M24,28c-2.2,0-4-1.8-4-4s1.8-4,4-4s4,1.8,4,4S26.2,28,24,28z M24,21c-1.7,0-3,1.3-3,3s1.3,3,3,3s3-1.3,3-3
	S25.7,21,24,21z"/>
<path class="st1" d="M10,28c-2.2,0-4-1.8-4-4s1.8-4,4-4s4,1.8,4,4S12.2,28,10,28z M10,21c-1.7,0-3,1.3-3,3s1.3,3,3,3s3-1.3,3-3
	S11.7,21,10,21z"/>
<path class="st1" d="M9.5,19C9.2,19,9,18.8,9,18.5v-4C9,14.2,9.2,14,9.5,14s0.5,0.2,0.5,0.5v4C10,18.8,9.8,19,9.5,19z"/>
<path class="st1" d="M19.5,19c-0.1,0-0.3,0-0.4-0.1l-5-5c-0.2-0.2-0.2-0.5,0-0.7s0.5-0.2,0.7,0l5,5c0.2,0.2,0.2,0.5,0,0.7
	C19.8,19,19.6,19,19.5,19z"/>
</svg>
