<svg id="a1351021-c582-4348-8bff-745e5dee3145" data-name="Layer 1" xmlns="http://www.w3.org/2000/svg" width="64.071" height="64.203" viewBox="0 0 64.071 64.203"><defs><style>.f5414260-efb1-47cf-8e9e-cb2cb8dae94c{fill:#fff;}.a51b8e40-4e76-4c5a-bc6e-9c2402b942d8{fill:#666;}.ff2c2160-cc3f-464e-b399-cccfc0d40fa7{fill:gray;}</style></defs><rect class="f5414260-efb1-47cf-8e9e-cb2cb8dae94c" width="64" height="64"/><path class="a51b8e40-4e76-4c5a-bc6e-9c2402b942d8" d="M63.571,64.2h0L.6,63.874a.5.5,0,0,1-.5-.5V.6A.5.5,0,0,1,.6.1H63.571a.5.5,0,0,1,.5.5V63.7a.5.5,0,0,1-.147.355A.506.506,0,0,1,63.571,64.2ZM1,63H63V1H1Z" transform="translate(0)"/><path class="ff2c2160-cc3f-464e-b399-cccfc0d40fa7" d="M32,5c-6.692,6.692-16.725,8.937-24.576,8.937C7.424,33.111,18.747,49.9,32,58.621c13.253-8.72,24.576-25.51,24.576-44.684C48.725,13.937,38.692,11.692,32,5ZM12.089,18.169C17.574,17.619,25.3,15.907,32,10.907V53.148C23.063,46.3,13.559,33.924,12.089,18.169Z" transform="translate(0)"/></svg>