<svg id="adf68509-ef34-4a95-8ae4-bf20279cef1f" data-name="Layer 1" xmlns="http://www.w3.org/2000/svg" width="64.071" height="64.203" viewBox="0 0 64.071 64.203"><defs><style>.ba44315c-4f4b-4def-a27c-79f51203d0e7{fill:#c1272d;}.f42dcba5-d9ff-4b9c-bd2c-e85869c4e94f{fill:#666;}.f79334a2-dffc-49bb-b504-f91d6d4be92d{fill:#e6e6e6;}</style></defs><rect class="ba44315c-4f4b-4def-a27c-79f51203d0e7" width="64" height="64"/><path class="f42dcba5-d9ff-4b9c-bd2c-e85869c4e94f" d="M63.571,64.2h0L.6,63.874a.5.5,0,0,1-.5-.5V.6A.5.5,0,0,1,.6.1H63.571a.5.5,0,0,1,.5.5V63.7a.5.5,0,0,1-.147.355A.506.506,0,0,1,63.571,64.2ZM1,63H63V1H1Z" transform="translate(0)"/><path class="f79334a2-dffc-49bb-b504-f91d6d4be92d" d="M26.5,11,24,13H13v5h2V52a3.772,3.772,0,0,0,1.529,2.721A5.185,5.185,0,0,0,20,56H42.25a4.571,4.571,0,0,0,3.221-1.279A6.1,6.1,0,0,0,47,51V18h2V13H38l-2.5-2ZM20,18H42V51H20Zm4,4V47h5V22Zm9,0V47h5V22Z" transform="translate(0)"/></svg>