<svg id="a3bdf9f6-afa7-4b88-99e2-75cba330a1c1" data-name="Layer 1" xmlns="http://www.w3.org/2000/svg" width="64" height="64" viewBox="0 0 64 64"><defs><style>.b26a6073-bc95-4d25-b396-7677b99878c5,.bb8549fb-4ba2-4a0f-80c0-d1a2ed9aef91{fill:#fff;}.b26a6073-bc95-4d25-b396-7677b99878c5{stroke:#666;stroke-linecap:round;stroke-linejoin:round;}.a4cce250-4f63-4c41-ab9e-53b9a0ef6500{fill:#4d4d4d;}.eea3e89e-4b98-4024-b7b9-c3a1d23bbb1b{fill:#c69c6d;}.b79e72ab-d8a0-4c5f-b881-39f338b408ed{fill:#754c24;}.e8311b2f-81e9-4cd9-a12b-c7508caa712c{fill:#006837;}</style></defs><rect class="b26a6073-bc95-4d25-b396-7677b99878c5" x="0.5" y="0.5" width="63" height="63"/><g id="a41b8d96-639e-4e43-a31b-42367f82ad52" data-name="EmptyDocument"><path class="bb8549fb-4ba2-4a0f-80c0-d1a2ed9aef91" d="M15.857,55.494a3.5,3.5,0,0,1-3.5-3.5V13.84a2.5,2.5,0,0,1,2.5-2.5h32a2.5,2.5,0,0,1,2.5,2.5V51.994a3.5,3.5,0,0,1-3.5,3.5Z" transform="translate(0)"/><path class="a4cce250-4f63-4c41-ab9e-53b9a0ef6500" d="M46.857,11.84a2,2,0,0,1,2,2V52a3,3,0,0,1-3,3h-30a3,3,0,0,1-3-3V13.84a2,2,0,0,1,2-2h32m0-1h-32a3,3,0,0,0-3,3V52a4,4,0,0,0,4,4h30a4,4,0,0,0,4-4V13.84a3,3,0,0,0-3-3Z" transform="translate(0)"/><path class="eea3e89e-4b98-4024-b7b9-c3a1d23bbb1b" d="M13.886,15.1c-.365,0-.6-.194-.6-.327l-.929-4.932a.16.16,0,0,1,.049-.14.717.717,0,0,1,.548-.209h3.126c.365,0,.6.193.6.325l.928,4.933a.157.157,0,0,1-.048.141.723.723,0,0,1-.548.209Z" transform="translate(0)"/><path class="b79e72ab-d8a0-4c5f-b881-39f338b408ed" d="M16.082,9.995a.4.4,0,0,1,.116.015L17.07,14.6a.509.509,0,0,1-.058,0H13.886a.411.411,0,0,1-.117-.015L12.9,10a.509.509,0,0,1,.058,0h3.126m0-1H12.956c-.669,0-1.182.445-1.088.942l.92,4.839c0,.457.491.826,1.1.826h3.126c.669,0,1.182-.445,1.087-.942L17.18,9.821c0-.457-.491-.826-1.1-.826Z" transform="translate(0)"/><path class="eea3e89e-4b98-4024-b7b9-c3a1d23bbb1b" d="M21.909,15.1c-.366,0-.6-.194-.6-.327l-.928-4.932a.155.155,0,0,1,.048-.14.719.719,0,0,1,.548-.209h3.126c.365,0,.6.193.6.325l.927,4.933a.157.157,0,0,1-.048.141.723.723,0,0,1-.548.209Z" transform="translate(0)"/><path class="b79e72ab-d8a0-4c5f-b881-39f338b408ed" d="M24.105,9.995a.4.4,0,0,1,.116.015l.872,4.589a.509.509,0,0,1-.058,0H21.909a.411.411,0,0,1-.117-.015L20.921,10a.509.509,0,0,1,.058,0h3.126m0-1H20.979c-.669,0-1.182.445-1.088.942l.92,4.839c0,.457.491.826,1.1.826h3.126c.669,0,1.182-.445,1.088-.942L25.2,9.821c0-.457-.491-.826-1.1-.826Z" transform="translate(0)"/><path class="eea3e89e-4b98-4024-b7b9-c3a1d23bbb1b" d="M29.642,15.1c-.366,0-.6-.194-.6-.327l-.927-4.932a.155.155,0,0,1,.048-.14.718.718,0,0,1,.547-.209h3.127c.36,0,.6.2.6.325l.927,4.933a.157.157,0,0,1-.048.141.722.722,0,0,1-.547.209Z" transform="translate(0)"/><path class="b79e72ab-d8a0-4c5f-b881-39f338b408ed" d="M31.838,9.995a.411.411,0,0,1,.117.015l.871,4.589a.509.509,0,0,1-.058,0H29.642a.4.4,0,0,1-.116-.015L28.654,10a.509.509,0,0,1,.058,0h3.126m0-1H28.712c-.669,0-1.182.445-1.088.942l.92,4.839c0,.457.491.826,1.1.826h3.126c.669,0,1.182-.445,1.088-.942l-.92-4.839c0-.457-.491-.826-1.1-.826Z" transform="translate(0)"/><path class="eea3e89e-4b98-4024-b7b9-c3a1d23bbb1b" d="M37.983,15.1c-.365,0-.6-.194-.6-.327l-.928-4.932a.155.155,0,0,1,.048-.14.719.719,0,0,1,.548-.209H40.18c.365,0,.6.193.6.325l.928,4.933a.155.155,0,0,1-.048.14.72.72,0,0,1-.549.21Z" transform="translate(0)"/><path class="b79e72ab-d8a0-4c5f-b881-39f338b408ed" d="M40.18,9.995a.4.4,0,0,1,.116.015l.872,4.589a.522.522,0,0,1-.058,0H37.983a.4.4,0,0,1-.116-.015L36.995,10a.522.522,0,0,1,.058,0H40.18m0-1H37.053c-.668,0-1.182.445-1.087.942l.919,4.839c0,.457.492.826,1.1.826H41.11c.668,0,1.182-.445,1.087-.942l-.919-4.839c0-.457-.492-.826-1.1-.826Z" transform="translate(0)"/><path class="eea3e89e-4b98-4024-b7b9-c3a1d23bbb1b" d="M45.632,15.1c-.365,0-.6-.194-.6-.327l-.928-4.932a.161.161,0,0,1,.048-.14.721.721,0,0,1,.548-.209h3.126c.365,0,.6.193.6.325l.927,4.933a.158.158,0,0,1-.047.141.725.725,0,0,1-.548.209Z" transform="translate(0)"/><path class="b79e72ab-d8a0-4c5f-b881-39f338b408ed" d="M47.829,9.995a.4.4,0,0,1,.116.015l.871,4.589a.491.491,0,0,1-.057,0H45.632a.4.4,0,0,1-.116-.015L44.644,10a.522.522,0,0,1,.058,0h3.127m0-1H44.7c-.668,0-1.182.445-1.087.942l.919,4.839c0,.457.492.826,1.1.826h3.127c.668,0,1.181-.445,1.087-.942l-.919-4.839c0-.457-.492-.826-1.1-.826Z" transform="translate(0)"/></g><path class="e8311b2f-81e9-4cd9-a12b-c7508caa712c" d="M43.066,23.825a9.638,9.638,0,0,0-15.973,9.808L16.247,44.507a.876.876,0,0,0-.256.62L16,50.086a.876.876,0,0,0,.877.876l4.96-.007a.877.877,0,0,0,.619-.257l1.238-1.243a.875.875,0,0,0,.25-.721L23.786,47.4l1.846-.176a.875.875,0,0,0,.789-.791l.171-1.846,1.332.153a.863.863,0,0,0,.684-.216.879.879,0,0,0,.293-.656l0-1.632,1.6,0a.874.874,0,0,0,.62-.258l2.245-2.221a9.494,9.494,0,0,0,9.718-2.294A9.654,9.654,0,0,0,43.066,23.825Zm-2.472,6.2a2.63,2.63,0,1,1-.005-3.719A2.632,2.632,0,0,1,40.594,30.027Z" transform="translate(0)"/></svg>