<?xml version="1.0" encoding="utf-8"?>
<!-- Generator: Adobe Illustrator 19.1.0, SVG Export Plug-In . SVG Version: 6.00 Build 0)  -->
<svg version="1.1" id="Layer_1" xmlns="http://www.w3.org/2000/svg" xmlns:xlink="http://www.w3.org/1999/xlink" x="0px" y="0px"
	 viewBox="0 0 64 64" style="enable-background:new 0 0 64 64;" xml:space="preserve">
<style type="text/css">
	.st0{fill:#FFFFFF;stroke:#666666;stroke-linecap:round;stroke-linejoin:round;stroke-miterlimit:10;}
	.st1{fill:#333333;}
</style>
<polygon class="st0" points="63.6,63.7 0.6,63.4 0.6,0.6 63.6,0.6 "/>
<g>
	<path class="st1" d="M47.5,53h-27c-3.6,0-6.5-2.9-6.5-6.5v-29c0-3.6,2.9-6.5,6.5-6.5h27c0.3,0,0.5,0.2,0.5,0.5v3
		c0,0.2-0.1,0.3-0.2,0.4l-4,3c-0.2,0.1-0.4,0.1-0.5,0c-0.2-0.1-0.3-0.3-0.3-0.4V16H20.5c-0.8,0-1.5,0.7-1.5,1.5v29
		c0,0.8,0.7,1.5,1.5,1.5H43V34.5c0-0.1,0.1-0.3,0.1-0.4l4-4c0.1-0.1,0.4-0.2,0.5-0.1c0.2,0.1,0.3,0.3,0.3,0.5v22
		C48,52.8,47.8,53,47.5,53z"/>
</g>
<g>
	<path class="st1" d="M31.5,41c-0.1,0-0.1,0-0.2,0c-0.2-0.1-0.3-0.3-0.3-0.5v-4c0-0.1,0-0.3,0.1-0.3l16-17c0.1-0.2,0.4-0.2,0.5-0.1
		c0.2,0.1,0.3,0.3,0.3,0.5v4c0,0.1,0,0.2-0.1,0.3l-11,12c0,0,0,0,0,0l-5,5C31.8,40.9,31.6,41,31.5,41z"/>
</g>
</svg>
