<?xml version="1.0" encoding="utf-8"?>
<!-- Generator: Adobe Illustrator 19.1.0, SVG Export Plug-In . SVG Version: 6.00 Build 0)  -->
<svg version="1.1" id="Layer_1" xmlns="http://www.w3.org/2000/svg" xmlns:xlink="http://www.w3.org/1999/xlink" x="0px" y="0px"
	 viewBox="0 0 32 32" style="enable-background:new 0 0 32 32;" xml:space="preserve">
<style type="text/css">
	.st0{fill:#FFFFFF;stroke:#808080;stroke-linecap:round;stroke-linejoin:round;stroke-miterlimit:10;}
	.st1{fill:#006837;}
</style>
<rect x="0.5" y="0.5" class="st0" width="31" height="31"/>
<g>
	<polyline class="st1" points="26.5,22.5 26.5,27.5 4.5,27.5 4.5,22.5 6.5,22.5 6.5,25.5 24.5,25.5 24.5,22.5 26.5,22.5 	"/>
	<path class="st1" d="M26.5,28h-22C4.2,28,4,27.8,4,27.5v-5C4,22.2,4.2,22,4.5,22h2C6.8,22,7,22.2,7,22.5V25h17v-2.5
		c0-0.3,0.2-0.5,0.5-0.5h2c0.3,0,0.5,0.2,0.5,0.5v5C27,27.8,26.8,28,26.5,28z"/>
</g>
<g>
	<path class="st1" d="M17.5,22h-4c-0.3,0-0.5-0.2-0.5-0.5V14h-2.5c-0.2,0-0.4-0.1-0.4-0.3c-0.1-0.2-0.1-0.4,0-0.5l5-7
		c0.2-0.3,0.6-0.3,0.8,0l5,7c0.1,0.2,0.1,0.4,0,0.5S20.7,14,20.5,14H18v7.5C18,21.8,17.8,22,17.5,22z"/>
</g>
</svg>
