<svg id="bc6763b3-61ad-4538-9809-7cf16d9b3a03" data-name="Layer 1" xmlns="http://www.w3.org/2000/svg" width="64" height="64" viewBox="0 0 64 64"><defs><style>.ad4d9008-8d3f-496f-9f51-219771f1dafc{fill:#fff;}.bff9c441-614f-4481-81f8-4d461e896da0{fill:#a2b19b;}.a8620a00-7dc1-475b-9771-fa13f06a4c40{fill:#666;}.bd627677-e8af-41e0-b73d-a7a557353ce8{fill:#006837;}</style></defs><rect class="ad4d9008-8d3f-496f-9f51-219771f1dafc" x="1" y="1" width="62" height="62"/><path class="bff9c441-614f-4481-81f8-4d461e896da0" d="M14.315,41.075A12.586,12.586,0,0,0,27.2,44.117l2.976,2.945A1.167,1.167,0,0,0,31,47.4l2.124,0,0,2.164a1.165,1.165,0,0,0,.389.869,1.14,1.14,0,0,0,.906.287l1.766-.2.228,2.447a1.159,1.159,0,0,0,1.046,1.049l2.447.234-.207,1.766a1.164,1.164,0,0,0,.331.956l1.642,1.647a1.158,1.158,0,0,0,.821.341l6.575.009a1.161,1.161,0,0,0,1.163-1.161l.009-6.575a1.164,1.164,0,0,0-.339-.822L35.515,36a12.78,12.78,0,1,0-21.2,5.078Zm3.308-14.788a3.486,3.486,0,1,1-.007,4.93A3.489,3.489,0,0,1,17.623,26.287Z"/><path class="a8620a00-7dc1-475b-9771-fa13f06a4c40" d="M63.5,64H.5a.5.5,0,0,1-.5-.5V.5A.5.5,0,0,1,.5,0h63a.5.5,0,0,1,.5.5v63A.5.5,0,0,1,63.5,64ZM1,63H63V1H1Z"/><path class="bd627677-e8af-41e0-b73d-a7a557353ce8" d="M17.91,26.9a12.589,12.589,0,0,0,12.883,3.042l2.977,2.945a1.161,1.161,0,0,0,.821.341l2.125,0,0,2.164a1.169,1.169,0,0,0,.388.869,1.147,1.147,0,0,0,.907.287l1.766-.2L40,38.8a1.161,1.161,0,0,0,1.047,1.049l2.446.234-.206,1.765a1.161,1.161,0,0,0,.331.957l1.641,1.646a1.158,1.158,0,0,0,.821.342l6.575.008a1.161,1.161,0,0,0,1.164-1.16l.009-6.575a1.161,1.161,0,0,0-.34-.822L39.11,21.823A12.78,12.78,0,1,0,17.91,26.9Zm3.307-14.788a3.486,3.486,0,1,1-.006,4.93A3.491,3.491,0,0,1,21.217,12.113Z"/></svg>