<svg id="Layer_1" data-name="Layer 1" xmlns="http://www.w3.org/2000/svg" width="190.5" height="64.5" viewBox="0 0 190.5 64.5"><defs><style>.cls-1{fill:#fff;stroke:#666;stroke-linejoin:round;stroke-width:0.5px;}.cls-2{fill:#006837;}.cls-3{fill:#4d4d4d;}</style></defs><title>async_mdn</title><rect id="Background" class="cls-1" x="0.25" y="0.25" width="190" height="64"/><polygon class="cls-2" points="37 10.25 12.25 35.393 18.437 35.393 18.437 54.25 55.562 54.25 55.562 35.393 61.75 35.393 37 10.25"/><circle class="cls-2" cx="167.417" cy="19.417" r="9.167"/><path class="cls-2" d="M169,28.333h-3.667c-4.05,0-7.333,2.554-7.333,5.7v9.891a3.234,3.234,0,0,0,2.332,2.969c2.425.826,2.612,3.257.882,4.6L158,54h18.333l-3.214-2.5c-1.73-1.346-1.543-3.777.883-4.6a3.235,3.235,0,0,0,2.331-2.969V34.037C176.333,30.887,173.05,28.333,169,28.333Z" transform="translate(0.25 0.25)"/><polyline class="cls-3" points="143.25 26.25 143.25 23.25 151.25 27.25 143.25 31.25 143.25 28.25 69.25 28.25 69.25 26.25 143.25 26.25"/><polyline class="cls-3" points="77.25 44.25 77.25 47.25 69.25 43.25 77.25 39.25 77.25 42.25 151.25 42.25 151.25 44.25 77.25 44.25"/></svg>