<svg xmlns="http://www.w3.org/2000/svg" width="16" height="16" viewBox="0 0 16 16">
  <defs>
    <style>
      .a {
        fill: #fff;
      }

      .b {
        fill: #999;
      }

      .c {
        fill: #006837;
      }

      .d {
        fill: #009245;
      }
    </style>
  </defs>
  <title>copypartner</title>
  <g>
    <rect class="a" x="0.125" y="0.125" width="15.75" height="15.75"/>
    <path class="b" d="M15.75.25v15.5H.25V.25h15.5M16,0H0V16H16V0Z"/>
  </g>
  <g>
    <circle class="c" cx="4.5" cy="4.5" r="2.375"/>
    <path class="c" d="M4.5,2.25A2.25,2.25,0,1,1,2.25,4.5,2.252,2.252,0,0,1,4.5,2.25M4.5,2A2.5,2.5,0,1,0,7,4.5,2.5,2.5,0,0,0,4.5,2Z"/>
  </g>
  <g>
    <path class="c" d="M2.364,13.875l.589-.458a.851.851,0,0,0,.35-.81.874.874,0,0,0-.627-.663.761.761,0,0,1-.551-.691v-2.7A1.7,1.7,0,0,1,4,7.125H5A1.7,1.7,0,0,1,6.875,8.556v2.7a.762.762,0,0,1-.551.691.876.876,0,0,0-.627.663.851.851,0,0,0,.349.81l.59.458Z"/>
    <path class="c" d="M5,7.25c.965,0,1.75.586,1.75,1.306v2.7a.638.638,0,0,1-.466.573.992.992,0,0,0-.71.761.974.974,0,0,0,.4.929l.3.234H2.729l.3-.234a.974.974,0,0,0,.4-.929.992.992,0,0,0-.709-.761.638.638,0,0,1-.467-.573v-2.7c0-.72.785-1.306,1.75-1.306H5M5,7H4A1.82,1.82,0,0,0,2,8.556v2.7a.882.882,0,0,0,.636.81.691.691,0,0,1,.241,1.255L2,14H7l-.877-.682a.691.691,0,0,1,.241-1.255A.882.882,0,0,0,7,11.253v-2.7A1.82,1.82,0,0,0,5,7Z"/>
  </g>
  <g>
    <circle class="d" cx="11.5" cy="4.5" r="2.375"/>
    <path class="d" d="M11.5,2.25A2.25,2.25,0,1,1,9.25,4.5,2.252,2.252,0,0,1,11.5,2.25m0-.25A2.5,2.5,0,1,0,14,4.5,2.5,2.5,0,0,0,11.5,2Z"/>
  </g>
  <g>
    <path class="d" d="M9.364,13.875l.59-.458a.851.851,0,0,0,.35-.81.879.879,0,0,0-.628-.663.762.762,0,0,1-.551-.691v-2.7A1.7,1.7,0,0,1,11,7.125h1a1.7,1.7,0,0,1,1.875,1.431v2.7a.762.762,0,0,1-.551.691.879.879,0,0,0-.628.663.851.851,0,0,0,.35.81l.59.458Z"/>
    <path class="d" d="M12,7.25c.965,0,1.75.586,1.75,1.306v2.7a.638.638,0,0,1-.466.573.992.992,0,0,0-.71.761.974.974,0,0,0,.4.929l.3.234H9.729l.3-.234a.974.974,0,0,0,.4-.929.992.992,0,0,0-.709-.761.638.638,0,0,1-.467-.573v-2.7c0-.72.785-1.306,1.75-1.306h1M12,7H11A1.82,1.82,0,0,0,9,8.556v2.7a.882.882,0,0,0,.636.81.691.691,0,0,1,.241,1.255L9,14h5l-.877-.682a.691.691,0,0,1,.241-1.255.882.882,0,0,0,.636-.81v-2.7A1.82,1.82,0,0,0,12,7Z"/>
  </g>
</svg>
