<svg id="Layer_1" data-name="Layer 1" xmlns="http://www.w3.org/2000/svg" width="190.5" height="64.5" viewBox="0 0 190.5 64.5"><defs><style>.cls-1{fill:#fff;stroke:#666;stroke-linejoin:round;stroke-width:0.5px;}.cls-2{fill:#006837;}.cls-3{fill:#4d4d4d;}</style></defs><title>sync_mdn</title><rect id="Background" class="cls-1" x="0.25" y="0.25" width="190" height="64"/><polygon class="cls-2" points="37 10.25 12.25 35.393 18.437 35.393 18.437 54.25 55.562 54.25 55.562 35.393 61.75 35.393 37 10.25"/><circle class="cls-2" cx="169.417" cy="19.417" r="9.167"/><path class="cls-2" d="M171,28.333h-3.667c-4.05,0-7.333,2.554-7.333,5.7v9.891a3.234,3.234,0,0,0,2.332,2.969c2.425.826,2.612,3.257.882,4.6L160,54h18.333l-3.214-2.5c-1.73-1.346-1.543-3.777.883-4.6a3.235,3.235,0,0,0,2.331-2.969V34.037C178.333,30.887,175.05,28.333,171,28.333Z" transform="translate(0.25 0.25)"/><polygon class="cls-3" points="151.026 33.035 151.181 31.258 69.493 24.111 69.319 26.103 148.546 33.035 77.288 39.269 77.027 36.28 69.406 40.962 77.724 44.25 77.463 41.261 151.181 34.812 151.026 33.035"/></svg>