<svg id="b4b41a69-152a-439d-823a-dda72a5b0595" data-name="Layer 1" xmlns="http://www.w3.org/2000/svg" width="64" height="64" viewBox="0 0 64 64"><defs><style>.a24f9ccf-d326-4472-81ab-d736050600fc{fill:#fff;}.afb2df46-97d4-40d3-82b4-4453d333d724{fill:#666;}.bdb60e3a-d39b-4d3e-a293-6ae4d680906e{fill:#f7931e;}</style></defs><rect class="a24f9ccf-d326-4472-81ab-d736050600fc" x="1" y="1" width="62" height="62"/><path class="afb2df46-97d4-40d3-82b4-4453d333d724" d="M63.5,64H.5a.5.5,0,0,1-.5-.5V.5A.5.5,0,0,1,.5,0h63a.5.5,0,0,1,.5.5v63A.5.5,0,0,1,63.5,64ZM1,63H63V1H1Z"/><path class="bdb60e3a-d39b-4d3e-a293-6ae4d680906e" d="M13.91,34.9a12.589,12.589,0,0,0,12.883,3.042l2.977,2.945a1.161,1.161,0,0,0,.821.341l2.125,0,0,2.164a1.169,1.169,0,0,0,.388.869,1.147,1.147,0,0,0,.907.287l1.766-.2L36,46.8a1.161,1.161,0,0,0,1.047,1.049l2.446.234-.206,1.765a1.161,1.161,0,0,0,.331.957l1.641,1.646a1.158,1.158,0,0,0,.821.342l6.575.008a1.161,1.161,0,0,0,1.164-1.16l.009-6.575a1.161,1.161,0,0,0-.34-.822L35.11,29.823A12.78,12.78,0,1,0,13.91,34.9Zm3.307-14.788a3.486,3.486,0,1,1-.006,4.93A3.491,3.491,0,0,1,17.217,20.113Z"/></svg>