<svg id="a7c9b72f-4c95-4314-a98e-3f4c390ef0a1" data-name="Layer 1" xmlns="http://www.w3.org/2000/svg" width="64" height="64" viewBox="0 0 64 64"><defs><style>.b277f29d-64c0-49e1-ba84-d6b38935935b{fill:#fff;}.b44ee6ad-78c3-4774-8fdc-47b86fc389ca{fill:#666;}.a84c0ac4-8e65-4617-bd55-75ce01681e0d{fill:#006837;}</style></defs><rect class="b277f29d-64c0-49e1-ba84-d6b38935935b" x="1" y="1" width="62" height="62"/><path class="b44ee6ad-78c3-4774-8fdc-47b86fc389ca" d="M63.5,64H.5a.5.5,0,0,1-.5-.5V.5A.5.5,0,0,1,.5,0h63a.5.5,0,0,1,.5.5v63A.5.5,0,0,1,63.5,64ZM1,63H63V1H1Z"/><path class="a84c0ac4-8e65-4617-bd55-75ce01681e0d" d="M13.91,34.9a12.589,12.589,0,0,0,12.883,3.042l2.977,2.945a1.161,1.161,0,0,0,.821.341l2.125,0,0,2.164a1.169,1.169,0,0,0,.388.869,1.147,1.147,0,0,0,.907.287l1.766-.2L36,46.8a1.161,1.161,0,0,0,1.047,1.049l2.446.234-.206,1.765a1.161,1.161,0,0,0,.331.957l1.641,1.646a1.158,1.158,0,0,0,.821.342l6.575.008a1.161,1.161,0,0,0,1.164-1.16l.009-6.575a1.161,1.161,0,0,0-.34-.822L35.11,29.823A12.78,12.78,0,1,0,13.91,34.9Zm3.307-14.788a3.486,3.486,0,1,1-.006,4.93A3.491,3.491,0,0,1,17.217,20.113Z"/></svg>